<svg width="240" height="234" viewBox="0 0 240 234" fill="none" xmlns="http://www.w3.org/2000/svg">
<path d="M42.5 1.88608e-05H197.5C203.083 -0.00524284 208.612 1.09046 213.77 3.22442C218.929 5.35838 223.616 8.48871 227.564 12.4362C231.511 16.3838 234.642 21.071 236.776 26.2297C238.91 31.3885 240.005 36.9174 240 42.5V191.5C240.005 197.083 238.91 202.612 236.776 207.77C234.642 212.929 231.511 217.616 227.564 221.564C223.616 225.511 218.929 228.642 213.77 230.776C208.612 232.91 203.083 234.005 197.5 234H42.5C36.9174 234.005 31.3885 232.91 26.2297 230.776C21.071 228.642 16.3838 225.511 12.4362 221.564C8.48871 217.616 5.35838 212.929 3.22442 207.77C1.09046 202.612 -0.00524284 197.083 1.88608e-05 191.5V42.5C-0.00524284 36.9174 1.09046 31.3885 3.22442 26.2297C5.35838 21.071 8.48871 16.3838 12.4362 12.4362C16.3838 8.48871 21.071 5.35838 26.2297 3.22442C31.3885 1.09046 36.9174 -0.00524284 42.5 1.88608e-05V1.88608e-05Z" fill="#323330"/>
<path d="M152.897 88.1231L152.858 87.7448L152.235 87.7949L152.274 88.1787L152.897 88.1231ZM157.063 98.1467L157.08 98.3525L157.508 98.3136C157.513 98.0911 157.564 97.8853 157.647 97.6961L157.641 97.7072L157.603 97.329C157.419 97.3457 157.23 97.6182 157.063 98.1467V98.1467ZM140.798 110.774C140.77 110.418 139.663 109.032 137.477 106.591C137.438 106.146 138.189 105.478 139.73 104.588L144.136 100.744C145.12 99.4928 145.699 97.4681 145.877 94.6423L145.827 93.9971C145.649 92.0446 144.241 90.476 141.56 89.2745C139.981 88.2065 137.133 87.6113 133.016 87.5112C129.606 87.8004 125.168 89.0186 119.688 91.1602C118.237 92.2115 116.557 93.2851 114.821 94.2696L114.549 94.4087L114.577 94.7369C114.777 94.7035 114.949 94.6256 115.099 94.5144H115.094C115.316 94.4921 115.444 94.5867 115.467 94.8092L115.795 94.6312L115.945 94.6145L115.967 94.7647C115.984 94.9371 114.794 95.8772 112.391 97.5459L112.574 97.8852L112.418 97.9019L112.018 97.7518C112.034 97.8797 111.862 97.952 111.528 97.9743L111.545 98.1244L111.929 98.5972C111.729 98.5917 111.534 98.5472 111.361 98.4693L111.373 98.4749C110.716 98.575 110.149 98.8976 109.743 99.3593V99.3649L109.965 98.3914C110.772 94.9204 111.322 91.8499 111.612 89.1855L111.573 89.0131C110.955 88.5959 110.427 88.1008 109.987 87.539L109.976 87.5223C109.987 87.4166 109.987 87.2942 109.987 87.1719C109.987 87.0495 109.982 86.9271 109.971 86.8047V86.8214L109.932 86.6712L109.776 86.7158C108.035 89.3246 104.681 93.7857 99.7136 100.088C95.9311 104.577 93.9731 107.069 93.8563 107.57C92.3154 109.166 91.5812 110.128 91.6535 110.462C91.2474 110.723 91.075 110.979 91.1362 111.28C91.0249 111.302 90.9415 111.263 90.9137 111.146C90.2629 112.192 89.2283 112.943 88.0045 113.193L87.9767 113.199L86.6028 113.516C86.4192 113.555 86.3302 113.688 86.3413 113.911L86.3803 114.083L86.892 113.966L86.9309 114.117L85.7684 114.562L83.7158 115.034L82.6311 115.107C82.4754 115.257 83.4933 115.084 83.0928 115.179L81.7522 115.496C80.9346 115.68 80.4896 115.613 80.4117 115.279L80.2504 115.318C80.2782 115.468 80.2893 115.568 80.2671 115.669L80.1947 115.335L79.1101 115.585C79.0377 115.079 77.5693 113.266 74.7324 110.128C74.6712 109.522 75.6724 108.638 77.7194 107.486L83.4989 102.408C84.7894 100.744 85.5514 98.0855 85.8073 94.4198L85.735 93.5576C85.5125 90.9711 83.6379 88.8851 80.1113 87.2831C78.0254 85.8758 74.2818 85.1193 68.8751 84.9969C64.3861 85.3752 58.5288 86.9772 51.3254 89.7584C49.4007 91.1602 47.1924 92.5731 44.9007 93.858L44.5614 94.0304L44.6003 94.4754C44.8506 94.4309 45.0787 94.3419 45.2734 94.214L45.2678 94.2196C45.5626 94.1918 45.7184 94.3252 45.7518 94.5922L46.1968 94.3419L46.4193 94.3253L46.4359 94.5422C46.4526 94.748 44.8784 95.9717 41.7023 98.219L41.9526 98.6139L41.7301 98.6306L41.2406 98.4582C41.2572 98.5917 41.0236 98.6807 40.5731 98.7196L40.5953 98.9588L41.1237 99.5429C40.8679 99.5373 40.6231 99.4873 40.4006 99.3871L40.4117 99.3927C39.3827 99.4872 38.3814 100.221 37.3913 101.618L37.6416 102.018C38.4927 101.223 38.9989 100.833 39.1379 100.817L39.188 101.462C38.9377 101.518 38.7152 101.612 38.5094 101.734L38.5205 101.729L39.0601 102.547C40.0669 101.456 41.1961 100.5 42.4309 99.6986L42.4977 99.6541C43.1151 99.8154 43.4489 100.016 43.46 100.227L43.9328 100.188C47.3315 97.6683 50.6968 95.8494 54.0343 94.7313L54.0732 95.1763C53.4502 96.1052 53.0331 96.5781 52.8106 96.6003C52.8328 96.9174 52.9385 97.1955 53.1388 97.4291C53.1888 98.0021 51.6703 101.818 48.5998 108.893C41.6299 125.331 35.7671 137.485 31 145.344C31.0167 145.506 31.1112 145.717 31.2837 145.984C32.4574 145.701 33.1972 145.411 33.5087 145.139L33.759 145.111L33.7979 145.556L34.2374 145.517L34.6824 145.272C34.6991 145.4 34.8437 145.467 35.1496 145.445L35.1886 145.89C35.2275 146.329 34.9716 146.985 34.4487 147.892C33.9759 148.432 33.4642 149.566 32.9191 151.302L32.9357 151.508L33.3752 151.463C35.272 149.344 36.7127 147.258 37.6972 145.233C43.2375 143.603 47.4594 142.007 50.3798 140.444C53.3223 140.194 55.5696 139.415 57.0992 138.13L57.0714 137.891L55.9589 138.224L55.7142 138.252L55.6864 138.008C57.8446 137.679 59.3354 137.207 60.1642 136.545C64.375 133.302 67.5512 131.004 69.7039 129.647C74.1261 126.399 77.0019 123.239 78.3091 120.163L79.0489 119.991C79.6663 119.968 80.0112 119.952 80.1002 119.924C80.0724 119.807 80.128 119.74 80.2504 119.718C81.2349 119.612 80.7621 119.785 81.3907 119.646L83.0539 119.262C82.9482 119.284 82.9037 119.334 82.9371 119.44L83.1874 119.29C83.1373 119.29 83.0928 119.267 83.0539 119.262L83.3264 119.19L83.1985 119.273C83.2597 119.279 83.332 119.284 83.3988 119.284C83.5378 119.284 83.6769 119.268 83.8104 119.234H83.7992L83.9161 119.724L76.3566 131.739L74.6823 133.836L73.8646 136.578L74.0204 136.533L74.8381 136.194L74.5766 137.262L74.6489 137.579L74.877 137.852C74.7713 137.88 74.7268 137.946 74.7602 138.069L74.7991 138.241L75.1384 138.169C75.6446 137.724 75.8504 137.329 75.7781 136.973C76.0006 137.029 76.2621 137.062 76.5291 137.062C76.6459 137.062 76.7571 137.056 76.8684 137.045H76.8572L76.8962 137.223C76.568 137.296 76.4011 137.563 76.3789 138.019L76.4067 138.191L76.5903 138.147C79.3326 135.16 86.0632 124.908 91.4588 117.96C91.2808 117.204 94.0899 116.164 99.8971 114.817L100.081 114.779C100.287 115.691 99.8415 117.894 98.729 121.387C98.017 123.501 97.6777 124.658 97.7278 124.841C96.8099 127.65 96.3705 129.163 96.4206 129.402L94.368 136.15C93.033 139.598 92.0151 143.225 91.3031 147.052C91.3531 147.047 91.4143 147.041 91.4699 147.041C91.6146 147.041 91.7536 147.063 91.8816 147.108H91.8704L92.1597 146.857C92.1875 146.974 92.2654 147.013 92.3822 146.991L92.2654 146.501L93.1554 146.479C93.4224 146.407 93.6504 146.079 93.8284 145.472C93.7895 144.566 93.9786 144.076 94.3847 143.976C94.9409 141.812 95.2803 140.728 95.4026 140.689C95.9199 138.536 96.2982 137.307 96.5541 137.012C97.3328 134.214 97.8946 132.779 98.2673 132.679L98.3396 133.029L97.7778 134.492C96.7933 138.881 95.792 142.352 94.7741 144.899L95.0633 146.162L95.2469 146.134C97.6944 140.856 101.232 130.409 105.838 114.79C105.944 113.432 106.7 112.275 107.785 111.608L107.801 111.597L107.534 111.313L107.495 111.163C108.024 111.052 108.391 110.835 108.608 110.545C108.58 110.429 108.119 110.256 107.223 110.017L109.52 100.177C109.771 99.91 110.06 99.6819 110.377 99.5039L110.394 99.4928L110.432 99.9879C110.238 100.027 110.065 100.105 109.915 100.21H109.921L110.36 100.833C111.145 99.9823 112.007 99.2369 112.941 98.6139C113.414 98.7474 113.653 98.9087 113.681 99.0589L114.02 99.0367C116.223 97.3513 118.771 95.9606 121.519 94.9816L121.713 94.9204L121.741 95.2542C121.279 95.9495 120.962 96.3055 120.79 96.3222C120.812 96.5558 120.884 96.7727 121.001 96.9563L120.996 96.9508C121.035 97.3902 119.905 100.288 117.586 105.673C112.285 118.133 107.84 127.361 104.219 133.346C104.264 133.535 104.347 133.697 104.458 133.836C105.348 133.619 105.91 133.396 106.133 133.19L106.288 133.174L106.316 133.502L106.689 133.48L107.023 133.307C107.039 133.396 107.151 133.435 107.379 133.424L107.407 133.78C107.434 134.092 107.245 134.598 106.834 135.276C106.455 135.682 106.055 136.545 105.632 137.852L105.649 138.024L105.999 138.002C107.262 136.628 108.358 135.071 109.22 133.374L109.275 133.257C113.486 132.011 116.69 130.81 118.91 129.625C121.163 129.43 122.865 128.846 124.027 127.873L124.011 127.7L123.148 127.945L122.965 127.962L122.948 127.789C124.578 127.55 125.729 127.183 126.352 126.699C129.54 124.246 131.959 122.488 133.589 121.465C138.684 117.754 141.06 114.194 140.77 110.779L140.798 110.774ZM139.925 110.996L140.042 112.331C139.892 112.659 139.714 112.826 139.558 112.848L139.358 110.573C139.73 110.707 139.914 110.84 139.919 110.996H139.925ZM40.0613 100.272L39.8388 100.277L39.7999 99.8711L40.7121 99.7988L40.7288 100.005C40.4785 100.049 40.2504 100.144 40.0557 100.277L40.0613 100.272V100.272ZM35.6113 144.733C35.2442 144.543 34.8047 144.432 34.3431 144.432C34.293 144.432 34.2429 144.432 34.1929 144.438H34.1984L34.1539 143.793C34.1261 143.548 34.2707 143.375 34.5822 143.309C34.8771 143.281 35.0439 143.492 35.0718 143.909C35.8338 142.975 36.2566 142.502 36.3344 142.485L36.8295 142.686C36.6682 144.004 36.2566 144.683 35.6057 144.733H35.6113ZM83.1151 95.0428C82.8926 95.0706 82.4476 94.3753 81.7967 92.9902L81.7578 92.5842C82.1806 92.5397 82.62 93.2294 83.0761 94.6367L83.1151 95.0428ZM82.4809 90.1256L82.2974 90.565L75.8449 87.8728C80.1447 88.0229 82.3641 88.7628 82.4809 90.1256ZM55.2414 113.51L54.3291 113.583L54.2902 113.182L55.2024 113.099L55.2414 113.51ZM54.5016 99.4594L54.7241 99.4428L54.7852 100.088C54.5683 100.105 54.2957 100.422 53.9564 101.028L53.9175 100.583C54.3236 100.088 54.5349 99.7209 54.5016 99.4539V99.4594ZM52.5936 103.971L52.6659 104.833L52.4434 104.85L52.3711 103.987L52.5936 103.971ZM51.5868 105.578L52.0318 105.539C51.9873 106.251 51.7871 106.635 51.4366 106.657L51.2086 106.674C51.4811 106.201 51.6146 105.828 51.5868 105.578V105.578ZM50.8414 107.825L51.0862 107.798L51.1029 108.003L50.6968 108.693L50.2574 108.732L50.2407 108.526C50.6801 108.482 50.8804 108.259 50.8414 107.831V107.825ZM50.1016 109.845L49.9681 110.929L49.7456 110.935L49.6511 109.867L50.1016 109.845ZM42.6979 130.876C42.4031 132.362 42.0916 133.101 41.7634 133.129L41.7467 132.923C41.6633 132.195 41.9859 131.516 42.6979 130.876V130.876ZM41.3407 133.825L41.3574 134.03C41.3852 134.325 41.2461 134.498 40.9569 134.503L40.9402 134.297C40.9124 134.047 41.0514 133.891 41.3407 133.825ZM40.9402 139.927L41.6299 139.86L41.6578 140.099C41.4019 140.144 41.1738 140.238 40.9736 140.372L40.9791 140.366L40.5397 140.405C40.5119 140.182 40.6565 140.01 40.9346 139.932L40.9402 139.927ZM60.4646 133.902C56.6153 135.799 54.3458 137.09 53.6727 137.757C49.5064 139.209 47.4428 140.11 47.4817 140.466C43.7715 141.935 41.324 143.008 40.1614 143.687C39.722 143.681 39.3104 143.564 38.9488 143.37L38.9599 143.375C38.8876 142.619 39.2325 142.013 39.9612 141.523C40.0613 141.512 40.1726 141.506 40.2894 141.506C40.8401 141.506 41.3629 141.623 41.8413 141.829L41.8135 141.818C42.837 141.345 44.0329 140.939 45.2845 140.661L45.4069 140.639L45.3679 140.194L43.994 140.31C44.1664 140.071 45.4848 139.448 47.9712 138.458L48.6554 138.386L48.6721 138.603C47.4984 138.708 46.8531 139.048 46.7085 139.671C46.7363 139.943 46.8921 140.066 47.1813 140.043C48.0713 139.487 48.4996 139.153 48.4885 139.064C50.1628 138.747 54.7908 136.322 62.3781 131.794L62.417 132.2C62.4337 132.401 61.7884 132.957 60.4757 133.908L60.4646 133.902ZM48.8334 137.724C49.9514 137.635 50.9471 137.145 51.6814 136.406C51.9984 136.383 52.1709 136.5 52.1764 136.778C51.6424 136.828 50.5967 137.284 49.0837 138.152L48.8612 138.169L48.8334 137.724ZM67.5957 123.311L61.7829 127.912C57.4608 130.754 55.1357 132.178 54.8131 132.2C47.9211 135.983 43.638 137.957 41.9748 138.097L41.7245 138.124C41.9414 137.346 44.9953 131.077 50.9304 119.284C53.5504 119.062 57.6555 117.843 63.2625 115.63L64.6364 115.513C67.4789 115.268 69.5982 115.819 70.9944 117.143L71.0778 117.994C70.0265 121.025 68.8584 122.794 67.6068 123.311H67.5957ZM56.2259 116.903L57.166 116.831L57.1827 117.037L56.2426 117.109L56.2259 116.903ZM69.3868 114.678L70.071 114.606C70.6996 114.912 71.0333 115.179 71.0556 115.413L71.0723 115.618C70.4715 115.68 69.8986 115.357 69.3868 114.678ZM71.2391 104.082C70.6328 104.811 68.9696 106.045 66.2551 107.792C65.3651 107.864 62.0276 109.166 56.2426 111.691C56.0257 111.591 55.7698 111.536 55.5028 111.536C55.4416 111.536 55.3749 111.541 55.3137 111.547H55.3192L55.2803 111.13C55.208 110.301 55.5751 109.255 56.3928 107.992C56.8434 105.617 57.3329 104.254 57.878 103.926L62.7007 93.0959C62.6395 92.4284 63.663 91.9111 65.7767 91.5551L66.4665 91.4828L66.5166 92.1058C68.5914 91.7943 69.8763 91.6108 70.3714 91.5718C74.2039 91.2381 76.1953 92.0168 76.3566 93.8691L76.7849 93.8413L76.6959 92.7455L77.1688 92.7066C78.2813 93.324 78.8987 94.0805 78.971 94.9594C79.0211 95.5657 78.6984 96.3166 77.9976 97.2122C77.7027 97.2344 77.5359 97.0286 77.5081 96.6059L77.0353 96.6448L76.9296 97.9631C74.9882 100.861 73.5754 102.352 72.7021 102.435C71.9177 103.531 71.4283 104.065 71.228 104.082H71.2391ZM74.1984 111.669C73.7979 111.402 73.4864 111.285 73.2472 111.296L73.1971 110.651L73.6254 110.612L74.5877 111.174C74.6267 111.48 74.4987 111.636 74.1928 111.664L74.1984 111.669ZM77.2522 115.296C77.6749 115.468 77.9253 115.652 77.9809 115.824L77.7751 115.874L77.7917 115.891C77.7417 115.897 77.6972 115.908 77.6527 115.924H77.6582L77.3412 116.169L77.2522 115.296ZM77.5526 117.115L77.5081 116.942L78.0643 116.814L78.1032 116.987L77.5526 117.115ZM78.8764 118.606C79.4382 118.517 79.7219 118.478 80.7733 118.233L80.8122 118.411L78.8097 118.873C78.8319 118.8 78.8542 118.711 78.8764 118.617V118.606ZM80.8289 119.434C79.9834 119.518 80.1669 119.412 78.8264 119.718L78.7874 119.546L80.4618 119.006L81.2628 118.822L81.3351 119.14C80.9846 119.212 81.2461 119.212 80.8233 119.434H80.8289ZM82.6089 119.017C82.4142 119.067 82.2529 118.973 82.1639 118.75L82.6812 118.633C82.9037 118.583 83.0428 118.672 83.0984 118.9L82.6089 119.017ZM87.4371 113.822L87.3982 113.649L88.227 113.449L88.2993 113.766L87.4371 113.822ZM92.5991 145.445C92.6325 145.339 92.6492 145.222 92.6492 145.1C92.6492 145.039 92.6436 144.977 92.6381 144.922V144.927L92.8161 144.883C93.0386 144.833 93.1721 144.911 93.2332 145.122L93.2722 145.294L92.5991 145.445ZM96.2092 115.179L95.8365 115.112C95.4193 115.296 94.9187 115.468 94.4014 115.602L94.3291 115.618L93.9897 115.691C93.7895 115.741 93.6337 115.669 93.5503 115.452L95.97 114.901L96.7654 114.528L97.0269 114.823C96.7154 114.873 96.4372 114.996 96.2092 115.174L96.2148 115.168L96.2092 115.179ZM98.0671 114.584L98.0393 114.411C98.2173 114.35 98.3674 114.25 98.4843 114.117L100.197 113.722L100.236 113.894C99.3297 114.117 98.6066 114.339 98.0726 114.584H98.0671ZM98.3341 111.113C98.1505 111.185 97.9892 111.285 97.8612 111.408C97.8334 111.28 97.5998 111.28 97.1493 111.391C97.0769 111.057 98.3341 110.596 100.96 109.989L101.332 109.917L101.405 110.228C99.5634 110.768 98.5343 111.074 98.3341 111.113ZM102.951 106.129C102.767 108.226 102.022 109.416 100.726 109.717L100.681 109.544L99.5244 109.989L99.0071 110.106C98.907 110.134 98.7958 110.151 98.6789 110.151C98.5454 110.151 98.4119 110.128 98.2896 110.089H98.3007L98.195 109.628C98.1561 109.455 99.8248 107.136 103.24 102.68L103.635 102.747C103.785 103.348 103.552 104.477 102.962 106.123L102.951 106.129ZM111.111 99.1368L110.961 99.1535L110.922 98.8253L111.612 98.753L111.628 98.931C111.434 98.9811 111.261 99.0534 111.1 99.1424L111.111 99.1368V99.1368ZM107.751 132.918C107.468 132.768 107.134 132.679 106.778 132.679C106.75 132.679 106.722 132.679 106.694 132.679H106.7L106.661 132.172C106.644 132 106.75 131.883 106.973 131.816C107.195 131.794 107.329 131.95 107.356 132.289C107.635 131.878 107.946 131.522 108.302 131.205L108.308 131.199L108.664 131.349C108.53 132.35 108.224 132.879 107.751 132.912V132.918ZM143.813 95.1986C143.641 95.2041 143.318 94.6812 142.795 93.6132L142.767 93.2851C143.101 93.2572 143.44 93.7746 143.785 94.8259L143.813 95.1986ZM143.335 91.4216L143.179 91.7609L138.301 89.7195C141.566 89.8252 143.246 90.387 143.335 91.4161V91.4216ZM122.642 109.194L121.952 109.255L121.925 108.927L122.614 108.877L122.642 109.194ZM122.075 98.5138L122.258 98.5082L122.297 99.0144C122.125 99.02 121.919 99.2592 121.669 99.7264L121.641 99.3927C121.936 99.0144 122.086 98.7252 122.08 98.5194L122.075 98.5138ZM120.64 101.946L120.69 102.591L120.506 102.608L120.456 101.963L120.64 101.946ZM119.861 103.175L120.2 103.147C120.161 103.704 120.017 103.993 119.761 104.015L119.577 104.032C119.733 103.793 119.839 103.498 119.861 103.186V103.181V103.175ZM119.305 104.861L119.46 104.844L119.477 105.022L119.182 105.539L118.832 105.567L118.815 105.395C119.171 105.372 119.332 105.189 119.305 104.855V104.861ZM118.748 106.396L118.632 107.236L118.476 107.252L118.404 106.424L118.748 106.396ZM113.114 122.394C112.891 123.506 112.663 124.068 112.407 124.101L112.391 123.951C112.352 123.395 112.591 122.866 113.108 122.394H113.114ZM112.073 124.619L112.09 124.769C112.118 125.008 112.018 125.142 111.779 125.147L111.762 124.975C111.745 124.802 111.851 124.685 112.073 124.619V124.619ZM111.784 129.263L112.313 129.224L112.329 129.397C112.135 129.436 111.957 129.502 111.801 129.603L111.806 129.597L111.473 129.619C111.456 129.441 111.562 129.324 111.784 129.263V129.263ZM126.597 124.685C123.705 126.126 121.969 127.105 121.43 127.6C118.265 128.713 116.696 129.397 116.718 129.675C113.915 130.787 112.068 131.605 111.195 132.106C110.861 132.095 110.544 132.006 110.271 131.855L110.282 131.861C110.232 131.288 110.499 130.832 111.056 130.487C111.139 130.476 111.239 130.476 111.339 130.476C111.745 130.476 112.135 130.559 112.485 130.704L112.463 130.698C112.991 130.437 113.904 130.148 115.194 129.814L115.166 129.486L114.081 129.558C114.215 129.375 115.233 128.896 117.124 128.134L117.642 128.095L117.658 128.245C116.768 128.318 116.262 128.585 116.162 129.063C116.179 129.269 116.312 129.375 116.535 129.352C117.185 128.913 117.508 128.663 117.508 128.59C118.771 128.368 122.286 126.515 128.049 123.067L128.077 123.395C128.093 123.545 127.604 123.957 126.608 124.685H126.597ZM117.764 127.583C118.62 127.517 119.383 127.15 119.95 126.599C120.172 126.577 120.306 126.671 120.323 126.894C119.928 126.933 119.149 127.255 117.97 127.889L117.786 127.906L117.764 127.583ZM132.032 116.631L127.643 120.163C124.355 122.316 122.575 123.395 122.303 123.428C117.074 126.298 113.831 127.789 112.552 127.895L112.368 127.912C112.53 127.316 114.866 122.555 119.377 113.61C121.341 113.438 124.456 112.503 128.722 110.812L129.796 110.723C131.948 110.54 133.556 110.963 134.607 111.975L134.657 112.62C133.851 114.89 132.983 116.225 132.032 116.631V116.631ZM123.41 111.775L124.1 111.708L124.116 111.88L123.41 111.775ZM133.389 110.067L133.917 110.028C134.407 110.267 134.657 110.473 134.674 110.651L134.691 110.801C134.229 110.84 133.795 110.601 133.395 110.067H133.389ZM134.78 102.04C134.318 102.591 133.066 103.537 131.019 104.861C130.335 104.933 127.799 105.901 123.427 107.803C123.254 107.742 123.054 107.703 122.842 107.703C122.804 107.703 122.759 107.703 122.72 107.709H122.726L122.698 107.38C122.648 106.752 122.92 105.956 123.527 104.994C123.866 103.175 124.244 102.163 124.639 101.924L128.327 93.6911C128.288 93.2016 129.067 92.8011 130.647 92.5063L131.175 92.4674L131.214 92.9624C132.772 92.7121 133.745 92.5675 134.145 92.523C137.044 92.2782 138.568 92.8567 138.684 94.2807L139.024 94.2529L138.951 93.4686L139.302 93.4408C140.147 93.9025 140.592 94.4588 140.642 95.1151C140.681 95.5879 140.448 96.1664 139.947 96.8451C139.725 96.8729 139.591 96.7116 139.569 96.3723L139.218 96.3945L139.113 97.3902C137.65 99.6152 136.582 100.767 135.909 100.817C135.314 101.623 134.946 102.035 134.78 102.046V102.04ZM136.32 107.531L136.281 107.024L136.621 106.997L137.361 107.442C137.377 107.664 137.266 107.775 137.044 107.803C136.732 107.603 136.493 107.508 136.315 107.531H136.32ZM74.9271 139.571L74.5766 139.643L74.2874 139.893C74.3374 140.099 74.4709 140.183 74.6934 140.132C74.9159 140.082 75.0105 139.949 74.9215 139.571H74.9271ZM73.6143 136.967L73.6532 137.14C73.8757 137.09 73.9703 136.956 73.9202 136.745L73.8813 136.572C73.6755 136.622 73.5865 136.756 73.6143 136.967ZM82.8981 114.873L83.2986 114.784L83.2263 114.434L82.8258 114.528L82.8981 114.873ZM202.586 124.925C198.581 125.82 198.075 125.664 197.23 125.731L197.258 126.059L197.63 126.037L197.825 126.02L197.775 125.976L198.22 125.803C202.18 125.375 202.648 125.531 202.586 124.919V124.925ZM180.998 127.784L181.026 128.117H181.076L180.998 127.784ZM178.512 119.095L178.156 118.978C177.972 119.373 177.828 119.835 177.739 120.313L177.733 120.352L177.75 120.502C178.034 120.486 178.284 120.013 178.512 119.101V119.095ZM203.404 124.858L203.432 125.192L204.01 125.297L203.983 124.969L203.404 124.858ZM176.109 128.195L175.219 128.09L175.058 128.429L175.074 128.601L180.414 128.156L180.392 127.828L176.109 128.195ZM173.684 116.497L173.667 116.325L173.489 116.342L173.155 116.547L173.339 116.864C173.589 116.837 173.712 116.714 173.678 116.492L173.684 116.497ZM205.941 122.433L206.191 122.41C206.341 122.394 206.397 122.277 206.386 122.06L206.235 121.748C206.224 121.748 206.219 121.748 206.208 121.748C205.457 121.748 204.756 121.943 204.144 122.277L204.166 122.266L204.15 122.104L203.059 122.21C203.031 121.876 202.942 121.704 202.792 121.721L202.23 121.771C201.563 121.821 201.251 121.798 200.923 122.054C200.907 121.926 200.873 121.876 200.806 121.876L200.167 121.926L199.794 122.143C199.777 122.026 199.744 121.971 199.677 121.971L199.455 122.166L199.438 121.993L198.554 121.926L198.348 121.943L198.376 122.277L198.821 122.394L199.243 122.366C199.394 122.46 199.538 122.483 199.733 122.471L200.106 122.288L200.122 122.438C198.047 122.955 198.059 122.861 196.635 123.1C196.479 122.994 196.362 122.944 196.279 122.95L196.251 122.978C196.095 122.961 196 122.861 195.984 122.683L196.724 122.594C196.774 122.594 196.813 122.655 197.23 122.727C197.825 122.438 197.847 122.321 198.164 122.299L198.136 121.965C196.106 122.36 196.918 122.099 194.376 122.321L194.259 122.338L194.232 122.004C197.502 121.609 196.412 121.832 197.53 121.52C197.547 121.637 197.58 121.693 197.647 121.693C197.764 121.576 197.914 121.492 198.086 121.47H198.092L198.314 121.454C199.466 121.359 199.85 121.581 202.119 120.947L202.136 121.098L202.509 120.914L202.848 120.886C202.82 120.558 203.321 120.508 203.493 120.491L203.465 120.135C199.483 120.936 198.437 120.714 197.33 121.025L197.313 120.886C196.273 121.07 196.229 120.992 195.962 121.003C195.828 121.042 195.722 121.12 195.633 121.214C195.617 121.098 195.583 121.042 195.5 121.042L195.433 121.047L192.057 121.604C192.04 121.515 192.007 121.454 191.923 121.47C190.165 121.843 190.638 121.91 188.291 122.116C188.13 122.149 187.985 122.216 187.857 122.305H187.863C187.846 122.216 187.796 122.154 187.679 122.171L186.238 122.288L185.276 122.533C185.27 122.438 185.215 122.382 185.098 122.399C184.558 122.549 184.08 122.638 183.696 122.661H183.668C183.429 122.688 183.785 122.594 183.602 122.51L183.312 122.688C182.89 122.727 183.112 122.661 181.666 122.672C179.124 122.989 179.396 123.028 179.124 123.044L178.167 122.978C178.184 123.067 178.128 123.133 178.017 123.133C176.943 122.983 176.387 122.822 176.376 122.616C176.526 121.593 176.771 121.064 177.116 121.042L177.31 121.025L177.149 121.365L177.333 121.348C177.683 121.164 177.839 120.992 177.822 120.831L177.794 120.48L177.455 120.502L177.427 120.174C177.422 120.13 177.416 120.074 177.416 120.018C177.416 119.835 177.461 119.662 177.533 119.507L177.527 119.512L178.306 118.261L178.334 118.594L178.707 118.567L178.679 118.233L178.462 117.938C178.746 117.699 178.951 117.565 179.129 117.554L179.107 117.382L178.612 117.421L178.573 116.926C179.574 114.84 180.047 113.627 180.019 113.282L180.375 113.432C180.598 113.41 180.709 113.282 180.692 113.049L180.353 113.071L180.336 112.921C180.331 112.887 180.331 112.848 180.331 112.804C180.331 112.592 180.381 112.398 180.476 112.22L180.47 112.225C181.01 111.652 181.254 111.091 181.21 110.495C181.304 110.479 181.36 110.534 181.371 110.646C181.838 110.384 182.189 109.689 182.456 108.532C183.273 107.047 184.436 104.099 185.955 99.6764C188.847 91.8666 188.736 91.0378 189.142 89.1911L188.803 89.2189C188.808 89.2522 188.808 89.2912 188.808 89.3301C188.808 89.5359 188.758 89.7251 188.663 89.8919L188.669 89.8864C188.508 89.8085 188.313 89.764 188.113 89.7584L188.096 89.6082C188.046 88.9407 188.319 88.1342 188.958 87.183L189.114 87.1663L189.409 88.3011L189.743 88.2788C189.726 88.1954 189.826 87.7448 190.01 86.916C189.993 86.7436 189.859 86.6434 189.604 86.6268L189.27 86.8437C189.259 86.6434 189.259 86.4154 189.259 86.1817C189.259 85.7646 189.275 85.3474 189.303 84.9357L189.298 84.9914L189.125 85.0136C188.836 84.7188 188.697 84.4796 188.68 84.2849L186.789 84.4685C186.75 84.246 186.678 84.0513 186.578 83.8733L186.583 83.8844C186.566 83.712 186.989 83.5451 187.857 83.3727L188.241 83.5229L188.597 83.3059C188.613 83.4228 188.669 83.4784 188.814 83.4672L189.17 83.2503C189.186 83.3671 189.242 83.4227 189.376 83.4061L189.548 83.4005L189.52 83.0167C189.259 83.0445 188.558 83.0445 187.445 83L187.095 83.2392L187.078 83.0334C178.228 83.7621 173.2 84.1681 171.998 84.2849C171.843 84.3016 171.22 84.2849 170.129 84.2571C170.146 84.4073 170.012 84.4796 169.745 84.5074L169.362 84.335L168.071 84.6632C167.776 84.691 167.253 84.6799 166.541 84.5964C166.341 84.7577 166.091 84.8579 165.818 84.8801H165.813C165.657 84.8968 167.698 84.7744 169.595 84.6409C169.334 84.8134 169.017 84.9246 168.677 84.9302C168.627 84.9358 168.572 84.9413 168.516 84.9413C168.305 84.9413 168.099 84.8857 167.927 84.7911L167.932 84.7967C167.17 85.047 166.224 85.2751 165.262 85.4364L165.134 85.4531L164.75 85.3029L158.582 86.2541C158.392 86.1651 158.175 86.115 157.942 86.115C157.875 86.115 157.808 86.1206 157.742 86.1261H157.747C157.413 86.1484 156.857 86.2763 156.095 86.4821L153.114 87.7226L153.336 88.0953C153.564 88.0563 153.77 87.9729 153.948 87.8561L153.942 87.8616L155.005 87.9506L154.871 88.9463C153.892 89.3746 153.331 90.0199 153.164 90.8431C151.701 91.4884 150.978 91.9501 150.978 92.2226L150.994 92.3951L151.217 92.3895L151.617 92.1726L152.079 92.7288L152.146 93.4909C152.174 93.7301 149.704 98.9143 144.775 109.044C140.503 118.806 138.256 124.146 138.05 125.108C136.582 125.514 135.742 126.109 135.492 126.905C135.519 127.155 135.953 127.328 136.799 127.394L136.838 127.773L136.454 128.412L136.526 129.174C136.554 129.569 137.633 129.87 139.725 130.081C139.708 129.953 139.775 129.875 139.925 129.859C139.964 130.331 139.836 131.26 139.53 132.634L139.752 132.617C140.62 131.433 141.037 130.615 140.993 130.17L141.176 130.148C141.382 130.131 141.616 130.37 141.872 130.888C141.61 130.993 140.687 133.09 139.107 137.19L139.33 137.563L139.552 137.546C141.494 132.634 142.706 129.92 143.207 129.408C145.749 129.185 150.154 128.735 156.407 128.056L156.807 127.817C156.824 127.951 156.896 128.017 157.046 128.001L157.452 127.962L157.847 127.722C157.864 127.856 157.936 127.923 158.086 127.906L162.82 127.5C164.083 127.389 164.672 127.01 164.617 126.365C164.6 126.193 165.346 125.993 166.836 125.781C167.07 125.781 167.287 125.826 167.493 125.904L167.482 125.898C167.465 125.781 168.221 125.659 169.723 125.525C169.762 124.741 170.018 124.318 170.463 124.279L170.424 123.895C169.885 123.957 169.389 124.073 168.922 124.246L168.967 124.229C168.294 124.224 167.648 124.14 167.025 123.996L167.087 124.007C166.914 124.118 166.708 124.196 166.491 124.235H166.48L163.187 124.346L162.787 124.552C162.77 124.435 162.698 124.379 162.548 124.396L162.364 124.402L161.947 124.619C161.93 124.502 161.591 124.402 160.901 124.313L160.478 124.563L159.661 124.63L159.644 124.413C163.894 123.951 165.985 123.373 165.935 122.683C166.219 122.661 166.358 122.794 166.38 123.067L167.626 122.75L167.587 122.371L157.419 122.644C157.436 122.777 157.369 122.85 157.219 122.866L155.978 122.761C155.678 122.777 155.405 122.878 155.183 123.039L155.188 123.033L154.727 122.861C153.442 122.967 152.502 123.128 151.862 123.323C151.512 123.3 151.1 123.284 150.688 123.284C150.082 123.284 149.481 123.311 148.886 123.373L148.958 123.367L146.672 123.562L145.621 123.445C145.571 122.777 146.872 119.462 149.559 113.527C150.338 111.524 151.05 110.262 151.74 109.795C151.973 109.8 152.196 109.856 152.396 109.956L152.385 109.95L154.009 109.394L154.838 109.528C156.234 109.411 157.858 109.01 159.716 108.326C159.811 108.309 159.928 108.304 160.039 108.304C160.3 108.304 160.551 108.348 160.784 108.426L160.768 108.421L162.008 108.126L165.702 107.814C167.276 107.681 168.972 107.341 170.819 106.774L170.78 106.39C170.096 106.457 169.74 106.34 169.712 106.057C169.673 105.545 169.172 105.339 168.205 105.411L168.166 105.033L169.184 104.738L171.854 104.516L171.815 104.137C171.731 104.137 171.631 104.137 171.531 104.137C171.047 104.137 170.569 104.121 170.096 104.093L170.163 104.099L170.124 103.681L171.153 103.592C171.425 103.565 171.548 103.437 171.525 103.17C170.14 103.209 169.44 103.142 169.428 102.964C159.772 103.437 154.938 103.526 154.905 103.225C154.671 103.275 154.471 103.37 154.293 103.498L154.298 103.492L154.048 103.092C156.607 97.6628 158.114 94.9204 158.548 94.8759C158.515 95.2542 158.398 95.6046 158.209 95.8994L158.214 95.8883L158.231 96.0607L158.637 96.0218C159.655 93.5966 160.512 92.345 161.224 92.2894C164.255 92.0224 160.801 91.8277 167.292 90.8042C167.559 90.9321 167.737 90.9822 167.871 90.9655C170.413 90.4482 173.967 89.9142 178.512 89.3579L178.484 88.9741L176.059 89.1966L176.031 88.8239C176.309 88.8017 176.56 88.7016 176.76 88.5403L176.776 88.7461C176.988 88.696 177.177 88.607 177.338 88.4846H177.333C177.755 88.4401 178.073 88.4846 178.295 88.6014C178.862 88.4346 179.547 88.2899 180.247 88.2009L180.32 88.1954L181.838 88.0452C182.211 87.806 182.378 87.6002 182.367 87.3999L182.35 87.2275C182.228 87.2386 182.089 87.2442 181.944 87.2442C181.616 87.2442 181.293 87.2108 180.982 87.1496L181.015 87.1552C180.998 86.9327 181.11 86.7936 181.366 86.7269L184.186 86.4654L185.482 86.1317C185.498 86.2819 185.554 86.3319 185.66 86.3319C185.871 86.2819 186.06 86.1873 186.222 86.0649H186.216L186.433 86.0927C186.261 86.4487 186.06 86.9605 185.86 87.6336L185.487 87.6614C185.465 87.4111 185.393 87.183 185.276 86.9772L185.281 86.9827L185.098 86.9994C181.671 96.5447 180.136 100.995 176.971 108.32C176.393 110.195 175.903 111.235 175.486 111.463C175.503 111.669 175.636 111.775 175.859 111.753C175.87 111.858 175.87 111.975 175.87 112.097C175.87 112.976 175.619 113.8 175.191 114.5L175.202 114.478C173.739 118.7 172.76 121.003 172.265 121.426L172.593 123.423C172.61 123.628 172.504 123.751 172.276 123.779L171.926 123.801C171.876 123.25 171.676 122.983 171.32 123.022L171.136 123.039C170.691 123.734 170.352 124.546 170.118 125.486L170.469 125.459C170.93 125.153 171.136 124.791 171.097 124.385L171.787 124.324L172.182 124.474C171.865 124.969 171.72 125.364 171.742 125.67L171.926 125.987L171.481 127.038L171.498 127.211C171.52 127.211 171.548 127.211 171.581 127.211C172.032 127.211 172.454 127.35 172.799 127.589L172.794 127.583C173.189 127.528 173.539 127.378 173.839 127.155L173.834 127.161C174.234 127.122 175.708 127.111 178.256 127.111L179.541 126.671C181.099 126.655 181.343 126.699 182.695 126.582L183.246 126.532L183.54 126.332L183.557 126.504C184.964 126.387 185.053 126.476 186.166 126.61L186.183 126.782L185.404 126.855L185.432 127.183C185.665 127.166 185.877 127.077 186.049 126.944C186.249 126.927 186.366 127.033 186.383 127.272C185.988 127.311 185.626 127.394 185.281 127.517L185.315 127.506L184.976 127.389C184.436 127.539 184.553 127.572 184.18 127.606L183.641 127.494C183.657 127.589 183.602 127.656 183.507 127.656C183.524 127.862 183.641 127.967 183.841 127.951L184.391 127.906L187.284 127.656L188.374 127.417C188.391 127.506 188.424 127.567 188.524 127.55L189.053 127.35L190.049 127.277C190.811 127.205 190.788 127.15 192.457 126.894C192.44 126.782 192.485 126.743 192.563 126.732L192.579 126.883C195.288 126.421 195.455 126.393 195.895 126.243L195.934 126.326C196.601 126.171 196.223 126.21 196.406 126.076C196.423 126.193 196.457 126.248 196.523 126.248L196.996 126.209L196.968 125.853L196.006 125.837L195.989 125.815L195.884 125.837H195.75V125.865C195.105 125.998 195.083 125.904 194.665 125.937L192.246 126.07L192.229 125.898L193.581 125.714L194.07 125.675L194.343 125.475L194.359 125.653C196.256 125.492 196.935 125.965 205.713 124.096C206.185 124.051 206.152 123.656 206.452 122.833C206.43 122.833 206.408 122.839 206.386 122.839C206.241 122.839 206.108 122.8 205.991 122.738H205.996C205.268 123.011 204.884 122.889 203.488 123.111C203.371 123.117 203.271 123.017 203.237 122.8L203.221 122.649L204.561 122.694C204.811 122.672 205.301 122.627 206.03 122.221C206.03 122.338 205.763 122.405 205.957 122.394L205.941 122.433ZM140.993 123.467L140.37 123.528C140.342 123.278 140.676 122.327 141.354 120.708L141.772 120.664C141.788 121.042 141.532 121.982 140.993 123.467ZM141.744 120.463L141.727 120.291C141.71 120.085 141.844 119.935 142.133 119.868L142.15 120.041C142.167 120.291 142.033 120.441 141.744 120.463ZM149.987 126.844L150.004 127.005L148.964 127.099L148.958 126.927L149.987 126.844ZM148.741 126.732C148.758 126.938 148.447 127.177 147.757 127.417L146.494 127.328L146.077 127.367L146.038 126.988L148.741 126.732ZM157.08 88.3567L156.462 88.4179L156.446 88.2009C156.429 87.9951 156.551 87.8449 156.818 87.7782L157.041 87.7615L157.463 87.9339C157.48 88.1843 157.352 88.3344 157.08 88.3567ZM166.514 86.5099L166.714 86.5044L166.742 86.8826L166.169 86.9327C166.152 86.7269 166.263 86.5767 166.508 86.5099H166.514ZM164.138 87.3443L163.204 87.2386L163.187 87.0662C164.411 86.9605 164.817 86.827 165.568 86.6212C165.585 86.7714 165.718 86.8159 165.952 86.7936L165.98 87.1719L165.607 87.2164C165.557 87.2219 165.501 87.2275 165.446 87.2275C165.234 87.2275 165.028 87.1719 164.856 87.0773L164.862 87.0829C164.656 87.2219 164.411 87.3165 164.144 87.3443H164.138V87.3443ZM165.312 90.7597L165.295 90.5873L166.814 90.4371L166.831 90.6151L165.312 90.7597ZM166.936 89.4414L166.92 89.2356L167.66 89.1632L167.665 89.3857L166.936 89.4414ZM167.109 86.8604L166.909 86.8659L167.081 86.4599L168.772 86.3041L168.789 86.5099C168.155 86.5878 167.587 86.7102 167.042 86.8771L167.114 86.8604H167.109ZM167.965 90.4927L167.938 90.1144L168.677 90.0477C168.922 90.0199 169.05 90.1423 169.061 90.4037L167.965 90.4927ZM172.432 84.4073L171.481 84.6688L171.309 84.6854C170.864 84.7299 170.285 84.7132 169.601 84.6465C170.825 84.5742 171.998 84.4741 172.427 84.4073H172.432ZM171.425 88.6237L171.442 88.7961L170.129 88.9129L170.113 88.7405L171.425 88.6237ZM173.561 89.6416C173.545 89.4859 173.294 89.3746 172.783 89.3246L171.475 89.6972L170.469 89.7362C170.246 89.5804 170.129 89.4747 170.113 89.3969L171.275 89.4636L173.884 89.0409L175.219 89.0909L175.236 89.3079C174.618 89.3635 174.051 89.4859 173.506 89.6639L173.556 89.6472L173.561 89.6416ZM187 86.1706L187.295 86.1873C187.735 85.7534 188.257 85.3974 188.836 85.1471L188.869 85.136C188.396 87.2108 187.662 88.7627 186.644 89.764L185.905 89.319C186.288 88.4624 186.661 87.4222 186.961 86.3431L187 86.1762V86.1706ZM184.731 90.0644L184.914 90.0477C184.664 90.5205 184.442 90.7764 184.252 90.7875L184.214 90.2813C184.33 90.2813 184.508 90.209 184.725 90.0588L184.731 90.0644ZM183.268 93.5576C183.624 92.1336 183.963 91.3326 184.286 91.1157L184.303 91.2881C184.119 92.6064 183.83 93.3073 183.44 93.3629L183.507 94.1862C183.19 94.6367 183.045 94.9816 183.062 95.2486L182.879 95.2653L182.767 94.1139C182.984 94.0861 183.151 93.8969 183.273 93.5576H183.268ZM182.695 95.4544C182.628 95.9662 182.495 96.4279 182.294 96.8562L182.306 96.8284L182.128 96.8451L182.089 96.3389C182.333 95.7604 182.55 95.4711 182.689 95.4544H182.695ZM172.054 126.349L172.037 126.198L172.376 126.176L172.415 126.682C172.232 126.699 172.098 126.588 172.054 126.349ZM187.256 126.749C187.24 126.632 187.189 126.577 187.078 126.588L186.216 126.671L186.199 126.499H186.272L188.302 126.326L188.319 126.499C187.723 126.521 187.367 126.616 187.251 126.749H187.256ZM186.244 126.326C186.327 126.365 186.283 126.399 186.244 126.432C186.205 126.415 186.155 126.382 186.244 126.326ZM186.355 123.951L185.22 124.04L185.204 123.868L186.227 123.779L187.123 123.556C187.139 123.662 187.195 123.695 187.306 123.684C188.374 123.501 188.269 123.445 188.791 123.412C188.964 123.395 189.064 123.501 189.081 123.706L186.355 123.951ZM190.321 123.601C189.693 123.54 189.654 123.484 189.203 123.528L189.186 123.378L190.204 123.289L190.221 123.439C190.115 123.445 190.494 123.478 190.327 123.601H190.321ZM190.393 123.423L190.388 123.272L190.939 123.222L190.955 123.373L190.393 123.423ZM191.628 123.311L191.612 123.161C191.762 123.122 191.895 123.05 192.007 122.95C192.29 122.928 192.429 123.111 192.457 123.323L191.628 123.311ZM193.197 123.122L193.18 122.944L193.848 122.894L193.864 123.067L193.197 123.122ZM194.131 123.039C194.115 122.839 194.198 122.722 194.371 122.7L194.593 122.989C194.576 122.894 194.621 122.839 194.699 122.827L194.871 123.145L194.131 123.039ZM184.175 127.339L184.147 127.005L184.041 127.022L184.175 127.339ZM207.348 121.331C207.454 121.27 207.504 121.203 207.253 121.159C207.137 121.292 207.387 121.337 207.125 121.342L207.142 121.459L207.292 121.353L207.142 121.47V121.487L206.858 121.843L207.415 121.643H207.481L207.348 121.331ZM208.316 122.088L208.21 122.104L208.238 122.433L209.017 122.366C209 122.16 208.483 122.093 208.31 122.093L208.316 122.088ZM207.114 121.509L207.131 121.492V121.476L207.114 121.509Z" fill="#F9DC3E"/>
</svg>
