<svg xmlns="http://www.w3.org/2000/svg" viewBox="0 0 3030.17 1839.09">
  <g id="Layer_2" data-name="Layer 2">
    <g id="Layer_1-2" data-name="Layer 1">
      <rect width="3030.17" height="1839.09" style="fill: #fffbeb"/>
      <g>
        <g>
          <polygon points="1110.19 906.83 967.53 903.6 967.53 751.64 1110.19 731.43 1110.19 906.83" style="fill: #83e7fd"/>
          <path d="M1221.48,909.35l-92.51-2.1V728.77l92.51-13.1c58.18-8.24,109.73,31.85,109.73,90.31h0C1331.21,864.44,1279.66,910.66,1221.48,909.35Z" style="fill: #83e7fd"/>
          <polygon points="1110.19 1099.67 967.53 1070.68 967.53 918.72 1110.19 924.27 1110.19 1099.67" style="fill: #83e7fd"/>
          <path d="M1221.48,1122.28,1129,1103.49V925l92.51,3.61c58.18,2.27,109.73,51.66,109.73,110.12h0C1331.21,1097.19,1279.66,1134.11,1221.48,1122.28Z" style="fill: #83e7fd"/>
        </g>
        <g>
          <path d="M1448,1044.11V804.66h68.12q31.06,0,49.26,15.2t18.2,39.57q0,20.37-11,35.4t-30.39,21.37v.67q24.21,2.85,38.74,18.28t14.52,40.16q0,30.74-22,49.76t-55.6,19Zm28-214.07v77.31h28.72q23,0,36.23-11.1t13.19-31.31q0-34.89-45.92-34.9Zm0,102.53v86.16h38.07q24.7,0,38.32-11.69T1566.06,975q0-42.4-57.78-42.41Z" style="fill: #83e7fd"/>
          <path d="M1654.39,829.71a17.36,17.36,0,0,1-12.53-5,16.91,16.91,0,0,1-5.17-12.69,17.54,17.54,0,0,1,17.7-17.87,17.67,17.67,0,0,1,12.77,5.1,17.83,17.83,0,0,1,0,25.29A17.5,17.5,0,0,1,1654.39,829.71Zm13.35,214.4h-27.38v-171h27.38Z" style="fill: #83e7fd"/>
          <path d="M1865.11,1044.11h-27.39V946.59q0-54.44-39.74-54.43-20.54,0-34,15.44t-13.44,39v97.52h-27.38v-171h27.38v28.39h.67q19.37-32.38,56.1-32.39,28.07,0,42.92,18.11t14.86,52.35Z" style="fill: #83e7fd"/>
          <path d="M2062.64,1044.11h-27.38v-29.06h-.67q-19,33.06-58.78,33.06-32.22,0-51.51-23T1905,962.62q0-42.4,21.37-68t56.94-25.54q35.22,0,51.26,27.71h.67V791h27.38Zm-27.38-77.31V941.58q0-20.7-13.7-35.06t-34.73-14.36q-25,0-39.4,18.37t-14.36,50.76q0,29.55,13.77,46.67t37,17.11q22.88,0,37.15-16.53T2035.26,966.8Z" style="fill: #83e7fd"/>
        </g>
      </g>
    </g>
  </g>
</svg>
