<svg width="1280" height="720" viewBox="0 0 1280 720" fill="none" xmlns="http://www.w3.org/2000/svg">
<rect width="1280" height="720" fill="#FFFBEB"/>
<line x1="1188" y1="176" x2="1209" y2="176" stroke="black" stroke-width="2"/>
<line x1="323" y1="176" x2="371" y2="176" stroke="black" stroke-width="2"/>
<line x1="1108" y1="493" x2="1108" y2="524" stroke="black" stroke-width="2"/>
<line x1="1209" y1="61" x2="1209" y2="177" stroke="black" stroke-width="2"/>
<line x1="323" y1="61" x2="323" y2="306" stroke="black" stroke-width="2"/>
<path d="M364.707 414.707C365.098 414.317 365.098 413.683 364.707 413.293L358.343 406.929C357.953 406.538 357.319 406.538 356.929 406.929C356.538 407.319 356.538 407.953 356.929 408.343L362.586 414L356.929 419.657C356.538 420.047 356.538 420.681 356.929 421.071C357.319 421.462 357.953 421.462 358.343 421.071L364.707 414.707ZM280 415H364V413H280V415Z" fill="black"/>
<path d="M689.707 414.707C690.098 414.317 690.098 413.683 689.707 413.293L683.343 406.929C682.953 406.538 682.319 406.538 681.929 406.929C681.538 407.319 681.538 407.953 681.929 408.343L687.586 414L681.929 419.657C681.538 420.047 681.538 420.681 681.929 421.071C682.319 421.462 682.953 421.462 683.343 421.071L689.707 414.707ZM586 415H689V413H586V415Z" fill="black"/>
<path d="M689.707 632.707C690.098 632.317 690.098 631.683 689.707 631.293L683.343 624.929C682.953 624.538 682.319 624.538 681.929 624.929C681.538 625.319 681.538 625.953 681.929 626.343L687.586 632L681.929 637.657C681.538 638.047 681.538 638.681 681.929 639.071C682.319 639.462 682.953 639.462 683.343 639.071L689.707 632.707ZM640 633L689 633L689 631L640 631L640 633Z" fill="black"/>
<path d="M991.707 632.707C992.098 632.317 992.098 631.683 991.707 631.293L985.343 624.929C984.953 624.538 984.319 624.538 983.929 624.929C983.538 625.319 983.538 625.953 983.929 626.343L989.586 632L983.929 637.657C983.538 638.047 983.538 638.681 983.929 639.071C984.319 639.462 984.953 639.462 985.343 639.071L991.707 632.707ZM916 633L991 633L991 631L916 631L916 633Z" fill="black"/>
<path d="M1009.71 414.707C1010.1 414.317 1010.1 413.683 1009.71 413.293L1003.34 406.929C1002.95 406.538 1002.32 406.538 1001.93 406.929C1001.54 407.319 1001.54 407.953 1001.93 408.343L1007.59 414L1001.93 419.657C1001.54 420.047 1001.54 420.681 1001.93 421.071C1002.32 421.462 1002.95 421.462 1003.34 421.071L1009.71 414.707ZM919 415H1009V413H919V415Z" fill="black"/>
<path d="M1107.71 268.293C1107.32 267.902 1106.68 267.902 1106.29 268.293L1099.93 274.657C1099.54 275.047 1099.54 275.681 1099.93 276.071C1100.32 276.462 1100.95 276.462 1101.34 276.071L1107 270.414L1112.66 276.071C1113.05 276.462 1113.68 276.462 1114.07 276.071C1114.46 275.681 1114.46 275.047 1114.07 274.657L1107.71 268.293ZM1108 330L1108 269L1106 269L1106 330L1108 330Z" fill="black"/>
<path d="M478.293 367.707C478.683 368.098 479.317 368.098 479.707 367.707L486.071 361.343C486.462 360.953 486.462 360.319 486.071 359.929C485.681 359.538 485.047 359.538 484.657 359.929L479 365.586L473.343 359.929C472.953 359.538 472.319 359.538 471.929 359.929C471.538 360.319 471.538 360.953 471.929 361.343L478.293 367.707ZM478 306L478 367L480 367L480 306L478 306Z" fill="black"/>
<path d="M808.707 462.293C808.317 461.902 807.683 461.902 807.293 462.293L800.929 468.657C800.538 469.047 800.538 469.681 800.929 470.071C801.319 470.462 801.953 470.462 802.343 470.071L808 464.414L813.657 470.071C814.047 470.462 814.681 470.462 815.071 470.071C815.462 469.681 815.462 469.047 815.071 468.657L808.707 462.293ZM809 524L809 463L807 463L807 524L809 524Z" fill="black"/>
<path d="M479.707 220.293C479.317 219.902 478.683 219.902 478.293 220.293L471.929 226.657C471.538 227.047 471.538 227.681 471.929 228.071C472.319 228.462 472.953 228.462 473.343 228.071L479 222.414L484.657 228.071C485.047 228.462 485.681 228.462 486.071 228.071C486.462 227.681 486.462 227.047 486.071 226.657L479.707 220.293ZM480 246L480 221L478 221L478 246L480 246Z" fill="black"/>
<path d="M926.293 175.293C925.902 175.683 925.902 176.317 926.293 176.707L932.657 183.071C933.047 183.462 933.681 183.462 934.071 183.071C934.462 182.681 934.462 182.047 934.071 181.657L928.414 176L934.071 170.343C934.462 169.953 934.462 169.319 934.071 168.929C933.681 168.538 933.047 168.538 932.657 168.929L926.293 175.293ZM1025 175H927V177H1025V175Z" fill="black"/>
<path d="M596.293 175.293C595.902 175.683 595.902 176.317 596.293 176.707L602.657 183.071C603.047 183.462 603.681 183.462 604.071 183.071C604.462 182.681 604.462 182.047 604.071 181.657L598.414 176L604.071 170.343C604.462 169.953 604.462 169.319 604.071 168.929C603.681 168.538 603.047 168.538 602.657 168.929L596.293 175.293ZM701 175H597V177H701V175Z" fill="black"/>
<rect x="999" y="594" width="215.492" height="71.8307" rx="10" fill="#FCD577"/>
<path d="M1061.91 638.173V635.204C1062.45 635.656 1063.03 635.996 1063.66 636.225C1064.3 636.448 1064.93 636.559 1065.58 636.559C1065.95 636.559 1066.28 636.525 1066.56 636.457C1066.84 636.389 1067.08 636.296 1067.26 636.178C1067.46 636.055 1067.6 635.913 1067.69 635.752C1067.78 635.585 1067.83 635.405 1067.83 635.214C1067.83 634.954 1067.76 634.722 1067.61 634.518C1067.46 634.314 1067.25 634.125 1067 633.952C1066.74 633.779 1066.44 633.612 1066.09 633.451C1065.73 633.29 1065.35 633.126 1064.94 632.959C1063.91 632.526 1063.13 631.997 1062.62 631.373C1062.11 630.748 1061.86 629.994 1061.86 629.109C1061.86 628.416 1061.99 627.823 1062.27 627.328C1062.55 626.827 1062.93 626.416 1063.4 626.094C1063.89 625.772 1064.44 625.537 1065.07 625.389C1065.71 625.234 1066.37 625.157 1067.08 625.157C1067.77 625.157 1068.38 625.2 1068.92 625.287C1069.45 625.367 1069.95 625.494 1070.4 625.667V628.441C1070.18 628.287 1069.93 628.15 1069.67 628.033C1069.41 627.915 1069.14 627.82 1068.86 627.745C1068.58 627.665 1068.3 627.606 1068.02 627.569C1067.75 627.532 1067.49 627.513 1067.25 627.513C1066.91 627.513 1066.6 627.547 1066.32 627.615C1066.04 627.677 1065.8 627.767 1065.61 627.885C1065.42 628.002 1065.27 628.144 1065.17 628.311C1065.06 628.472 1065.01 628.655 1065.01 628.859C1065.01 629.081 1065.07 629.282 1065.19 629.462C1065.3 629.635 1065.47 629.802 1065.69 629.963C1065.9 630.117 1066.17 630.272 1066.48 630.427C1066.78 630.575 1067.13 630.73 1067.52 630.89C1068.06 631.113 1068.53 631.351 1068.95 631.605C1069.38 631.852 1069.74 632.134 1070.05 632.449C1070.35 632.764 1070.58 633.126 1070.74 633.534C1070.9 633.936 1070.98 634.406 1070.98 634.945C1070.98 635.687 1070.84 636.311 1070.56 636.819C1070.28 637.32 1069.9 637.728 1069.42 638.043C1068.93 638.352 1068.37 638.575 1067.73 638.711C1067.09 638.847 1066.42 638.915 1065.71 638.915C1064.98 638.915 1064.28 638.853 1063.62 638.73C1062.96 638.606 1062.39 638.42 1061.91 638.173ZM1082.01 638.683H1079.08V633.284C1079.08 631.892 1078.58 631.197 1077.56 631.197C1077.04 631.197 1076.62 631.391 1076.3 631.781C1075.98 632.171 1075.82 632.665 1075.82 633.265V638.683H1072.89V624.619H1075.82V630.594H1075.85C1076.57 629.499 1077.55 628.951 1078.78 628.951C1080.93 628.951 1082.01 630.25 1082.01 632.848V638.683ZM1088.86 638.915C1087.28 638.915 1086.03 638.473 1085.12 637.589C1084.22 636.698 1083.77 635.492 1083.77 633.97C1083.77 632.399 1084.24 631.172 1085.18 630.287C1086.12 629.397 1087.39 628.951 1088.99 628.951C1090.57 628.951 1091.81 629.397 1092.7 630.287C1093.6 631.172 1094.05 632.344 1094.05 633.803C1094.05 635.381 1093.58 636.627 1092.66 637.542C1091.73 638.458 1090.47 638.915 1088.86 638.915ZM1088.94 631.197C1088.24 631.197 1087.71 631.435 1087.32 631.911C1086.94 632.387 1086.75 633.061 1086.75 633.933C1086.75 635.758 1087.48 636.67 1088.95 636.67C1090.36 636.67 1091.06 635.733 1091.06 633.859C1091.06 632.084 1090.35 631.197 1088.94 631.197ZM1109.71 629.183L1106.97 638.683H1103.89L1102.49 633.117C1102.4 632.746 1102.34 632.341 1102.33 631.902H1102.28C1102.23 632.384 1102.17 632.777 1102.09 633.08L1100.59 638.683H1097.55L1094.86 629.183H1097.85L1099.16 635.381C1099.22 635.671 1099.27 636.024 1099.3 636.438H1099.35C1099.39 636.005 1099.44 635.64 1099.52 635.344L1101.15 629.183H1103.95L1105.41 635.381C1105.45 635.535 1105.49 635.894 1105.54 636.457H1105.61C1105.64 636.098 1105.69 635.739 1105.76 635.381L1106.99 629.183H1109.71ZM1128.16 638.683H1125.15V633.265H1119.64V638.683H1116.65V625.38H1119.64V630.686H1125.15V625.38H1128.16V638.683ZM1132.41 627.68C1131.91 627.68 1131.51 627.535 1131.19 627.244C1130.88 626.948 1130.72 626.586 1130.72 626.159C1130.72 625.72 1130.88 625.361 1131.19 625.083C1131.51 624.804 1131.91 624.665 1132.41 624.665C1132.91 624.665 1133.32 624.804 1133.62 625.083C1133.94 625.361 1134.1 625.72 1134.1 626.159C1134.1 626.604 1133.94 626.969 1133.62 627.254C1133.32 627.538 1132.91 627.68 1132.41 627.68ZM1133.86 638.683H1130.93V629.183H1133.86V638.683ZM1145.5 638.683H1142.58V633.405C1142.58 631.933 1142.05 631.197 1141 631.197C1140.49 631.197 1140.08 631.391 1139.75 631.781C1139.42 632.171 1139.26 632.665 1139.26 633.265V638.683H1136.32V629.183H1139.26V630.686H1139.29C1139.99 629.53 1141.01 628.951 1142.35 628.951C1144.45 628.951 1145.5 630.256 1145.5 632.866V638.683ZM1153.57 638.572C1153.14 638.801 1152.49 638.915 1151.61 638.915C1149.55 638.915 1148.52 637.842 1148.52 635.696V631.345H1146.98V629.183H1148.52V627.133L1151.44 626.298V629.183H1153.57V631.345H1151.44V635.186C1151.44 636.175 1151.83 636.67 1152.62 636.67C1152.92 636.67 1153.24 636.58 1153.57 636.401V638.572Z" fill="#1E1C1C"/>
<rect x="701" y="594" width="215" height="72" rx="36" fill="#83E7FD"/>
<path d="M753.216 639H750.21V633.582H744.7V639H741.703V625.696H744.7V631.003H750.21V625.696H753.216V639ZM757.465 627.997C756.971 627.997 756.565 627.852 756.25 627.561C755.935 627.264 755.777 626.902 755.777 626.476C755.777 626.036 755.935 625.678 756.25 625.399C756.565 625.121 756.971 624.982 757.465 624.982C757.966 624.982 758.371 625.121 758.681 625.399C758.996 625.678 759.154 626.036 759.154 626.476C759.154 626.921 758.996 627.286 758.681 627.57C758.371 627.855 757.966 627.997 757.465 627.997ZM758.913 639H755.981V629.5H758.913V639ZM767.123 638.889C766.69 639.118 766.038 639.232 765.166 639.232C763.1 639.232 762.067 638.159 762.067 636.013V631.662H760.527V629.5H762.067V627.45L764.989 626.615V629.5H767.123V631.662H764.989V635.502C764.989 636.492 765.382 636.987 766.167 636.987C766.477 636.987 766.795 636.897 767.123 636.718V638.889ZM777.263 625.381L776.243 629.5H773.691L775.445 625.381H777.263ZM779.221 638.49V635.521C779.759 635.972 780.343 636.313 780.974 636.542C781.605 636.764 782.242 636.875 782.885 636.875C783.263 636.875 783.59 636.841 783.869 636.773C784.153 636.705 784.388 636.613 784.574 636.495C784.765 636.371 784.908 636.229 785 636.068C785.093 635.901 785.14 635.722 785.14 635.53C785.14 635.271 785.065 635.039 784.917 634.834C784.769 634.63 784.564 634.442 784.305 634.269C784.051 634.095 783.748 633.928 783.396 633.768C783.043 633.607 782.663 633.443 782.254 633.276C781.215 632.843 780.439 632.314 779.926 631.689C779.419 631.065 779.165 630.31 779.165 629.426C779.165 628.733 779.304 628.139 779.583 627.645C779.861 627.144 780.238 626.732 780.714 626.411C781.197 626.089 781.753 625.854 782.384 625.706C783.015 625.551 783.683 625.474 784.388 625.474C785.081 625.474 785.693 625.517 786.225 625.604C786.763 625.684 787.258 625.811 787.709 625.984V628.758C787.487 628.603 787.243 628.467 786.977 628.35C786.717 628.232 786.448 628.136 786.169 628.062C785.891 627.982 785.613 627.923 785.334 627.886C785.062 627.849 784.803 627.83 784.555 627.83C784.215 627.83 783.906 627.864 783.627 627.932C783.349 627.994 783.114 628.084 782.922 628.201C782.731 628.319 782.582 628.461 782.477 628.628C782.372 628.789 782.319 628.971 782.319 629.175C782.319 629.398 782.378 629.599 782.496 629.778C782.613 629.951 782.78 630.118 782.997 630.279C783.213 630.434 783.476 630.589 783.785 630.743C784.094 630.892 784.444 631.046 784.833 631.207C785.365 631.43 785.842 631.668 786.262 631.921C786.689 632.169 787.054 632.45 787.357 632.766C787.66 633.081 787.892 633.443 788.053 633.851C788.214 634.253 788.294 634.723 788.294 635.261C788.294 636.003 788.152 636.628 787.867 637.135C787.589 637.636 787.208 638.044 786.726 638.36C786.244 638.669 785.681 638.892 785.038 639.028C784.401 639.164 783.726 639.232 783.015 639.232C782.285 639.232 781.59 639.17 780.928 639.046C780.272 638.923 779.703 638.737 779.221 638.49ZM799.315 639H796.393V633.601C796.393 632.209 795.886 631.513 794.872 631.513C794.352 631.513 793.931 631.708 793.61 632.098C793.288 632.487 793.127 632.982 793.127 633.582V639H790.196V624.936H793.127V630.91H793.165C793.882 629.815 794.856 629.268 796.087 629.268C798.239 629.268 799.315 630.567 799.315 633.165V639ZM806.171 639.232C804.588 639.232 803.342 638.79 802.433 637.905C801.53 637.015 801.078 635.809 801.078 634.287C801.078 632.716 801.548 631.488 802.488 630.604C803.428 629.713 804.699 629.268 806.301 629.268C807.878 629.268 809.115 629.713 810.012 630.604C810.909 631.488 811.357 632.66 811.357 634.12C811.357 635.697 810.894 636.944 809.966 637.859C809.044 638.774 807.779 639.232 806.171 639.232ZM806.246 631.513C805.553 631.513 805.015 631.751 804.631 632.228C804.248 632.704 804.056 633.378 804.056 634.25C804.056 636.075 804.792 636.987 806.264 636.987C807.668 636.987 808.37 636.05 808.37 634.176C808.37 632.401 807.662 631.513 806.246 631.513ZM827.018 629.5L824.281 639H821.201L819.8 633.434C819.707 633.062 819.654 632.657 819.642 632.218H819.586C819.543 632.701 819.481 633.093 819.401 633.396L817.898 639H814.855L812.174 629.5H815.161L816.469 635.697C816.531 635.988 816.577 636.34 816.608 636.755H816.664C816.695 636.322 816.751 635.957 816.831 635.66L818.464 629.5H821.256L822.722 635.697C822.759 635.852 822.803 636.211 822.852 636.773H822.917C822.948 636.415 822.997 636.056 823.065 635.697L824.299 629.5H827.018ZM845.47 639H842.464V633.582H836.954V639H833.957V625.696H836.954V631.003H842.464V625.696H845.47V639ZM849.719 627.997C849.224 627.997 848.819 627.852 848.504 627.561C848.188 627.264 848.031 626.902 848.031 626.476C848.031 626.036 848.188 625.678 848.504 625.399C848.819 625.121 849.224 624.982 849.719 624.982C850.22 624.982 850.625 625.121 850.935 625.399C851.25 625.678 851.408 626.036 851.408 626.476C851.408 626.921 851.25 627.286 850.935 627.57C850.625 627.855 850.22 627.997 849.719 627.997ZM851.167 639H848.235V629.5H851.167V639ZM862.81 639H859.887V633.721C859.887 632.249 859.361 631.513 858.31 631.513C857.803 631.513 857.385 631.708 857.058 632.098C856.73 632.487 856.566 632.982 856.566 633.582V639H853.634V629.5H856.566V631.003H856.603C857.302 629.846 858.319 629.268 859.655 629.268C861.758 629.268 862.81 630.573 862.81 633.183V639ZM870.881 638.889C870.448 639.118 869.795 639.232 868.923 639.232C866.858 639.232 865.825 638.159 865.825 636.013V631.662H864.285V629.5H865.825V627.45L868.747 626.615V629.5H870.881V631.662H868.747V635.502C868.747 636.492 869.14 636.987 869.925 636.987C870.235 636.987 870.553 636.897 870.881 636.718V638.889ZM875.946 625.381L874.156 629.5H872.356L873.414 625.381H875.946Z" fill="#1E1C1C"/>
<circle cx="916" cy="632" r="4.5" fill="#FFFBEB" stroke="black"/>
<rect x="65" y="376.483" width="215.492" height="71.8307" rx="35.9154" fill="#83E7FD"/>
<path d="M113.219 421.166H110.213V415.748H104.702V421.166H101.706V407.862H104.702V413.169H110.213V407.862H113.219V421.166ZM117.468 410.163C116.973 410.163 116.568 410.018 116.252 409.727C115.937 409.43 115.779 409.068 115.779 408.642C115.779 408.203 115.937 407.844 116.252 407.566C116.568 407.287 116.973 407.148 117.468 407.148C117.969 407.148 118.374 407.287 118.683 407.566C118.999 407.844 119.156 408.203 119.156 408.642C119.156 409.087 118.999 409.452 118.683 409.736C118.374 410.021 117.969 410.163 117.468 410.163ZM118.915 421.166H115.983V411.666H118.915V421.166ZM127.125 421.055C126.693 421.284 126.04 421.398 125.168 421.398C123.102 421.398 122.069 420.325 122.069 418.179V413.828H120.529V411.666H122.069V409.616L124.992 408.781V411.666H127.125V413.828H124.992V417.669C124.992 418.658 125.384 419.153 126.17 419.153C126.479 419.153 126.798 419.063 127.125 418.884V421.055ZM137.266 407.547L136.245 411.666H133.694L135.447 407.547H137.266ZM139.223 420.656V417.687C139.761 418.139 140.346 418.479 140.977 418.708C141.607 418.93 142.244 419.042 142.888 419.042C143.265 419.042 143.593 419.008 143.871 418.94C144.156 418.872 144.391 418.779 144.576 418.661C144.768 418.538 144.91 418.395 145.003 418.234C145.096 418.068 145.142 417.888 145.142 417.696C145.142 417.437 145.068 417.205 144.919 417.001C144.771 416.797 144.567 416.608 144.307 416.435C144.054 416.262 143.75 416.095 143.398 415.934C143.045 415.773 142.665 415.609 142.257 415.442C141.218 415.009 140.442 414.48 139.928 413.856C139.421 413.231 139.167 412.476 139.167 411.592C139.167 410.899 139.307 410.305 139.585 409.811C139.863 409.31 140.241 408.898 140.717 408.577C141.199 408.255 141.756 408.02 142.387 407.872C143.018 407.717 143.686 407.64 144.391 407.64C145.083 407.64 145.696 407.683 146.228 407.77C146.766 407.85 147.26 407.977 147.712 408.15V410.924C147.489 410.769 147.245 410.633 146.979 410.516C146.719 410.398 146.45 410.302 146.172 410.228C145.894 410.148 145.615 410.089 145.337 410.052C145.065 410.015 144.805 409.996 144.558 409.996C144.217 409.996 143.908 410.03 143.63 410.098C143.352 410.16 143.117 410.25 142.925 410.367C142.733 410.485 142.585 410.627 142.479 410.794C142.374 410.955 142.322 411.137 142.322 411.341C142.322 411.564 142.381 411.765 142.498 411.944C142.616 412.118 142.783 412.285 142.999 412.445C143.215 412.6 143.478 412.755 143.788 412.909C144.097 413.058 144.446 413.212 144.836 413.373C145.368 413.596 145.844 413.834 146.265 414.088C146.691 414.335 147.056 414.616 147.359 414.932C147.662 415.247 147.894 415.609 148.055 416.017C148.216 416.419 148.296 416.889 148.296 417.427C148.296 418.17 148.154 418.794 147.87 419.301C147.591 419.802 147.211 420.211 146.729 420.526C146.246 420.835 145.683 421.058 145.04 421.194C144.403 421.33 143.729 421.398 143.018 421.398C142.288 421.398 141.592 421.336 140.93 421.213C140.275 421.089 139.706 420.903 139.223 420.656ZM155.458 421.055C155.026 421.284 154.373 421.398 153.501 421.398C151.435 421.398 150.402 420.325 150.402 418.179V413.828H148.862V411.666H150.402V409.616L153.325 408.781V411.666H155.458V413.828H153.325V417.669C153.325 418.658 153.717 419.153 154.503 419.153C154.812 419.153 155.131 419.063 155.458 418.884V421.055ZM165.023 421.166H162.25V419.802H162.212C161.575 420.866 160.632 421.398 159.383 421.398C158.461 421.398 157.735 421.138 157.203 420.619C156.677 420.093 156.414 419.394 156.414 418.522C156.414 416.679 157.506 415.615 159.689 415.331L162.268 414.987C162.268 413.948 161.705 413.429 160.58 413.429C159.448 413.429 158.372 413.766 157.351 414.44V412.232C157.759 412.022 158.316 411.836 159.021 411.675C159.732 411.515 160.379 411.434 160.96 411.434C163.669 411.434 165.023 412.786 165.023 415.488V421.166ZM162.268 417.307V416.667L160.542 416.889C159.59 417.013 159.114 417.443 159.114 418.179C159.114 418.513 159.228 418.788 159.457 419.005C159.692 419.215 160.007 419.32 160.403 419.32C160.954 419.32 161.402 419.131 161.749 418.754C162.095 418.371 162.268 417.888 162.268 417.307ZM173.54 414.31C173.188 414.118 172.776 414.023 172.306 414.023C171.669 414.023 171.171 414.258 170.812 414.728C170.454 415.192 170.274 415.825 170.274 416.63V421.166H167.343V411.666H170.274V413.429H170.312C170.775 412.142 171.61 411.499 172.816 411.499C173.126 411.499 173.367 411.536 173.54 411.61V414.31ZM181.212 421.055C180.779 421.284 180.127 421.398 179.255 421.398C177.189 421.398 176.156 420.325 176.156 418.179V413.828H174.616V411.666H176.156V409.616L179.079 408.781V411.666H181.212V413.828H179.079V417.669C179.079 418.658 179.471 419.153 180.257 419.153C180.566 419.153 180.885 419.063 181.212 418.884V421.055ZM199.331 420.276C198.032 421.024 196.418 421.398 194.488 421.398C192.348 421.398 190.66 420.807 189.423 419.626C188.192 418.439 187.577 416.806 187.577 414.728C187.577 412.637 188.251 410.933 189.599 409.616C190.947 408.298 192.741 407.64 194.98 407.64C196.39 407.64 197.633 407.835 198.709 408.224V411.035C197.683 410.442 196.427 410.145 194.943 410.145C193.7 410.145 192.685 410.55 191.9 411.36C191.121 412.164 190.731 413.24 190.731 414.589C190.731 415.955 191.08 417.013 191.779 417.761C192.484 418.51 193.434 418.884 194.627 418.884C195.345 418.884 195.914 418.782 196.334 418.578V415.98H193.672V413.587H199.331V420.276ZM209.536 421.166H206.762V419.802H206.725C206.088 420.866 205.145 421.398 203.896 421.398C202.974 421.398 202.247 421.138 201.715 420.619C201.19 420.093 200.927 419.394 200.927 418.522C200.927 416.679 202.018 415.615 204.202 415.331L206.781 414.987C206.781 413.948 206.218 413.429 205.092 413.429C203.96 413.429 202.884 413.766 201.864 414.44V412.232C202.272 412.022 202.829 411.836 203.534 411.675C204.245 411.515 204.891 411.434 205.473 411.434C208.182 411.434 209.536 412.786 209.536 415.488V421.166ZM206.781 417.307V416.667L205.055 416.889C204.103 417.013 203.626 417.443 203.626 418.179C203.626 418.513 203.741 418.788 203.97 419.005C204.205 419.215 204.52 419.32 204.916 419.32C205.466 419.32 205.915 419.131 206.261 418.754C206.608 418.371 206.781 417.888 206.781 417.307ZM226.94 421.166H224.018V415.748C224.018 414.369 223.511 413.679 222.497 413.679C222.014 413.679 221.621 413.887 221.318 414.301C221.015 414.715 220.864 415.232 220.864 415.85V421.166H217.932V415.693C217.932 414.35 217.434 413.679 216.438 413.679C215.938 413.679 215.535 413.877 215.232 414.273C214.936 414.669 214.787 415.207 214.787 415.887V421.166H211.855V411.666H214.787V413.151H214.824C215.127 412.643 215.551 412.232 216.095 411.917C216.646 411.595 217.246 411.434 217.895 411.434C219.237 411.434 220.156 412.025 220.65 413.206C221.374 412.025 222.438 411.434 223.842 411.434C225.908 411.434 226.94 412.708 226.94 415.256V421.166ZM237.795 417.251H231.598C231.697 418.63 232.566 419.32 234.205 419.32C235.25 419.32 236.168 419.073 236.96 418.578V420.693C236.082 421.163 234.941 421.398 233.537 421.398C232.003 421.398 230.812 420.974 229.965 420.127C229.118 419.274 228.694 418.086 228.694 416.565C228.694 414.987 229.152 413.738 230.067 412.817C230.982 411.895 232.108 411.434 233.444 411.434C234.829 411.434 235.899 411.845 236.654 412.668C237.415 413.491 237.795 414.607 237.795 416.017V417.251ZM235.077 415.451C235.077 414.091 234.526 413.41 233.425 413.41C232.955 413.41 232.547 413.605 232.201 413.995C231.861 414.384 231.653 414.87 231.579 415.451H235.077ZM242.944 407.547L241.153 411.666H239.354L240.411 407.547H242.944Z" fill="#1E1C1C"/>
<rect x="371" y="376.483" width="215.492" height="71.8307" rx="10" fill="#FCD577"/>
<path d="M429.894 421.166H426.87L421.387 412.807C421.065 412.319 420.842 411.951 420.719 411.703H420.682C420.731 412.173 420.756 412.891 420.756 413.856V421.166H417.926V407.862H421.155L426.434 415.962C426.675 416.326 426.897 416.688 427.102 417.047H427.139C427.089 416.738 427.064 416.129 427.064 415.219V407.862H429.894V421.166ZM441.185 417.251H434.987C435.086 418.63 435.955 419.32 437.594 419.32C438.639 419.32 439.558 419.073 440.35 418.578V420.693C439.471 421.163 438.33 421.398 436.926 421.398C435.392 421.398 434.202 420.974 433.354 420.127C432.507 419.274 432.083 418.086 432.083 416.565C432.083 414.987 432.541 413.738 433.457 412.817C434.372 411.895 435.498 411.434 436.833 411.434C438.219 411.434 439.289 411.845 440.043 412.668C440.804 413.491 441.185 414.607 441.185 416.017V417.251ZM438.466 415.451C438.466 414.091 437.916 413.41 436.815 413.41C436.345 413.41 435.937 413.605 435.59 413.995C435.25 414.384 435.043 414.87 434.969 415.451H438.466ZM456.687 411.666L453.95 421.166H450.87L449.469 415.6C449.376 415.229 449.324 414.824 449.312 414.384H449.256C449.213 414.867 449.151 415.26 449.07 415.563L447.567 421.166H444.524L441.843 411.666H444.831L446.139 417.863C446.201 418.154 446.247 418.507 446.278 418.921H446.333C446.364 418.488 446.42 418.123 446.5 417.826L448.133 411.666H450.926L452.392 417.863C452.429 418.018 452.472 418.377 452.521 418.94H452.586C452.617 418.581 452.667 418.222 452.735 417.863L453.969 411.666H456.687ZM469.249 421.398C467.344 421.398 465.791 420.78 464.591 419.543C463.391 418.293 462.792 416.676 462.792 414.691C462.792 412.594 463.401 410.893 464.619 409.588C465.831 408.289 467.446 407.64 469.462 407.64C471.361 407.64 472.895 408.261 474.063 409.505C475.239 410.741 475.826 412.38 475.826 414.422C475.826 416.506 475.217 418.191 473.999 419.478C473.955 419.521 473.915 419.564 473.878 419.608C473.841 419.645 473.801 419.682 473.757 419.719L477.125 422.957H472.932L471.169 421.166C470.588 421.321 469.947 421.398 469.249 421.398ZM469.378 410.219C468.333 410.219 467.498 410.615 466.874 411.406C466.255 412.192 465.946 413.234 465.946 414.533C465.946 415.85 466.255 416.892 466.874 417.659C467.492 418.426 468.302 418.81 469.304 418.81C470.337 418.81 471.157 418.439 471.763 417.696C472.369 416.942 472.672 415.906 472.672 414.589C472.672 413.215 472.378 412.142 471.791 411.369C471.209 410.602 470.405 410.219 469.378 410.219ZM486.783 421.166H483.86V419.719H483.814C483.09 420.838 482.122 421.398 480.91 421.398C478.708 421.398 477.607 420.065 477.607 417.4V411.666H480.53V417.14C480.53 418.482 481.062 419.153 482.125 419.153C482.651 419.153 483.072 418.97 483.387 418.606C483.703 418.234 483.86 417.734 483.86 417.103V411.666H486.783V421.166ZM497.795 417.251H491.598C491.697 418.63 492.566 419.32 494.205 419.32C495.25 419.32 496.168 419.073 496.96 418.578V420.693C496.082 421.163 494.941 421.398 493.537 421.398C492.003 421.398 490.812 420.974 489.965 420.127C489.118 419.274 488.694 418.086 488.694 416.565C488.694 414.987 489.152 413.738 490.067 412.817C490.982 411.895 492.108 411.434 493.444 411.434C494.829 411.434 495.899 411.845 496.654 412.668C497.415 413.491 497.795 414.607 497.795 416.017V417.251ZM495.077 415.451C495.077 414.091 494.526 413.41 493.425 413.41C492.955 413.41 492.547 413.605 492.201 413.995C491.861 414.384 491.653 414.87 491.579 415.451H495.077ZM498.917 420.916V418.541C499.4 418.831 499.879 419.048 500.355 419.19C500.838 419.332 501.292 419.403 501.719 419.403C502.239 419.403 502.647 419.332 502.944 419.19C503.247 419.048 503.398 418.831 503.398 418.541C503.398 418.355 503.33 418.2 503.194 418.077C503.058 417.953 502.882 417.845 502.666 417.752C502.455 417.659 502.223 417.576 501.97 417.502C501.716 417.427 501.472 417.344 501.237 417.251C500.86 417.109 500.526 416.957 500.235 416.797C499.95 416.63 499.709 416.438 499.511 416.221C499.319 416.005 499.171 415.754 499.066 415.47C498.967 415.185 498.917 414.848 498.917 414.459C498.917 413.927 499.032 413.469 499.261 413.086C499.496 412.702 499.805 412.39 500.188 412.149C500.578 411.901 501.02 411.722 501.515 411.61C502.016 411.493 502.536 411.434 503.074 411.434C503.494 411.434 503.921 411.468 504.354 411.536C504.787 411.598 505.214 411.691 505.634 411.815V414.078C505.263 413.862 504.864 413.701 504.438 413.596C504.017 413.484 503.603 413.429 503.194 413.429C503.003 413.429 502.82 413.447 502.647 413.484C502.48 413.515 502.332 413.565 502.202 413.633C502.072 413.695 501.97 413.778 501.896 413.883C501.821 413.982 501.784 414.097 501.784 414.227C501.784 414.4 501.84 414.548 501.951 414.672C502.062 414.796 502.208 414.904 502.387 414.997C502.567 415.083 502.764 415.164 502.981 415.238C503.204 415.306 503.423 415.377 503.64 415.451C504.029 415.587 504.382 415.736 504.697 415.897C505.013 416.057 505.282 416.246 505.504 416.463C505.733 416.679 505.906 416.933 506.024 417.223C506.148 417.514 506.209 417.86 506.209 418.262C506.209 418.825 506.086 419.308 505.838 419.71C505.597 420.105 505.272 420.43 504.864 420.684C504.462 420.931 503.995 421.11 503.463 421.222C502.938 421.339 502.39 421.398 501.821 421.398C500.776 421.398 499.808 421.237 498.917 420.916ZM513.65 421.055C513.217 421.284 512.564 421.398 511.692 421.398C509.627 421.398 508.594 420.325 508.594 418.179V413.828H507.054V411.666H508.594V409.616L511.516 408.781V411.666H513.65V413.828H511.516V417.669C511.516 418.658 511.909 419.153 512.694 419.153C513.004 419.153 513.322 419.063 513.65 418.884V421.055ZM516.795 410.163C516.3 410.163 515.895 410.018 515.58 409.727C515.264 409.43 515.106 409.068 515.106 408.642C515.106 408.203 515.264 407.844 515.58 407.566C515.895 407.287 516.3 407.148 516.795 407.148C517.296 407.148 517.701 407.287 518.01 407.566C518.326 407.844 518.483 408.203 518.483 408.642C518.483 409.087 518.326 409.452 518.01 409.736C517.701 410.021 517.296 410.163 516.795 410.163ZM518.242 421.166H515.311V411.666H518.242V421.166ZM525.237 421.398C523.654 421.398 522.408 420.956 521.499 420.071C520.596 419.181 520.144 417.975 520.144 416.453C520.144 414.882 520.614 413.655 521.554 412.77C522.494 411.88 523.765 411.434 525.367 411.434C526.944 411.434 528.181 411.88 529.078 412.77C529.975 413.655 530.423 414.827 530.423 416.286C530.423 417.863 529.959 419.11 529.032 420.025C528.11 420.94 526.845 421.398 525.237 421.398ZM525.312 413.679C524.619 413.679 524.081 413.917 523.697 414.394C523.314 414.87 523.122 415.544 523.122 416.416C523.122 418.241 523.858 419.153 525.33 419.153C526.734 419.153 527.436 418.216 527.436 416.342C527.436 414.567 526.728 413.679 525.312 413.679ZM541.5 421.166H538.578V415.887C538.578 414.415 538.052 413.679 537.001 413.679C536.494 413.679 536.076 413.874 535.749 414.264C535.421 414.653 535.257 415.148 535.257 415.748V421.166H532.325V411.666H535.257V413.169H535.294C535.993 412.012 537.01 411.434 538.346 411.434C540.449 411.434 541.5 412.739 541.5 415.349V421.166Z" fill="#1E1C1C"/>
<rect x="701" y="376" width="215" height="72" rx="36" fill="#83E7FD"/>
<rect x="371" y="140" width="215" height="72" rx="36" fill="#83E7FD"/>
<path d="M750.99 410.136H747.195V421H744.189V410.136H740.414V407.696H750.99V410.136ZM760.685 411.5L756.825 421.761C755.897 424.229 754.5 425.462 752.632 425.462C751.921 425.462 751.336 425.382 750.878 425.221V422.883C751.268 423.112 751.692 423.227 752.149 423.227C752.904 423.227 753.43 422.871 753.727 422.16L754.228 420.981L750.368 411.5H753.615L755.387 417.28C755.499 417.639 755.585 418.062 755.647 418.551H755.684C755.74 418.192 755.842 417.775 755.99 417.298L757.781 411.5H760.685ZM764.832 419.896H764.794V425.37H761.863V411.5H764.794V412.929H764.832C765.555 411.822 766.573 411.268 767.884 411.268C769.115 411.268 770.064 411.692 770.732 412.539C771.406 413.38 771.743 414.528 771.743 415.981C771.743 417.564 771.35 418.835 770.565 419.794C769.786 420.753 768.747 421.232 767.448 421.232C766.304 421.232 765.431 420.787 764.832 419.896ZM764.748 416V416.76C764.748 417.416 764.921 417.951 765.268 418.365C765.614 418.78 766.069 418.987 766.631 418.987C767.299 418.987 767.816 418.73 768.181 418.217C768.552 417.697 768.737 416.964 768.737 416.018C768.737 414.348 768.088 413.513 766.789 413.513C766.189 413.513 765.697 413.742 765.314 414.2C764.937 414.651 764.748 415.251 764.748 416ZM782.18 417.085H775.983C776.082 418.464 776.951 419.154 778.59 419.154C779.635 419.154 780.554 418.906 781.345 418.412V420.527C780.467 420.997 779.326 421.232 777.922 421.232C776.388 421.232 775.197 420.808 774.35 419.961C773.503 419.107 773.079 417.92 773.079 416.398C773.079 414.821 773.537 413.572 774.452 412.65C775.368 411.729 776.493 411.268 777.829 411.268C779.215 411.268 780.285 411.679 781.039 412.502C781.8 413.325 782.18 414.441 782.18 415.851V417.085ZM779.462 415.285C779.462 413.924 778.911 413.244 777.811 413.244C777.34 413.244 776.932 413.439 776.586 413.829C776.246 414.218 776.039 414.704 775.964 415.285H779.462ZM792.459 421H789.463V407.696H792.459V421ZM804.381 421H801.458V415.721C801.458 414.249 800.933 413.513 799.881 413.513C799.374 413.513 798.957 413.708 798.629 414.098C798.301 414.487 798.137 414.982 798.137 415.582V421H795.206V411.5H798.137V413.003H798.174C798.873 411.846 799.891 411.268 801.227 411.268C803.329 411.268 804.381 412.573 804.381 415.183V421ZM823.947 421H820.681L819.735 418.041H815.003L814.066 421H810.819L815.662 407.696H819.215L823.947 421ZM819.048 415.74L817.62 411.268C817.514 410.934 817.44 410.535 817.397 410.071H817.323C817.292 410.461 817.215 410.847 817.091 411.231L815.644 415.74H819.048ZM834.495 421H831.573V415.721C831.573 414.249 831.047 413.513 829.996 413.513C829.488 413.513 829.071 413.708 828.743 414.098C828.415 414.487 828.251 414.982 828.251 415.582V421H825.32V411.5H828.251V413.003H828.289C828.987 411.846 830.005 411.268 831.341 411.268C833.444 411.268 834.495 412.573 834.495 415.183V421ZM836.202 420.75V418.375C836.685 418.665 837.164 418.882 837.64 419.024C838.123 419.166 838.577 419.237 839.004 419.237C839.523 419.237 839.932 419.166 840.229 419.024C840.532 418.882 840.683 418.665 840.683 418.375C840.683 418.189 840.615 418.034 840.479 417.911C840.343 417.787 840.167 417.679 839.95 417.586C839.74 417.493 839.508 417.41 839.254 417.335C839.001 417.261 838.757 417.178 838.521 417.085C838.144 416.943 837.81 416.791 837.52 416.63C837.235 416.463 836.994 416.272 836.796 416.055C836.604 415.839 836.456 415.588 836.351 415.304C836.252 415.019 836.202 414.682 836.202 414.292C836.202 413.761 836.317 413.303 836.545 412.919C836.78 412.536 837.09 412.224 837.473 411.982C837.863 411.735 838.305 411.556 838.8 411.444C839.301 411.327 839.82 411.268 840.358 411.268C840.779 411.268 841.206 411.302 841.639 411.37C842.072 411.432 842.498 411.525 842.919 411.648V413.912C842.548 413.696 842.149 413.535 841.722 413.43C841.302 413.318 840.887 413.263 840.479 413.263C840.287 413.263 840.105 413.281 839.932 413.318C839.765 413.349 839.616 413.399 839.486 413.467C839.356 413.529 839.254 413.612 839.18 413.717C839.106 413.816 839.069 413.931 839.069 414.061C839.069 414.234 839.125 414.382 839.236 414.506C839.347 414.63 839.493 414.738 839.672 414.831C839.851 414.917 840.049 414.998 840.266 415.072C840.488 415.14 840.708 415.211 840.924 415.285C841.314 415.421 841.667 415.57 841.982 415.73C842.297 415.891 842.566 416.08 842.789 416.296C843.018 416.513 843.191 416.766 843.309 417.057C843.432 417.348 843.494 417.694 843.494 418.096C843.494 418.659 843.37 419.141 843.123 419.543C842.882 419.939 842.557 420.264 842.149 420.518C841.747 420.765 841.28 420.944 840.748 421.056C840.222 421.173 839.675 421.232 839.106 421.232C838.061 421.232 837.093 421.071 836.202 420.75ZM858.95 411.5L856.213 421H853.133L851.732 415.434C851.64 415.062 851.587 414.657 851.575 414.218H851.519C851.476 414.701 851.414 415.093 851.333 415.396L849.831 421H846.788L844.106 411.5H847.094L848.402 417.697C848.464 417.988 848.51 418.34 848.541 418.755H848.597C848.628 418.322 848.683 417.957 848.764 417.66L850.396 411.5H853.189L854.655 417.697C854.692 417.852 854.735 418.211 854.785 418.773H854.85C854.881 418.415 854.93 418.056 854.998 417.697L856.232 411.5H858.95ZM868.793 417.085H862.596C862.695 418.464 863.564 419.154 865.203 419.154C866.248 419.154 867.167 418.906 867.958 418.412V420.527C867.08 420.997 865.939 421.232 864.535 421.232C863.001 421.232 861.811 420.808 860.963 419.961C860.116 419.107 859.692 417.92 859.692 416.398C859.692 414.821 860.15 413.572 861.065 412.65C861.981 411.729 863.106 411.268 864.442 411.268C865.828 411.268 866.898 411.679 867.652 412.502C868.413 413.325 868.793 414.441 868.793 415.851V417.085ZM866.075 415.285C866.075 413.924 865.525 413.244 864.424 413.244C863.954 413.244 863.546 413.439 863.199 413.829C862.859 414.218 862.652 414.704 862.578 415.285H866.075ZM876.735 414.144C876.382 413.952 875.971 413.856 875.501 413.856C874.864 413.856 874.366 414.091 874.007 414.562C873.649 415.025 873.469 415.659 873.469 416.463V421H870.538V411.5H873.469V413.263H873.506C873.97 411.976 874.805 411.333 876.011 411.333C876.32 411.333 876.562 411.37 876.735 411.444V414.144Z" fill="#1E1C1C"/>
<path d="M445.084 185H442.078V179.582H436.567V185H433.571V171.696H436.567V177.003H442.078V171.696H445.084V185ZM449.333 173.997C448.838 173.997 448.433 173.852 448.118 173.561C447.802 173.264 447.645 172.902 447.645 172.476C447.645 172.036 447.802 171.678 448.118 171.399C448.433 171.121 448.838 170.982 449.333 170.982C449.834 170.982 450.239 171.121 450.548 171.399C450.864 171.678 451.021 172.036 451.021 172.476C451.021 172.921 450.864 173.286 450.548 173.57C450.239 173.855 449.834 173.997 449.333 173.997ZM450.78 185H447.849V175.5H450.78V185ZM458.991 184.889C458.558 185.118 457.905 185.232 457.033 185.232C454.967 185.232 453.935 184.159 453.935 182.013V177.662H452.395V175.5H453.935V173.45L456.857 172.615V175.5H458.991V177.662H456.857V181.502C456.857 182.492 457.25 182.987 458.035 182.987C458.344 182.987 458.663 182.897 458.991 182.718V184.889ZM469.131 171.381L468.11 175.5H465.559L467.312 171.381H469.131ZM482.861 185H479.419L477.351 181.577C477.196 181.317 477.048 181.085 476.905 180.881C476.763 180.677 476.618 180.504 476.469 180.361C476.327 180.213 476.175 180.102 476.015 180.027C475.86 179.947 475.69 179.907 475.504 179.907H474.697V185H471.701V171.696H476.451C479.679 171.696 481.293 172.902 481.293 175.314C481.293 175.778 481.222 176.208 481.08 176.604C480.938 176.994 480.737 177.346 480.477 177.662C480.217 177.977 479.902 178.249 479.531 178.478C479.166 178.707 478.758 178.886 478.306 179.016V179.053C478.504 179.115 478.696 179.217 478.881 179.359C479.067 179.495 479.246 179.656 479.419 179.842C479.593 180.027 479.757 180.228 479.911 180.445C480.072 180.655 480.217 180.862 480.347 181.066L482.861 185ZM474.697 173.941V177.643H475.996C476.639 177.643 477.156 177.458 477.545 177.086C477.941 176.709 478.139 176.242 478.139 175.686C478.139 174.523 477.443 173.941 476.052 173.941H474.697ZM491.879 181.085H485.682C485.781 182.464 486.65 183.154 488.289 183.154C489.334 183.154 490.252 182.906 491.044 182.412V184.527C490.166 184.997 489.025 185.232 487.621 185.232C486.087 185.232 484.896 184.808 484.049 183.961C483.201 183.107 482.778 181.92 482.778 180.398C482.778 178.821 483.236 177.572 484.151 176.65C485.066 175.729 486.192 175.268 487.528 175.268C488.913 175.268 489.983 175.679 490.738 176.502C491.499 177.325 491.879 178.441 491.879 179.851V181.085ZM489.161 179.285C489.161 177.924 488.61 177.244 487.509 177.244C487.039 177.244 486.631 177.439 486.285 177.829C485.944 178.218 485.737 178.704 485.663 179.285H489.161ZM493.001 184.75V182.375C493.484 182.665 493.963 182.882 494.439 183.024C494.922 183.166 495.376 183.237 495.803 183.237C496.323 183.237 496.731 183.166 497.028 183.024C497.331 182.882 497.482 182.665 497.482 182.375C497.482 182.189 497.414 182.034 497.278 181.911C497.142 181.787 496.966 181.679 496.75 181.586C496.539 181.493 496.307 181.41 496.054 181.335C495.8 181.261 495.556 181.178 495.321 181.085C494.944 180.943 494.61 180.791 494.319 180.63C494.034 180.463 493.793 180.272 493.595 180.055C493.403 179.839 493.255 179.588 493.15 179.304C493.051 179.019 493.001 178.682 493.001 178.292C493.001 177.761 493.116 177.303 493.345 176.919C493.58 176.536 493.889 176.224 494.272 175.982C494.662 175.735 495.104 175.556 495.599 175.444C496.1 175.327 496.62 175.268 497.158 175.268C497.578 175.268 498.005 175.302 498.438 175.37C498.871 175.432 499.298 175.525 499.718 175.648V177.912C499.347 177.696 498.948 177.535 498.521 177.43C498.101 177.318 497.687 177.263 497.278 177.263C497.087 177.263 496.904 177.281 496.731 177.318C496.564 177.349 496.416 177.399 496.286 177.467C496.156 177.529 496.054 177.612 495.979 177.717C495.905 177.816 495.868 177.931 495.868 178.061C495.868 178.234 495.924 178.382 496.035 178.506C496.146 178.63 496.292 178.738 496.471 178.831C496.651 178.917 496.848 178.998 497.065 179.072C497.288 179.14 497.507 179.211 497.724 179.285C498.113 179.421 498.466 179.57 498.781 179.73C499.097 179.891 499.366 180.08 499.588 180.296C499.817 180.513 499.99 180.766 500.108 181.057C500.232 181.348 500.293 181.694 500.293 182.096C500.293 182.659 500.17 183.141 499.922 183.543C499.681 183.939 499.356 184.264 498.948 184.518C498.546 184.765 498.079 184.944 497.547 185.056C497.022 185.173 496.474 185.232 495.905 185.232C494.86 185.232 493.892 185.071 493.001 184.75ZM510.526 181.085H504.329C504.428 182.464 505.297 183.154 506.936 183.154C507.981 183.154 508.9 182.906 509.691 182.412V184.527C508.813 184.997 507.672 185.232 506.268 185.232C504.734 185.232 503.544 184.808 502.696 183.961C501.849 183.107 501.425 181.92 501.425 180.398C501.425 178.821 501.883 177.572 502.798 176.65C503.714 175.729 504.839 175.268 506.175 175.268C507.561 175.268 508.631 175.679 509.385 176.502C510.146 177.325 510.526 178.441 510.526 179.851V181.085ZM507.808 179.285C507.808 177.924 507.258 177.244 506.157 177.244C505.687 177.244 505.278 177.439 504.932 177.829C504.592 178.218 504.385 178.704 504.311 179.285H507.808ZM518.013 184.889C517.58 185.118 516.928 185.232 516.056 185.232C513.99 185.232 512.957 184.159 512.957 182.013V177.662H511.417V175.5H512.957V173.45L515.879 172.615V175.5H518.013V177.662H515.879V181.502C515.879 182.492 516.272 182.987 517.058 182.987C517.367 182.987 517.685 182.897 518.013 182.718V184.889ZM523.079 171.381L521.288 175.5H519.488L520.546 171.381H523.079Z" fill="#1E1C1C"/>
<rect x="1017.32" y="412.028" width="127.319" height="126.556" rx="18" transform="rotate(-45 1017.32 412.028)" fill="#FCA390"/>
<path d="M1085.56 406.649C1084.59 407.119 1083.32 407.354 1081.76 407.354C1079.71 407.354 1078.11 406.754 1076.94 405.554C1075.77 404.354 1075.19 402.755 1075.19 400.758C1075.19 398.63 1075.84 396.905 1077.15 395.581C1078.47 394.257 1080.18 393.596 1082.28 393.596C1083.57 393.596 1084.67 393.759 1085.56 394.087V396.973C1084.67 396.441 1083.65 396.175 1082.52 396.175C1081.27 396.175 1080.26 396.567 1079.49 397.353C1078.72 398.138 1078.34 399.202 1078.34 400.544C1078.34 401.831 1078.7 402.857 1079.43 403.624C1080.15 404.385 1081.12 404.766 1082.35 404.766C1083.52 404.766 1084.59 404.481 1085.56 403.912V406.649ZM1092.12 407.354C1090.54 407.354 1089.29 406.912 1088.38 406.027C1087.48 405.137 1087.03 403.931 1087.03 402.409C1087.03 400.838 1087.5 399.61 1088.44 398.726C1089.38 397.835 1090.65 397.39 1092.25 397.39C1093.83 397.39 1095.06 397.835 1095.96 398.726C1096.86 399.61 1097.3 400.782 1097.3 402.242C1097.3 403.819 1096.84 405.065 1095.91 405.981C1094.99 406.896 1093.73 407.354 1092.12 407.354ZM1092.19 399.635C1091.5 399.635 1090.96 399.873 1090.58 400.349C1090.19 400.826 1090 401.5 1090 402.372C1090 404.196 1090.74 405.109 1092.21 405.109C1093.62 405.109 1094.32 404.172 1094.32 402.298C1094.32 400.523 1093.61 399.635 1092.19 399.635ZM1105.4 400.266C1105.05 400.074 1104.64 399.978 1104.17 399.978C1103.53 399.978 1103.03 400.213 1102.68 400.683C1102.32 401.147 1102.14 401.781 1102.14 402.585V407.122H1099.21V397.622H1102.14V399.385H1102.18C1102.64 398.098 1103.47 397.455 1104.68 397.455C1104.99 397.455 1105.23 397.492 1105.4 397.566V400.266ZM1112.97 400.266C1112.62 400.074 1112.21 399.978 1111.74 399.978C1111.1 399.978 1110.61 400.213 1110.25 400.683C1109.89 401.147 1109.71 401.781 1109.71 402.585V407.122H1106.78V397.622H1109.71V399.385H1109.75C1110.21 398.098 1111.04 397.455 1112.25 397.455C1112.56 397.455 1112.8 397.492 1112.97 397.566V400.266ZM1122.81 403.207H1116.61C1116.71 404.586 1117.58 405.276 1119.22 405.276C1120.26 405.276 1121.18 405.028 1121.97 404.534V406.649C1121.09 407.119 1119.95 407.354 1118.55 407.354C1117.02 407.354 1115.83 406.93 1114.98 406.083C1114.13 405.229 1113.71 404.042 1113.71 402.52C1113.71 400.943 1114.16 399.694 1115.08 398.772C1116 397.851 1117.12 397.39 1118.46 397.39C1119.84 397.39 1120.91 397.801 1121.67 398.624C1122.43 399.446 1122.81 400.563 1122.81 401.973V403.207ZM1120.09 401.407C1120.09 400.046 1119.54 399.366 1118.44 399.366C1117.97 399.366 1117.56 399.561 1117.21 399.951C1116.87 400.34 1116.67 400.826 1116.59 401.407H1120.09ZM1131.75 406.779C1131.09 407.162 1130.13 407.354 1128.88 407.354C1127.42 407.354 1126.24 406.912 1125.34 406.027C1124.44 405.143 1123.99 404.002 1123.99 402.604C1123.99 400.99 1124.47 399.719 1125.43 398.791C1126.4 397.857 1127.7 397.39 1129.32 397.39C1130.44 397.39 1131.25 397.538 1131.75 397.835V400.322C1131.14 399.864 1130.46 399.635 1129.7 399.635C1128.86 399.635 1128.19 399.883 1127.7 400.377C1127.21 400.866 1126.96 401.543 1126.96 402.409C1126.96 403.25 1127.2 403.912 1127.67 404.394C1128.14 404.871 1128.79 405.109 1129.61 405.109C1130.34 405.109 1131.05 404.88 1131.75 404.422V406.779ZM1139.42 407.011C1138.99 407.239 1138.34 407.354 1137.47 407.354C1135.4 407.354 1134.37 406.281 1134.37 404.135V399.784H1132.83V397.622H1134.37V395.572L1137.29 394.737V397.622H1139.42V399.784H1137.29V403.624C1137.29 404.614 1137.68 405.109 1138.47 405.109C1138.78 405.109 1139.1 405.019 1139.42 404.84V407.011ZM1083.16 432.122H1079.89L1078.94 429.162H1074.21L1073.28 432.122H1070.03L1074.87 418.818H1078.43L1083.16 432.122ZM1078.26 426.862L1076.83 422.39C1076.72 422.056 1076.65 421.657 1076.61 421.193H1076.53C1076.5 421.583 1076.42 421.969 1076.3 422.353L1074.85 426.862H1078.26ZM1093.7 432.122H1090.78V426.843C1090.78 425.371 1090.26 424.635 1089.21 424.635C1088.7 424.635 1088.28 424.83 1087.95 425.22C1087.63 425.609 1087.46 426.104 1087.46 426.704V432.122H1084.53V422.622H1087.46V424.125H1087.5C1088.2 422.968 1089.21 422.39 1090.55 422.39C1092.65 422.39 1093.7 423.695 1093.7 426.305V432.122ZM1095.41 431.871V429.496C1095.89 429.787 1096.37 430.004 1096.85 430.146C1097.33 430.288 1097.79 430.359 1098.21 430.359C1098.73 430.359 1099.14 430.288 1099.44 430.146C1099.74 430.004 1099.89 429.787 1099.89 429.496C1099.89 429.311 1099.82 429.156 1099.69 429.033C1099.55 428.909 1099.38 428.801 1099.16 428.708C1098.95 428.615 1098.72 428.532 1098.46 428.457C1098.21 428.383 1097.97 428.3 1097.73 428.207C1097.35 428.065 1097.02 427.913 1096.73 427.752C1096.44 427.585 1096.2 427.394 1096.01 427.177C1095.81 426.961 1095.67 426.71 1095.56 426.426C1095.46 426.141 1095.41 425.804 1095.41 425.414C1095.41 424.883 1095.53 424.425 1095.76 424.041C1095.99 423.658 1096.3 423.346 1096.68 423.104C1097.07 422.857 1097.51 422.678 1098.01 422.566C1098.51 422.449 1099.03 422.39 1099.57 422.39C1099.99 422.39 1100.42 422.424 1100.85 422.492C1101.28 422.554 1101.71 422.647 1102.13 422.77V425.034C1101.76 424.818 1101.36 424.657 1100.93 424.552C1100.51 424.44 1100.1 424.385 1099.69 424.385C1099.5 424.385 1099.31 424.403 1099.14 424.44C1098.97 424.471 1098.83 424.521 1098.7 424.589C1098.57 424.651 1098.46 424.734 1098.39 424.839C1098.32 424.938 1098.28 425.053 1098.28 425.182C1098.28 425.356 1098.33 425.504 1098.45 425.628C1098.56 425.752 1098.7 425.86 1098.88 425.953C1099.06 426.039 1099.26 426.12 1099.48 426.194C1099.7 426.262 1099.92 426.333 1100.13 426.407C1100.52 426.543 1100.88 426.692 1101.19 426.852C1101.51 427.013 1101.78 427.202 1102 427.418C1102.23 427.635 1102.4 427.888 1102.52 428.179C1102.64 428.47 1102.7 428.816 1102.7 429.218C1102.7 429.781 1102.58 430.263 1102.33 430.665C1102.09 431.061 1101.77 431.386 1101.36 431.64C1100.96 431.887 1100.49 432.066 1099.96 432.178C1099.43 432.295 1098.88 432.354 1098.32 432.354C1097.27 432.354 1096.3 432.193 1095.41 431.871ZM1118.16 422.622L1115.42 432.122H1112.34L1110.94 426.556C1110.85 426.184 1110.8 425.779 1110.78 425.34H1110.73C1110.69 425.823 1110.62 426.215 1110.54 426.518L1109.04 432.122H1106L1103.32 422.622H1106.3L1107.61 428.819C1107.67 429.11 1107.72 429.462 1107.75 429.877H1107.81C1107.84 429.444 1107.89 429.079 1107.97 428.782L1109.61 422.622H1112.4L1113.86 428.819C1113.9 428.974 1113.94 429.333 1113.99 429.895H1114.06C1114.09 429.537 1114.14 429.178 1114.21 428.819L1115.44 422.622H1118.16ZM1128 428.207H1121.81C1121.9 429.586 1122.77 430.276 1124.41 430.276C1125.46 430.276 1126.38 430.028 1127.17 429.534V431.649C1126.29 432.119 1125.15 432.354 1123.74 432.354C1122.21 432.354 1121.02 431.93 1120.17 431.083C1119.33 430.229 1118.9 429.042 1118.9 427.52C1118.9 425.943 1119.36 424.694 1120.28 423.772C1121.19 422.851 1122.32 422.39 1123.65 422.39C1125.04 422.39 1126.11 422.801 1126.86 423.624C1127.62 424.446 1128 425.563 1128 426.973V428.207ZM1125.28 426.407C1125.28 425.046 1124.73 424.366 1123.63 424.366C1123.16 424.366 1122.76 424.561 1122.41 424.951C1122.07 425.34 1121.86 425.826 1121.79 426.407H1125.28ZM1135.94 425.266C1135.59 425.074 1135.18 424.978 1134.71 424.978C1134.07 424.978 1133.58 425.213 1133.22 425.683C1132.86 426.147 1132.68 426.781 1132.68 427.585V432.122H1129.75V422.622H1132.68V424.385H1132.72C1133.18 423.098 1134.01 422.455 1135.22 422.455C1135.53 422.455 1135.77 422.492 1135.94 422.566V425.266ZM1138.52 428.272C1138.46 428.111 1138.41 427.932 1138.38 427.734C1138.34 427.53 1138.33 427.338 1138.33 427.159C1138.33 426.874 1138.36 426.614 1138.41 426.379C1138.47 426.144 1138.55 425.925 1138.66 425.721C1138.77 425.51 1138.91 425.312 1139.08 425.127C1139.25 424.935 1139.44 424.746 1139.66 424.561C1139.9 424.363 1140.1 424.181 1140.28 424.014C1140.46 423.84 1140.61 423.67 1140.73 423.503C1140.86 423.33 1140.95 423.154 1141.01 422.974C1141.07 422.789 1141.1 422.585 1141.1 422.362C1141.1 422.17 1141.07 421.994 1141 421.833C1140.93 421.666 1140.83 421.524 1140.7 421.407C1140.58 421.289 1140.43 421.196 1140.24 421.128C1140.06 421.06 1139.86 421.026 1139.64 421.026C1139.15 421.026 1138.65 421.128 1138.13 421.332C1137.61 421.53 1137.12 421.833 1136.66 422.242V419.449C1137.14 419.165 1137.65 418.951 1138.22 418.809C1138.78 418.667 1139.36 418.596 1139.96 418.596C1140.54 418.596 1141.07 418.661 1141.57 418.79C1142.06 418.914 1142.49 419.112 1142.86 419.384C1143.23 419.656 1143.51 420.006 1143.72 420.432C1143.93 420.853 1144.03 421.36 1144.03 421.954C1144.03 422.331 1143.99 422.675 1143.9 422.984C1143.82 423.287 1143.69 423.574 1143.52 423.847C1143.36 424.119 1143.15 424.382 1142.9 424.635C1142.66 424.883 1142.37 425.139 1142.05 425.405C1141.83 425.585 1141.64 425.752 1141.47 425.906C1141.31 426.061 1141.18 426.215 1141.07 426.37C1140.96 426.518 1140.88 426.679 1140.82 426.852C1140.77 427.019 1140.74 427.211 1140.74 427.428C1140.74 427.576 1140.76 427.728 1140.8 427.882C1140.84 428.037 1140.9 428.167 1140.96 428.272H1138.52ZM1139.88 432.335C1139.38 432.335 1138.97 432.187 1138.64 431.89C1138.32 431.581 1138.15 431.216 1138.15 430.795C1138.15 430.362 1138.32 430.001 1138.64 429.71C1138.97 429.419 1139.38 429.274 1139.88 429.274C1140.37 429.274 1140.77 429.419 1141.09 429.71C1141.42 429.994 1141.58 430.356 1141.58 430.795C1141.58 431.241 1141.42 431.609 1141.1 431.899C1140.78 432.19 1140.37 432.335 1139.88 432.335Z" fill="#1E1C1C"/>
<circle cx="280" cy="414" r="4.5" fill="#FFFBEB" stroke="black"/>
<circle cx="586" cy="414" r="4.5" fill="#FFFBEB" stroke="black"/>
<circle cx="916" cy="414" r="4.5" fill="#FFFBEB" stroke="black"/>
<circle cx="371" cy="176" r="4.5" fill="#FFFBEB" stroke="black"/>
<circle cx="1107" cy="493.078" r="4.5" fill="#FFFBEB" stroke="black"/>
<circle cx="1107" cy="330.078" r="4.5" fill="#FFFBEB" stroke="black"/>
<rect x="701" y="139" width="215.492" height="71.8307" rx="10" fill="#FCD577"/>
<path d="M751.221 183.173V180.204C751.759 180.656 752.343 180.996 752.974 181.225C753.605 181.448 754.242 181.559 754.885 181.559C755.263 181.559 755.59 181.525 755.869 181.457C756.153 181.389 756.388 181.296 756.574 181.178C756.765 181.055 756.908 180.913 757 180.752C757.093 180.585 757.14 180.405 757.14 180.214C757.14 179.954 757.065 179.722 756.917 179.518C756.769 179.314 756.564 179.125 756.305 178.952C756.051 178.779 755.748 178.612 755.396 178.451C755.043 178.29 754.663 178.126 754.254 177.959C753.215 177.526 752.439 176.997 751.926 176.373C751.419 175.748 751.165 174.994 751.165 174.109C751.165 173.416 751.304 172.823 751.583 172.328C751.861 171.827 752.238 171.416 752.714 171.094C753.197 170.772 753.753 170.537 754.384 170.389C755.015 170.234 755.683 170.157 756.388 170.157C757.081 170.157 757.693 170.2 758.225 170.287C758.763 170.367 759.258 170.494 759.709 170.667V173.441C759.487 173.287 759.243 173.15 758.977 173.033C758.717 172.915 758.448 172.82 758.169 172.745C757.891 172.665 757.613 172.606 757.334 172.569C757.062 172.532 756.803 172.513 756.555 172.513C756.215 172.513 755.906 172.547 755.627 172.615C755.349 172.677 755.114 172.767 754.922 172.885C754.731 173.002 754.582 173.144 754.477 173.311C754.372 173.472 754.319 173.655 754.319 173.859C754.319 174.081 754.378 174.282 754.496 174.462C754.613 174.635 754.78 174.802 754.997 174.963C755.213 175.117 755.476 175.272 755.785 175.427C756.094 175.575 756.444 175.73 756.833 175.89C757.365 176.113 757.842 176.351 758.262 176.605C758.689 176.852 759.054 177.134 759.357 177.449C759.66 177.764 759.892 178.126 760.053 178.534C760.214 178.936 760.294 179.406 760.294 179.945C760.294 180.687 760.152 181.311 759.867 181.819C759.589 182.32 759.208 182.728 758.726 183.043C758.244 183.352 757.681 183.575 757.038 183.711C756.401 183.847 755.726 183.915 755.015 183.915C754.285 183.915 753.59 183.853 752.928 183.73C752.272 183.606 751.703 183.42 751.221 183.173ZM771.315 183.683H768.393V178.284C768.393 176.892 767.886 176.197 766.872 176.197C766.352 176.197 765.931 176.391 765.61 176.781C765.288 177.171 765.127 177.665 765.127 178.265V183.683H762.196V169.619H765.127V175.594H765.165C765.882 174.499 766.856 173.951 768.087 173.951C770.239 173.951 771.315 175.25 771.315 177.848V183.683ZM778.171 183.915C776.588 183.915 775.342 183.473 774.433 182.589C773.53 181.698 773.078 180.492 773.078 178.97C773.078 177.399 773.548 176.172 774.488 175.287C775.428 174.397 776.699 173.951 778.301 173.951C779.878 173.951 781.115 174.397 782.012 175.287C782.909 176.172 783.357 177.344 783.357 178.803C783.357 180.381 782.894 181.627 781.966 182.542C781.044 183.458 779.779 183.915 778.171 183.915ZM778.246 176.197C777.553 176.197 777.015 176.435 776.631 176.911C776.248 177.387 776.056 178.061 776.056 178.933C776.056 180.758 776.792 181.67 778.264 181.67C779.668 181.67 780.37 180.733 780.37 178.859C780.37 177.084 779.662 176.197 778.246 176.197ZM799.018 174.183L796.281 183.683H793.201L791.8 178.117C791.707 177.746 791.654 177.341 791.642 176.902H791.586C791.543 177.384 791.481 177.777 791.401 178.08L789.898 183.683H786.855L784.174 174.183H787.161L788.469 180.381C788.531 180.671 788.577 181.024 788.608 181.438H788.664C788.695 181.005 788.751 180.64 788.831 180.344L790.464 174.183H793.256L794.722 180.381C794.759 180.535 794.803 180.894 794.852 181.457H794.917C794.948 181.098 794.997 180.739 795.065 180.381L796.299 174.183H799.018ZM817.118 183.683H813.676L811.607 180.26C811.452 180 811.304 179.768 811.162 179.564C811.019 179.36 810.874 179.187 810.726 179.045C810.583 178.896 810.432 178.785 810.271 178.711C810.116 178.63 809.946 178.59 809.761 178.59H808.954V183.683H805.957V170.38H810.707C813.936 170.38 815.55 171.586 815.55 173.998C815.55 174.462 815.479 174.892 815.336 175.287C815.194 175.677 814.993 176.03 814.733 176.345C814.474 176.66 814.158 176.933 813.787 177.161C813.422 177.39 813.014 177.57 812.562 177.699V177.737C812.76 177.798 812.952 177.9 813.138 178.043C813.323 178.179 813.503 178.34 813.676 178.525C813.849 178.711 814.013 178.912 814.167 179.128C814.328 179.338 814.474 179.546 814.604 179.75L817.118 183.683ZM808.954 172.625V176.326H810.252C810.896 176.326 811.412 176.141 811.802 175.77C812.198 175.392 812.396 174.926 812.396 174.369C812.396 173.206 811.7 172.625 810.308 172.625H808.954ZM826.135 179.768H819.938C820.037 181.148 820.906 181.837 822.545 181.837C823.59 181.837 824.509 181.59 825.3 181.095V183.21C824.422 183.68 823.281 183.915 821.877 183.915C820.343 183.915 819.153 183.492 818.305 182.644C817.458 181.791 817.034 180.603 817.034 179.082C817.034 177.505 817.492 176.255 818.407 175.334C819.323 174.412 820.448 173.951 821.784 173.951C823.17 173.951 824.24 174.363 824.994 175.185C825.755 176.008 826.135 177.124 826.135 178.534V179.768ZM823.417 177.969C823.417 176.608 822.867 175.927 821.766 175.927C821.296 175.927 820.887 176.122 820.541 176.512C820.201 176.902 819.994 177.387 819.919 177.969H823.417ZM827.258 183.433V181.058C827.74 181.349 828.22 181.565 828.696 181.707C829.178 181.85 829.633 181.921 830.06 181.921C830.579 181.921 830.987 181.85 831.284 181.707C831.587 181.565 831.739 181.349 831.739 181.058C831.739 180.872 831.671 180.718 831.535 180.594C831.399 180.47 831.222 180.362 831.006 180.269C830.796 180.177 830.564 180.093 830.31 180.019C830.056 179.945 829.812 179.861 829.577 179.768C829.2 179.626 828.866 179.475 828.575 179.314C828.291 179.147 828.049 178.955 827.852 178.739C827.66 178.522 827.511 178.272 827.406 177.987C827.307 177.703 827.258 177.365 827.258 176.976C827.258 176.444 827.372 175.986 827.601 175.603C827.836 175.219 828.145 174.907 828.529 174.666C828.918 174.418 829.361 174.239 829.855 174.128C830.356 174.01 830.876 173.951 831.414 173.951C831.835 173.951 832.261 173.985 832.694 174.053C833.127 174.115 833.554 174.208 833.975 174.332V176.595C833.604 176.379 833.205 176.218 832.778 176.113C832.357 176.002 831.943 175.946 831.535 175.946C831.343 175.946 831.16 175.965 830.987 176.002C830.82 176.033 830.672 176.082 830.542 176.15C830.412 176.212 830.31 176.295 830.236 176.401C830.162 176.5 830.125 176.614 830.125 176.744C830.125 176.917 830.18 177.066 830.292 177.189C830.403 177.313 830.548 177.421 830.728 177.514C830.907 177.601 831.105 177.681 831.321 177.755C831.544 177.823 831.764 177.894 831.98 177.969C832.37 178.105 832.722 178.253 833.038 178.414C833.353 178.575 833.622 178.763 833.845 178.98C834.074 179.196 834.247 179.45 834.364 179.74C834.488 180.031 834.55 180.378 834.55 180.78C834.55 181.342 834.426 181.825 834.179 182.227C833.938 182.623 833.613 182.947 833.205 183.201C832.803 183.448 832.336 183.628 831.804 183.739C831.278 183.857 830.731 183.915 830.162 183.915C829.116 183.915 828.148 183.754 827.258 183.433ZM845.274 183.683H842.352V182.236H842.306C841.582 183.356 840.614 183.915 839.402 183.915C837.2 183.915 836.099 182.582 836.099 179.917V174.183H839.021V179.657C839.021 180.999 839.553 181.67 840.617 181.67C841.143 181.67 841.563 181.488 841.879 181.123C842.194 180.752 842.352 180.251 842.352 179.62V174.183H845.274V183.683ZM850.683 183.683H847.751V169.619H850.683V183.683ZM858.894 183.572C858.461 183.801 857.808 183.915 856.936 183.915C854.87 183.915 853.837 182.842 853.837 180.696V176.345H852.297V174.183H853.837V172.133L856.76 171.298V174.183H858.894V176.345H856.76V180.186C856.76 181.175 857.153 181.67 857.938 181.67C858.247 181.67 858.566 181.58 858.894 181.401V183.572ZM859.933 183.433V181.058C860.415 181.349 860.894 181.565 861.371 181.707C861.853 181.85 862.308 181.921 862.734 181.921C863.254 181.921 863.662 181.85 863.959 181.707C864.262 181.565 864.414 181.349 864.414 181.058C864.414 180.872 864.346 180.718 864.209 180.594C864.073 180.47 863.897 180.362 863.681 180.269C863.47 180.177 863.238 180.093 862.985 180.019C862.731 179.945 862.487 179.861 862.252 179.768C861.875 179.626 861.541 179.475 861.25 179.314C860.965 179.147 860.724 178.955 860.526 178.739C860.335 178.522 860.186 178.272 860.081 177.987C859.982 177.703 859.933 177.365 859.933 176.976C859.933 176.444 860.047 175.986 860.276 175.603C860.511 175.219 860.82 174.907 861.204 174.666C861.593 174.418 862.035 174.239 862.53 174.128C863.031 174.01 863.551 173.951 864.089 173.951C864.509 173.951 864.936 173.985 865.369 174.053C865.802 174.115 866.229 174.208 866.649 174.332V176.595C866.278 176.379 865.879 176.218 865.453 176.113C865.032 176.002 864.618 175.946 864.209 175.946C864.018 175.946 863.835 175.965 863.662 176.002C863.495 176.033 863.347 176.082 863.217 176.15C863.087 176.212 862.985 176.295 862.911 176.401C862.836 176.5 862.799 176.614 862.799 176.744C862.799 176.917 862.855 177.066 862.966 177.189C863.078 177.313 863.223 177.421 863.402 177.514C863.582 177.601 863.78 177.681 863.996 177.755C864.219 177.823 864.438 177.894 864.655 177.969C865.044 178.105 865.397 178.253 865.712 178.414C866.028 178.575 866.297 178.763 866.52 178.98C866.748 179.196 866.922 179.45 867.039 179.74C867.163 180.031 867.225 180.378 867.225 180.78C867.225 181.342 867.101 181.825 866.854 182.227C866.612 182.623 866.288 182.947 865.879 183.201C865.477 183.448 865.01 183.628 864.479 183.739C863.953 183.857 863.405 183.915 862.836 183.915C861.791 183.915 860.823 183.754 859.933 183.433Z" fill="#1E1C1C"/>
<rect x="1017" y="176.028" width="127.319" height="126.557" rx="18" transform="rotate(-45 1017 176.028)" fill="#FCA390"/>
<path d="M1066.13 170.527C1065.16 170.997 1063.89 171.232 1062.33 171.232C1060.29 171.232 1058.68 170.632 1057.51 169.432C1056.35 168.232 1055.76 166.633 1055.76 164.636C1055.76 162.508 1056.42 160.783 1057.73 159.459C1059.05 158.135 1060.75 157.474 1062.85 157.474C1064.15 157.474 1065.24 157.638 1066.13 157.965V160.851C1065.24 160.319 1064.23 160.053 1063.09 160.053C1061.84 160.053 1060.83 160.445 1060.07 161.231C1059.3 162.016 1058.92 163.08 1058.92 164.422C1058.92 165.709 1059.28 166.736 1060 167.502C1060.72 168.263 1061.7 168.644 1062.92 168.644C1064.09 168.644 1065.16 168.359 1066.13 167.79V170.527ZM1072.69 171.232C1071.11 171.232 1069.86 170.79 1068.95 169.905C1068.05 169.015 1067.6 167.809 1067.6 166.287C1067.6 164.716 1068.07 163.488 1069.01 162.604C1069.95 161.713 1071.22 161.268 1072.82 161.268C1074.4 161.268 1075.64 161.713 1076.53 162.604C1077.43 163.488 1077.88 164.66 1077.88 166.12C1077.88 167.697 1077.41 168.944 1076.49 169.859C1075.57 170.774 1074.3 171.232 1072.69 171.232ZM1072.77 163.513C1072.07 163.513 1071.54 163.751 1071.15 164.228C1070.77 164.704 1070.58 165.378 1070.58 166.25C1070.58 168.075 1071.31 168.987 1072.79 168.987C1074.19 168.987 1074.89 168.05 1074.89 166.176C1074.89 164.401 1074.18 163.513 1072.77 163.513ZM1088.81 171H1085.88V169.553H1085.84C1085.11 170.672 1084.15 171.232 1082.93 171.232C1080.73 171.232 1079.63 169.899 1079.63 167.233V161.5H1082.55V166.974C1082.55 168.316 1083.09 168.987 1084.15 168.987C1084.68 168.987 1085.1 168.804 1085.41 168.439C1085.73 168.068 1085.88 167.567 1085.88 166.937V161.5H1088.81V171ZM1100.46 171H1097.54V165.721C1097.54 164.249 1097.01 163.513 1095.96 163.513C1095.45 163.513 1095.04 163.708 1094.71 164.098C1094.38 164.487 1094.22 164.982 1094.22 165.582V171H1091.28V161.5H1094.22V163.003H1094.25C1094.95 161.846 1095.97 161.268 1097.31 161.268C1099.41 161.268 1100.46 162.573 1100.46 165.183V171ZM1108.53 170.889C1108.1 171.118 1107.45 171.232 1106.57 171.232C1104.51 171.232 1103.47 170.159 1103.47 168.013V163.662H1101.93V161.5H1103.47V159.45L1106.4 158.615V161.5H1108.53V163.662H1106.4V167.502C1106.4 168.492 1106.79 168.987 1107.58 168.987C1107.88 168.987 1108.2 168.897 1108.53 168.718V170.889ZM1119.41 171H1116.48V169.692H1116.44C1115.78 170.719 1114.8 171.232 1113.5 171.232C1112.32 171.232 1111.36 170.814 1110.64 169.979C1109.91 169.138 1109.55 167.966 1109.55 166.463C1109.55 164.892 1109.95 163.634 1110.75 162.688C1111.55 161.741 1112.59 161.268 1113.88 161.268C1115.11 161.268 1115.96 161.707 1116.44 162.585H1116.48V156.936H1119.41V171ZM1116.54 166.38V165.666C1116.54 165.047 1116.36 164.534 1116 164.125C1115.64 163.717 1115.17 163.513 1114.6 163.513C1113.95 163.513 1113.44 163.77 1113.08 164.283C1112.71 164.79 1112.53 165.489 1112.53 166.38C1112.53 167.215 1112.71 167.858 1113.06 168.31C1113.41 168.761 1113.9 168.987 1114.52 168.987C1115.12 168.987 1115.6 168.749 1115.97 168.272C1116.35 167.796 1116.54 167.165 1116.54 166.38ZM1126.41 171.232C1124.82 171.232 1123.58 170.79 1122.67 169.905C1121.77 169.015 1121.31 167.809 1121.31 166.287C1121.31 164.716 1121.78 163.488 1122.73 162.604C1123.67 161.713 1124.94 161.268 1126.54 161.268C1128.12 161.268 1129.35 161.713 1130.25 162.604C1131.15 163.488 1131.59 164.66 1131.59 166.12C1131.59 167.697 1131.13 168.944 1130.2 169.859C1129.28 170.774 1128.02 171.232 1126.41 171.232ZM1126.48 163.513C1125.79 163.513 1125.25 163.751 1124.87 164.228C1124.48 164.704 1124.29 165.378 1124.29 166.25C1124.29 168.075 1125.03 168.987 1126.5 168.987C1127.9 168.987 1128.61 168.05 1128.61 166.176C1128.61 164.401 1127.9 163.513 1126.48 163.513ZM1147.25 161.5L1144.52 171H1141.44L1140.04 165.434C1139.94 165.062 1139.89 164.657 1139.88 164.218H1139.82C1139.78 164.701 1139.72 165.093 1139.64 165.396L1138.13 171H1135.09L1132.41 161.5H1135.4L1136.71 167.697C1136.77 167.988 1136.81 168.34 1136.85 168.755H1136.9C1136.93 168.322 1136.99 167.957 1137.07 167.66L1138.7 161.5H1141.49L1142.96 167.697C1143 167.852 1143.04 168.211 1143.09 168.773H1143.15C1143.18 168.415 1143.23 168.056 1143.3 167.697L1144.54 161.5H1147.25ZM1157.83 171H1154.91V165.721C1154.91 164.249 1154.38 163.513 1153.33 163.513C1152.82 163.513 1152.41 163.708 1152.08 164.098C1151.75 164.487 1151.59 164.982 1151.59 165.582V171H1148.66V161.5H1151.59V163.003H1151.62C1152.32 161.846 1153.34 161.268 1154.68 161.268C1156.78 161.268 1157.83 162.573 1157.83 165.183V171ZM1075.02 185.136H1070.33V188.402H1074.64V190.833H1070.33V196H1067.33V182.696H1075.02V185.136ZM1078.42 184.997C1077.92 184.997 1077.52 184.852 1077.2 184.561C1076.89 184.264 1076.73 183.902 1076.73 183.476C1076.73 183.036 1076.89 182.678 1077.2 182.399C1077.52 182.121 1077.92 181.982 1078.42 181.982C1078.92 181.982 1079.32 182.121 1079.63 182.399C1079.95 182.678 1080.1 183.036 1080.1 183.476C1080.1 183.921 1079.95 184.286 1079.63 184.57C1079.32 184.855 1078.92 184.997 1078.42 184.997ZM1079.86 196H1076.93V186.5H1079.86V196ZM1091.51 196H1088.58V190.721C1088.58 189.249 1088.06 188.513 1087.01 188.513C1086.5 188.513 1086.08 188.708 1085.75 189.098C1085.43 189.487 1085.26 189.982 1085.26 190.582V196H1082.33V186.5H1085.26V188.003H1085.3C1086 186.846 1087.02 186.268 1088.35 186.268C1090.46 186.268 1091.51 187.573 1091.51 190.183V196ZM1095.32 184.997C1094.83 184.997 1094.42 184.852 1094.1 184.561C1093.79 184.264 1093.63 183.902 1093.63 183.476C1093.63 183.036 1093.79 182.678 1094.1 182.399C1094.42 182.121 1094.83 181.982 1095.32 181.982C1095.82 181.982 1096.23 182.121 1096.54 182.399C1096.85 182.678 1097.01 183.036 1097.01 183.476C1097.01 183.921 1096.85 184.286 1096.54 184.57C1096.23 184.855 1095.82 184.997 1095.32 184.997ZM1096.77 196H1093.84V186.5H1096.77V196ZM1098.61 195.75V193.375C1099.1 193.665 1099.58 193.882 1100.05 194.024C1100.53 194.166 1100.99 194.237 1101.42 194.237C1101.93 194.237 1102.34 194.166 1102.64 194.024C1102.94 193.882 1103.09 193.665 1103.09 193.375C1103.09 193.189 1103.03 193.034 1102.89 192.911C1102.75 192.787 1102.58 192.679 1102.36 192.586C1102.15 192.493 1101.92 192.41 1101.67 192.335C1101.41 192.261 1101.17 192.178 1100.93 192.085C1100.56 191.943 1100.22 191.791 1099.93 191.63C1099.65 191.463 1099.4 191.272 1099.21 191.055C1099.02 190.839 1098.87 190.588 1098.76 190.304C1098.66 190.019 1098.61 189.682 1098.61 189.292C1098.61 188.761 1098.73 188.303 1098.96 187.919C1099.19 187.536 1099.5 187.224 1099.88 186.982C1100.27 186.735 1100.72 186.556 1101.21 186.444C1101.71 186.327 1102.23 186.268 1102.77 186.268C1103.19 186.268 1103.62 186.302 1104.05 186.37C1104.48 186.432 1104.91 186.525 1105.33 186.648V188.912C1104.96 188.696 1104.56 188.535 1104.13 188.43C1103.71 188.318 1103.3 188.263 1102.89 188.263C1102.7 188.263 1102.52 188.281 1102.34 188.318C1102.18 188.349 1102.03 188.399 1101.9 188.467C1101.77 188.529 1101.67 188.612 1101.59 188.717C1101.52 188.816 1101.48 188.931 1101.48 189.061C1101.48 189.234 1101.54 189.382 1101.65 189.506C1101.76 189.63 1101.9 189.738 1102.08 189.831C1102.26 189.917 1102.46 189.998 1102.68 190.072C1102.9 190.14 1103.12 190.211 1103.34 190.285C1103.73 190.421 1104.08 190.57 1104.39 190.73C1104.71 190.891 1104.98 191.08 1105.2 191.296C1105.43 191.513 1105.6 191.766 1105.72 192.057C1105.84 192.348 1105.91 192.694 1105.91 193.096C1105.91 193.659 1105.78 194.141 1105.53 194.543C1105.29 194.939 1104.97 195.264 1104.56 195.518C1104.16 195.765 1103.69 195.944 1103.16 196.056C1102.63 196.173 1102.09 196.232 1101.52 196.232C1100.47 196.232 1099.5 196.071 1098.61 195.75ZM1116.72 196H1113.8V190.601C1113.8 189.209 1113.29 188.513 1112.28 188.513C1111.76 188.513 1111.34 188.708 1111.02 189.098C1110.7 189.487 1110.53 189.982 1110.53 190.582V196H1107.6V181.936H1110.53V187.91H1110.57C1111.29 186.815 1112.26 186.268 1113.49 186.268C1115.65 186.268 1116.72 187.567 1116.72 190.165V196ZM1127.59 192.085H1121.39C1121.49 193.464 1122.36 194.154 1124 194.154C1125.04 194.154 1125.96 193.906 1126.75 193.412V195.527C1125.87 195.997 1124.73 196.232 1123.33 196.232C1121.79 196.232 1120.6 195.808 1119.76 194.961C1118.91 194.107 1118.49 192.92 1118.49 191.398C1118.49 189.821 1118.94 188.572 1119.86 187.65C1120.77 186.729 1121.9 186.268 1123.24 186.268C1124.62 186.268 1125.69 186.679 1126.45 187.502C1127.21 188.325 1127.59 189.441 1127.59 190.851V192.085ZM1124.87 190.285C1124.87 188.924 1124.32 188.244 1123.22 188.244C1122.75 188.244 1122.34 188.439 1121.99 188.829C1121.65 189.218 1121.44 189.704 1121.37 190.285H1124.87ZM1138.63 196H1135.69V194.692H1135.66C1134.99 195.719 1134.01 196.232 1132.72 196.232C1131.53 196.232 1130.57 195.814 1129.85 194.979C1129.13 194.138 1128.76 192.966 1128.76 191.463C1128.76 189.892 1129.16 188.634 1129.96 187.688C1130.76 186.741 1131.8 186.268 1133.1 186.268C1134.32 186.268 1135.18 186.707 1135.66 187.585H1135.69V181.936H1138.63V196ZM1135.75 191.38V190.666C1135.75 190.047 1135.57 189.534 1135.21 189.125C1134.85 188.717 1134.39 188.513 1133.81 188.513C1133.16 188.513 1132.65 188.77 1132.29 189.283C1131.93 189.79 1131.74 190.489 1131.74 191.38C1131.74 192.215 1131.92 192.858 1132.27 193.31C1132.62 193.761 1133.11 193.987 1133.74 193.987C1134.33 193.987 1134.81 193.749 1135.18 193.272C1135.56 192.796 1135.75 192.165 1135.75 191.38ZM1142.3 192.15C1142.24 191.989 1142.19 191.81 1142.15 191.612C1142.12 191.408 1142.11 191.216 1142.11 191.037C1142.11 190.752 1142.13 190.492 1142.19 190.257C1142.24 190.022 1142.33 189.803 1142.44 189.599C1142.55 189.388 1142.69 189.19 1142.86 189.005C1143.02 188.813 1143.22 188.625 1143.44 188.439C1143.68 188.241 1143.88 188.059 1144.05 187.892C1144.23 187.718 1144.38 187.548 1144.51 187.381C1144.63 187.208 1144.72 187.032 1144.79 186.853C1144.85 186.667 1144.88 186.463 1144.88 186.24C1144.88 186.049 1144.85 185.872 1144.78 185.711C1144.71 185.544 1144.61 185.402 1144.48 185.285C1144.36 185.167 1144.2 185.074 1144.02 185.006C1143.84 184.938 1143.64 184.904 1143.41 184.904C1142.93 184.904 1142.43 185.006 1141.91 185.21C1141.39 185.408 1140.9 185.711 1140.44 186.12V183.327C1140.91 183.043 1141.43 182.829 1141.99 182.687C1142.56 182.545 1143.14 182.474 1143.74 182.474C1144.31 182.474 1144.85 182.539 1145.34 182.668C1145.84 182.792 1146.27 182.99 1146.63 183.262C1147 183.534 1147.29 183.884 1147.5 184.311C1147.71 184.731 1147.81 185.238 1147.81 185.832C1147.81 186.209 1147.77 186.553 1147.68 186.862C1147.59 187.165 1147.47 187.452 1147.3 187.725C1147.13 187.997 1146.93 188.26 1146.68 188.513C1146.43 188.761 1146.15 189.017 1145.83 189.283C1145.61 189.463 1145.42 189.63 1145.25 189.784C1145.09 189.939 1144.95 190.093 1144.84 190.248C1144.74 190.396 1144.66 190.557 1144.6 190.73C1144.55 190.897 1144.52 191.089 1144.52 191.306C1144.52 191.454 1144.54 191.606 1144.57 191.76C1144.62 191.915 1144.67 192.045 1144.74 192.15H1142.3ZM1143.65 196.213C1143.16 196.213 1142.75 196.065 1142.42 195.768C1142.09 195.459 1141.93 195.094 1141.93 194.673C1141.93 194.24 1142.09 193.879 1142.42 193.588C1142.75 193.297 1143.16 193.152 1143.65 193.152C1144.14 193.152 1144.55 193.297 1144.87 193.588C1145.19 193.872 1145.35 194.234 1145.35 194.673C1145.35 195.119 1145.19 195.487 1144.88 195.777C1144.56 196.068 1144.15 196.213 1143.65 196.213Z" fill="#1E1C1C"/>
<circle cx="1188.5" cy="176.5" r="4.5" transform="rotate(-90 1188.5 176.5)" fill="#FFFBEB" stroke="black"/>
<circle cx="1025.5" cy="176.5" r="4.5" transform="rotate(-90 1025.5 176.5)" fill="#FFFBEB" stroke="black"/>
<circle cx="701" cy="176" r="4.5" fill="#FFFBEB" stroke="black"/>
<line x1="641" y1="414" x2="641" y2="632" stroke="black" stroke-width="2"/>
<line x1="641" y1="245" x2="641" y2="414" stroke="black" stroke-width="2"/>
<line x1="808" y1="523" x2="1107" y2="523" stroke="black" stroke-width="2"/>
<line x1="322" y1="61" x2="1210" y2="61.0001" stroke="black" stroke-width="2"/>
<line x1="479" y1="245" x2="642" y2="245" stroke="black" stroke-width="2"/>
<line x1="322" y1="306" x2="480" y2="306" stroke="black" stroke-width="2"/>
<rect x="949" y="511.308" width="55" height="25.3846" fill="#FFFBEB"/>
<path d="M974.925 529.949L968.67 521.46C968.543 521.289 968.43 521.118 968.333 520.947L968.237 520.801H968.208C968.218 520.928 968.223 521.082 968.223 521.262V529.949H967.498V519.446H968.054L974.265 527.861C974.402 528.047 974.551 528.271 974.712 528.535H974.749C974.724 528.193 974.712 527.9 974.712 527.656V519.446H975.437V529.949H974.925ZM982.454 530.132C980.969 530.132 979.785 529.639 978.902 528.652C978.023 527.666 977.583 526.384 977.583 524.807C977.583 523.132 978.035 521.792 978.938 520.786C979.846 519.775 981.084 519.27 982.652 519.27C984.068 519.27 985.213 519.756 986.087 520.728C986.966 521.694 987.405 522.964 987.405 524.536C987.405 526.274 986.956 527.642 986.057 528.638C985.159 529.634 983.958 530.132 982.454 530.132ZM982.527 519.929C981.306 519.929 980.3 520.371 979.509 521.255C978.723 522.139 978.33 523.296 978.33 524.727C978.33 526.172 978.704 527.324 979.451 528.184C980.198 529.038 981.194 529.465 982.439 529.465C983.738 529.465 984.766 529.043 985.523 528.198C986.279 527.349 986.658 526.167 986.658 524.653C986.658 523.169 986.287 522.012 985.545 521.182C984.807 520.347 983.801 519.929 982.527 519.929Z" fill="black"/>
<rect x="949" y="52" width="55" height="20" fill="#FFFBEB"/>
<path d="M974.925 68.4445L968.67 59.9557C968.543 59.7848 968.43 59.6139 968.333 59.443L968.238 59.2965H968.208C968.218 59.4235 968.223 59.5773 968.223 59.7579V68.4445H967.498V57.9415H968.054L974.265 66.3571C974.402 66.5426 974.551 66.7672 974.712 67.0309H974.749C974.724 66.6891 974.712 66.3961 974.712 66.152V57.9415H975.437V68.4445H974.925ZM982.454 68.6276C980.969 68.6276 979.785 68.1344 978.902 67.1481C978.023 66.1617 977.583 64.88 977.583 63.3029C977.583 61.6281 978.035 60.2877 978.938 59.2819C979.846 58.2711 981.084 57.7657 982.652 57.7657C984.068 57.7657 985.213 58.2516 986.087 59.2233C986.966 60.1901 987.405 61.4596 987.405 63.0319C987.405 64.7701 986.956 66.1373 986.057 67.1334C985.159 68.1295 983.958 68.6276 982.454 68.6276ZM982.527 58.4249C981.306 58.4249 980.3 58.8668 979.509 59.7506C978.723 60.6344 978.33 61.7916 978.33 63.2223C978.33 64.6676 978.704 65.8199 979.451 66.6793C980.198 67.5338 981.194 67.9611 982.439 67.9611C983.738 67.9611 984.766 67.5387 985.523 66.694C986.28 65.8444 986.658 64.6627 986.658 63.149C986.658 61.6647 986.287 60.5074 985.545 59.6774C984.807 58.8424 983.801 58.4249 982.527 58.4249Z" fill="black"/>
<rect x="949" y="167" width="55" height="18" fill="#FFFBEB"/>
<path d="M970.057 178.008V182H969.339V178.023L966.124 171.497H966.937L969.383 176.558C969.471 176.734 969.581 176.993 969.712 177.334H969.742C969.81 177.154 969.93 176.9 970.101 176.573L972.664 171.497H973.448L970.057 178.008ZM975.125 182V171.497H980.032V172.164H975.85V176.375H979.732V177.034H975.85V181.341H980.274V182H975.125ZM982.295 181.626V180.799C983.047 181.277 983.809 181.517 984.581 181.517C985.401 181.517 986.024 181.348 986.448 181.011C986.873 180.669 987.086 180.193 987.086 179.583C987.086 179.046 986.941 178.619 986.653 178.301C986.37 177.979 985.753 177.542 984.8 176.99C983.736 176.37 983.062 175.853 982.779 175.438C982.496 175.018 982.354 174.534 982.354 173.987C982.354 173.245 982.642 172.615 983.218 172.098C983.795 171.58 984.564 171.321 985.525 171.321C986.15 171.321 986.775 171.426 987.4 171.636V172.398C986.785 172.12 986.128 171.98 985.43 171.98C984.717 171.98 984.151 172.161 983.731 172.522C983.316 172.884 983.108 173.343 983.108 173.899C983.108 174.437 983.25 174.864 983.533 175.181C983.821 175.499 984.439 175.931 985.386 176.478C986.368 177.034 987.02 177.53 987.342 177.964C987.669 178.394 987.833 178.89 987.833 179.451C987.833 180.257 987.552 180.914 986.99 181.421C986.434 181.929 985.645 182.183 984.625 182.183C984.263 182.183 983.846 182.127 983.372 182.015C982.903 181.902 982.545 181.773 982.295 181.626Z" fill="black"/>
<rect x="1079" y="284" width="55" height="30" fill="#FFFBEB"/>
<path d="M1100.06 301.675V305.667H1099.34V301.69L1096.12 295.164H1096.94L1099.38 300.225C1099.47 300.401 1099.58 300.659 1099.71 301.001H1099.74C1099.81 300.82 1099.93 300.567 1100.1 300.239L1102.66 295.164H1103.45L1100.06 301.675ZM1105.13 305.667V295.164H1110.03V295.83H1105.85V300.042H1109.73V300.701H1105.85V305.007H1110.27V305.667H1105.13ZM1112.3 305.293V304.465C1113.05 304.944 1113.81 305.183 1114.58 305.183C1115.4 305.183 1116.02 305.015 1116.45 304.678C1116.87 304.336 1117.09 303.86 1117.09 303.25C1117.09 302.713 1116.94 302.285 1116.65 301.968C1116.37 301.646 1115.75 301.209 1114.8 300.657C1113.74 300.037 1113.06 299.519 1112.78 299.104C1112.5 298.684 1112.35 298.201 1112.35 297.654C1112.35 296.912 1112.64 296.282 1113.22 295.764C1113.79 295.247 1114.56 294.988 1115.53 294.988C1116.15 294.988 1116.78 295.093 1117.4 295.303V296.065C1116.79 295.786 1116.13 295.647 1115.43 295.647C1114.72 295.647 1114.15 295.828 1113.73 296.189C1113.32 296.55 1113.11 297.009 1113.11 297.566C1113.11 298.103 1113.25 298.53 1113.53 298.848C1113.82 299.165 1114.44 299.597 1115.39 300.144C1116.37 300.701 1117.02 301.196 1117.34 301.631C1117.67 302.061 1117.83 302.556 1117.83 303.118C1117.83 303.923 1117.55 304.58 1116.99 305.088C1116.43 305.596 1115.65 305.85 1114.62 305.85C1114.26 305.85 1113.85 305.794 1113.37 305.681C1112.9 305.569 1112.54 305.44 1112.3 305.293Z" fill="black"/>
<path d="M91.6586 625.877L68 625.346V600.132L91.6586 596.781V625.877Z" fill="#83E7FD"/>
<path d="M110.111 626.292L94.7755 625.944V596.349L110.111 594.176C119.76 592.816 128.299 599.468 128.299 609.156C128.299 618.844 119.744 626.524 110.111 626.292Z" fill="#83E7FD"/>
<path d="M91.6586 657.877L68 653.066V627.851L91.6586 628.78V657.877Z" fill="#83E7FD"/>
<path d="M110.111 661.626L94.7755 658.507V628.896L110.111 629.494C119.76 629.875 128.299 638.07 128.299 647.758C128.299 657.462 119.744 663.583 110.111 661.626Z" fill="#83E7FD"/>
<path d="M147.663 648.654V608.94H158.954C162.386 608.94 165.105 609.786 167.127 611.462C169.133 613.137 170.145 615.327 170.145 618.031C170.145 620.287 169.531 622.245 168.321 623.903C167.111 625.562 165.42 626.74 163.281 627.453V627.57C165.95 627.885 168.105 628.897 169.697 630.605C171.305 632.314 172.101 634.537 172.101 637.274C172.101 640.675 170.891 643.428 168.454 645.535C166.016 647.642 162.949 648.687 159.236 648.687H147.663V648.654ZM152.305 613.137V625.96H157.064C159.617 625.96 161.606 625.347 163.065 624.119C164.524 622.892 165.254 621.166 165.254 618.927C165.254 615.062 162.717 613.137 157.644 613.137H152.305V613.137ZM152.305 630.157V644.457H158.622C161.358 644.457 163.463 643.81 164.972 642.516C166.481 641.222 167.227 639.447 167.227 637.191C167.227 632.496 164.027 630.157 157.644 630.157H152.305V630.157Z" fill="#83E7FD"/>
<path d="M181.883 613.087C181.07 613.087 180.374 612.805 179.81 612.258C179.23 611.711 178.948 610.997 178.948 610.151C178.948 609.305 179.23 608.592 179.81 608.028C180.374 607.464 181.07 607.182 181.883 607.182C182.712 607.182 183.425 607.464 184.005 608.028C184.585 608.592 184.884 609.305 184.884 610.151C184.884 610.964 184.585 611.661 184.005 612.225C183.408 612.805 182.712 613.087 181.883 613.087ZM184.088 648.654H179.545V620.287H184.088V648.654Z" fill="#83E7FD"/>
<path d="M216.815 648.654H212.273V632.48C212.273 626.458 210.084 623.456 205.691 623.456C203.419 623.456 201.546 624.318 200.054 626.01C198.562 627.719 197.832 629.875 197.832 632.48V648.654H193.289V620.287H197.815V624.998H197.931C200.07 621.415 203.171 619.624 207.232 619.624C210.333 619.624 212.704 620.619 214.345 622.626C215.986 624.633 216.815 627.52 216.815 631.302V648.654Z" fill="#83E7FD"/>
<path d="M249.559 648.654H245.016V643.826H244.9C242.795 647.476 239.545 649.317 235.152 649.317C231.587 649.317 228.736 648.04 226.614 645.502C224.475 642.964 223.414 639.497 223.414 635.134C223.414 630.439 224.591 626.69 226.962 623.854C229.316 621.034 232.466 619.623 236.395 619.623C240.291 619.623 243.126 621.15 244.9 624.219H245.016V606.668H249.559V648.654ZM245.016 635.831V631.65C245.016 629.361 244.254 627.42 242.745 625.828C241.236 624.235 239.313 623.439 236.992 623.439C234.223 623.439 232.052 624.451 230.46 626.491C228.868 628.515 228.073 631.335 228.073 634.918C228.073 638.186 228.835 640.774 230.36 642.665C231.886 644.556 233.925 645.502 236.495 645.502C239.015 645.502 241.071 644.589 242.662 642.765C244.254 640.94 245.016 638.618 245.016 635.831Z" fill="#83E7FD"/>
</svg>
