<svg xmlns="http://www.w3.org/2000/svg" viewBox="0 0 3030.17 1839.09">
  <g id="Layer_2" data-name="Layer 2">
    <g id="Layer_1-2" data-name="Layer 1">
      <rect width="3030.17" height="1839.09" style="fill: #fffbeb"/>
      <g>
        <polygon points="1475.91 906.83 1333.24 903.6 1333.24 751.64 1475.91 731.43 1475.91 906.83" style="fill: #83e7fd"/>
        <path d="M1587.2,909.35l-92.51-2.1V728.77l92.51-13.1c58.18-8.24,109.73,31.85,109.73,90.31h0C1696.93,864.44,1645.38,910.66,1587.2,909.35Z" style="fill: #83e7fd"/>
        <polygon points="1475.91 1099.67 1333.24 1070.68 1333.24 918.72 1475.91 924.27 1475.91 1099.67" style="fill: #83e7fd"/>
        <path d="M1587.2,1122.28l-92.51-18.79V925l92.51,3.61c58.18,2.27,109.73,51.66,109.73,110.12h0C1696.93,1097.19,1645.38,1134.11,1587.2,1122.28Z" style="fill: #83e7fd"/>
      </g>
    </g>
  </g>
</svg>
