<svg width="240" height="234" viewBox="0 0 240 234" fill="none" xmlns="http://www.w3.org/2000/svg">
<path d="M42.5 1.88608e-05H197.5C203.083 -0.00524284 208.612 1.09046 213.77 3.22442C218.929 5.35838 223.616 8.48871 227.564 12.4362C231.511 16.3838 234.642 21.071 236.776 26.2297C238.91 31.3885 240.005 36.9174 240 42.5V191.5C240.005 197.083 238.91 202.612 236.776 207.77C234.642 212.929 231.511 217.616 227.564 221.564C223.616 225.511 218.929 228.642 213.77 230.776C208.612 232.91 203.083 234.005 197.5 234H42.5C36.9174 234.005 31.3885 232.91 26.2297 230.776C21.071 228.642 16.3838 225.511 12.4362 221.564C8.48871 217.616 5.35838 212.929 3.22442 207.77C1.09046 202.612 -0.00524284 197.083 1.88608e-05 191.5V42.5C-0.00524284 36.9174 1.09046 31.3885 3.22442 26.2297C5.35838 21.071 8.48871 16.3838 12.4362 12.4362C16.3838 8.48871 21.071 5.35838 26.2297 3.22442C31.3885 1.09046 36.9174 -0.00524284 42.5 1.88608e-05V1.88608e-05Z" fill="#2C2C32"/>
<path d="M58.2613 98.1209C58.2613 98.1209 55.1923 95.9171 58.8752 92.9743L67.4557 85.3309C67.4557 85.3309 69.9109 82.7577 72.5068 84.9997L151.688 144.72V173.357C151.688 173.357 151.65 177.854 145.857 177.358L58.2613 98.1209Z" fill="#2489CA"/>
<path d="M78.6708 116.58L58.2617 135.064C58.2617 135.064 56.1645 136.618 58.2617 139.395L67.7374 147.981C67.7374 147.981 69.988 150.389 73.3128 147.65L94.9496 131.306L78.6708 116.58Z" fill="#1070B3"/>
<path d="M114.502 116.733L151.931 88.2609L151.688 59.7765C151.688 59.7765 150.09 53.5599 144.757 56.7956L94.9492 101.955L114.502 116.733Z" fill="#0877B9"/>
<path d="M145.857 177.396C148.031 179.612 150.665 178.886 150.665 178.886L179.834 164.568C183.568 162.033 183.044 158.886 183.044 158.886V73.3818C183.044 69.6238 179.182 68.3244 179.182 68.3244L153.901 56.1841C148.376 52.7828 144.757 56.7956 144.757 56.7956C144.757 56.7956 149.412 53.458 151.688 59.7765V172.835C151.688 173.612 151.522 174.377 151.19 175.065C150.525 176.402 149.08 177.651 145.614 177.128L145.857 177.396Z" fill="#3C99D4"/>
</svg>
