<svg xmlns="http://www.w3.org/2000/svg" viewBox="0 0 3030.17 1839.09">
  <g id="Layer_2" data-name="Layer 2">
    <g id="Layer_1-2" data-name="Layer 1">
      <rect width="3030.17" height="1839.09" style="fill: #9dc3e2"/>
      <g>
        <path d="M1484.91,1167.46l-8.32,0c-17.07-.07-33.45-.58-48.68-1.52-21-1.29-34.76-3.82-45.73-8.46-17.85-7.44-30-22.92-36.11-46-2.55-9.63-4.56-22-6.13-37.67-2.68-26.83-4.47-57.23-5.31-90.34-.83-32.62-.89-64.58-.2-95,1-43.23,3-59,4.74-68l0-.11a64.11,64.11,0,0,1,16.14-31.65c-9.35-28-9.26-55.31.62-77.12,8.83-19.51,24.7-33.37,44.68-39A71.26,71.26,0,0,1,1420,670c26.31,0,53,14.3,74,38.38,21-22.94,47-36.52,72.6-36.52a71.36,71.36,0,0,1,20.58,3c19.8,6,35.4,20,43.93,39.63,10.3,23.69,9.15,53.7-2.94,83.8a135.69,135.69,0,0,1,33.21,54.2c7.73,23.32,9.09,46.56,4.2,68.82a122.05,122.05,0,0,1,23.48,41.52c8.78,26.46,9.77,54.34,3,82.89-7.37,31-23.2,58-47.06,80.21-24.69,23-54.64,36.27-89,39.57-4.52.49-12.46,1.09-32.5,1.57C1511.36,1167.31,1498.38,1167.46,1484.91,1167.46Z" style="fill: #fff"/>
        <path d="M1640,980.67q-8.62-26-35.4-42.2l-.61-.41q20.29-31.65,8.32-67.76t-47.48-51.94c-2.28-1-4.61-1.92-7-2.81a107.6,107.6,0,0,0,18.91-27.13c14.53-29.48,12.44-57.55-4.68-62.7s-42.77,14.57-57.3,44c-6.09,12.35-9.25,24.45-9.62,34.73q-12.8-1-25-1c-.18-10.29-3.17-22.48-9.13-35-14.14-29.62-39.58-49.68-56.83-44.81s-19.75,32.83-5.61,62.44a109.05,109.05,0,0,0,15.57,24,130.4,130.4,0,0,0-14.49,4.69q-18.57,7.3-20.39,16.84-2.85,15-3.86,59.55t.21,92.51q1.21,48,5.07,86.53t11,41.39q7.5,3.26,29,4.57t45.75,1.42q24.24.1,45.44-.41t28.51-1.32q34.69-3.24,59.24-26.07t32.06-54.47Q1648.65,1006.64,1640,980.67ZM1486.34,880.24q1.62-6.29,14.2-6.29,14,.21,20.8,6.69t6.79,14.41q0,12-11.86,19.88t-23,4.26q-5.9-1.83-7.61-16.13T1486.34,880.24ZM1520,1038.39q-24.55,6.79-29.42-4.16-4.87-10.35-4.77-27.9t7-20.79q13.39-6.09,29.42,2.13t18.66,23.23Q1544.57,1031.59,1520,1038.39Z" style="fill: #ffb5cc"/>
      </g>
    </g>
  </g>
</svg>
