<svg width="240" height="234" viewBox="0 0 240 234" fill="none" xmlns="http://www.w3.org/2000/svg">
<path d="M42.5 1.88608e-05H197.5C203.083 -0.00524284 208.612 1.09046 213.77 3.22442C218.929 5.35838 223.616 8.48871 227.564 12.4362C231.511 16.3838 234.642 21.071 236.776 26.2297C238.91 31.3885 240.005 36.9174 240 42.5V191.5C240.005 197.083 238.91 202.612 236.776 207.77C234.642 212.929 231.511 217.616 227.564 221.564C223.616 225.511 218.929 228.642 213.77 230.776C208.612 232.91 203.083 234.005 197.5 234H42.5C36.9174 234.005 31.3885 232.91 26.2297 230.776C21.071 228.642 16.3838 225.511 12.4362 221.564C8.48871 217.616 5.35838 212.929 3.22442 207.77C1.09046 202.612 -0.00524284 197.083 1.88608e-05 191.5V42.5C-0.00524284 36.9174 1.09046 31.3885 3.22442 26.2297C5.35838 21.071 8.48871 16.3838 12.4362 12.4362C16.3838 8.48871 21.071 5.35838 26.2297 3.22442C31.3885 1.09046 36.9174 -0.00524284 42.5 1.88608e-05V1.88608e-05Z" fill="#5CC4FF"/>
<g clip-path="url(#clip0)">
<path d="M120.429 198.168L72.818 185.092L62.208 67.3635H178.792L168.171 185.074L120.429 198.168V198.168Z" fill="#264DE4"/>
<path d="M159.078 177.578L168.154 76.9892H120.5V188.159L159.078 177.578V177.578Z" fill="#2965F1"/>
<path d="M86.5315 120.653L87.8394 135.092H120.5V120.653H86.5315ZM83.9028 91.4286L85.2295 105.867H120.5V91.4286H83.9028V91.4286ZM120.5 158.153L120.436 158.169L104.182 153.827L103.143 142.312H88.4915L90.5361 164.983L120.433 173.193L120.5 173.175V158.153Z" fill="#EBEBEB"/>
<path d="M89.6455 35.3698H107.322V42.683H97.0378V49.9963H107.323V57.3091H89.6455V35.3698ZM110.858 35.3698H128.535V41.7291H118.25V43.0008H128.535V57.6274H110.858V50.9493H121.143V49.6775H110.857L110.858 35.3698ZM132.07 35.3698H149.747V41.7291H139.463V43.0008H149.747V57.6274H132.07V50.9493H142.355V49.6775H132.071L132.07 35.3698Z" fill="black"/>
<path d="M154.375 120.653L157.01 91.4286H120.45V105.867H141.015L139.687 120.653H120.45V135.092H138.422L136.727 153.818L120.449 158.165V173.186L150.37 164.983L150.589 162.543L154.02 124.53L154.375 120.653V120.653Z" fill="white"/>
</g>
<defs>
<clipPath id="clip0">
<rect width="117" height="163.21" fill="white" transform="translate(62 35.3698)"/>
</clipPath>
</defs>
</svg>
