<svg xmlns="http://www.w3.org/2000/svg" viewBox="0 0 399.31 391.82">
  <g id="Layer_2" data-name="Layer 2">
    <g id="Layer_1-2" data-name="Layer 1">
      <g>
        <path d="M397.83,171.54a12.39,12.39,0,0,0-12.27-10.92H338.63a8.35,8.35,0,0,0-8.35,8.35v26.08a10.67,10.67,0,0,0,10.66,10.67h0a10.62,10.62,0,0,1,10.56,12.06,152.78,152.78,0,0,1-63.69,103.43,12.33,12.33,0,0,1-19.39-10.12V80.73a12.34,12.34,0,0,1,19.39-10.12,154.06,154.06,0,0,1,26,23,151.74,151.74,0,0,1,12.92,16.48,12.33,12.33,0,0,0,10.22,5.45h25.42a12.32,12.32,0,0,0,10.74-18.4A199.3,199.3,0,0,0,236.85.21a12.35,12.35,0,0,0-14.64,12.12V379.5a12.35,12.35,0,0,0,14.67,12.11c92.44-17.2,162.43-98.27,162.43-195.7A200.08,200.08,0,0,0,397.83,171.54Z" style="fill: #68c4b8"/>
        <path d="M1.49,171.54a12.38,12.38,0,0,1,12.26-10.92H60.69A8.35,8.35,0,0,1,69,169v26.08a10.67,10.67,0,0,1-10.66,10.67h0a10.63,10.63,0,0,0-10.57,12.06A152.88,152.88,0,0,0,111.5,321.21a12.34,12.34,0,0,0,19.4-10.12V80.73a12.34,12.34,0,0,0-19.4-10.12,154,154,0,0,0-26,23A151.74,151.74,0,0,0,72.6,110.07a12.36,12.36,0,0,1-10.22,5.45H37a12.32,12.32,0,0,1-10.74-18.4A199.34,199.34,0,0,1,162.47.21a12.36,12.36,0,0,1,14.64,12.12V379.5a12.36,12.36,0,0,1-14.68,12.11C70,374.41,0,293.34,0,195.91A200.08,200.08,0,0,1,1.49,171.54Z" style="fill: #68c4b8"/>
      </g>
    </g>
  </g>
</svg>
