<svg width="240" height="234" viewBox="0 0 240 234" fill="none" xmlns="http://www.w3.org/2000/svg">
<path d="M42.5 1.88608e-05H197.5C203.083 -0.00524284 208.612 1.09046 213.77 3.22442C218.929 5.35838 223.616 8.48871 227.564 12.4362C231.511 16.3838 234.642 21.071 236.776 26.2297C238.91 31.3885 240.005 36.9174 240 42.5V191.5C240.005 197.083 238.91 202.612 236.776 207.77C234.642 212.929 231.511 217.616 227.564 221.564C223.616 225.511 218.929 228.642 213.77 230.776C208.612 232.91 203.083 234.005 197.5 234H42.5C36.9174 234.005 31.3885 232.91 26.2297 230.776C21.071 228.642 16.3838 225.511 12.4362 221.564C8.48871 217.616 5.35838 212.929 3.22442 207.77C1.09046 202.612 -0.00524284 197.083 1.88608e-05 191.5V42.5C-0.00524284 36.9174 1.09046 31.3885 3.22442 26.2297C5.35838 21.071 8.48871 16.3838 12.4362 12.4362C16.3838 8.48871 21.071 5.35838 26.2297 3.22442C31.3885 1.09046 36.9174 -0.00524284 42.5 1.88608e-05V1.88608e-05Z" fill="#2F323A"/>
<path d="M119.612 117.032C119.612 103.044 130.968 91.6878 144.956 91.6878C158.944 91.6878 170.3 103.044 170.3 117.032C170.3 131.02 158.944 142.376 144.956 142.376C130.968 142.376 119.612 131.02 119.612 117.032Z" fill="#1ABCFE"/>
<path d="M69 167.644C69 153.656 80.3559 142.3 94.3439 142.3H119.688V167.644C119.688 181.632 108.332 192.988 94.3439 192.988C80.3559 192.988 69 181.632 69 167.644Z" fill="#0ACF83"/>
<path d="M119.612 41.0752V91.6878H144.956C158.944 91.6878 170.3 80.3319 170.3 66.3439C170.3 52.3559 158.944 41 144.956 41H119.612V41.0752Z" fill="#FF7262"/>
<path d="M69 66.4191C69 80.4071 80.3559 91.763 94.3439 91.763H119.688V41.1504H94.3439C80.3559 41.0752 69 52.4311 69 66.4191Z" fill="#F24E1E"/>
<path d="M69 117.032C69 131.02 80.3559 142.376 94.3439 142.376H119.688V91.763H94.3439C80.3559 91.6878 69 103.044 69 117.032Z" fill="#A259FF"/>
</svg>
