<svg width="240" height="234" viewBox="0 0 240 234" fill="none" xmlns="http://www.w3.org/2000/svg">
<path d="M42.5 1.88608e-05H197.5C203.083 -0.00524284 208.612 1.09046 213.77 3.22442C218.929 5.35838 223.616 8.48871 227.564 12.4362C231.511 16.3838 234.642 21.071 236.776 26.2297C238.91 31.3885 240.005 36.9174 240 42.5V191.5C240.005 197.083 238.91 202.612 236.776 207.77C234.642 212.929 231.511 217.616 227.564 221.564C223.616 225.511 218.929 228.642 213.77 230.776C208.612 232.91 203.083 234.005 197.5 234H42.5C36.9174 234.005 31.3885 232.91 26.2297 230.776C21.071 228.642 16.3838 225.511 12.4362 221.564C8.48871 217.616 5.35838 212.929 3.22442 207.77C1.09046 202.612 -0.00524284 197.083 1.88608e-05 191.5V42.5C-0.00524284 36.9174 1.09046 31.3885 3.22442 26.2297C5.35838 21.071 8.48871 16.3838 12.4362 12.4362C16.3838 8.48871 21.071 5.35838 26.2297 3.22442C31.3885 1.09046 36.9174 -0.00524284 42.5 1.88608e-05V1.88608e-05Z" fill="#EFEFE7"/>
<path d="M193.136 110.227L126.768 43.8636C122.949 40.0409 116.749 40.0409 112.925 43.8636L99.1437 57.645L116.626 75.1272C120.689 73.7546 125.347 74.6753 128.586 77.9142C131.84 81.1732 132.754 85.8715 131.348 89.9476L148.196 106.796C152.273 105.392 156.976 106.301 160.232 109.561C164.781 114.11 164.781 121.481 160.232 126.033C155.68 130.585 148.308 130.585 143.755 126.033C140.333 122.607 139.487 117.58 141.22 113.364L125.507 97.6514L125.506 139C126.615 139.551 127.662 140.283 128.586 141.204C133.136 145.752 133.136 153.124 128.586 157.679C124.035 162.228 116.659 162.228 112.114 157.679C107.565 153.124 107.565 145.752 112.114 141.204C113.239 140.081 114.54 139.232 115.927 138.662V96.9275C114.54 96.3605 113.24 95.5166 112.114 94.3858C108.667 90.9433 107.838 85.8848 109.604 81.6518L92.3723 64.4164L46.8653 109.92C43.041 113.746 43.041 119.945 46.8653 123.768L113.234 190.133C117.055 193.956 123.252 193.956 127.078 190.133L193.136 124.077C196.959 120.252 196.959 114.05 193.136 110.227Z" fill="#DE4C36"/>
</svg>
