<svg width="240" height="234" viewBox="0 0 240 234" fill="none" xmlns="http://www.w3.org/2000/svg">
<path d="M42.5 1.88608e-05H197.5C203.083 -0.00524284 208.612 1.09046 213.77 3.22442C218.929 5.35838 223.616 8.48871 227.564 12.4362C231.511 16.3838 234.642 21.071 236.776 26.2297C238.91 31.3885 240.005 36.9174 240 42.5V191.5C240.005 197.083 238.91 202.612 236.776 207.77C234.642 212.929 231.511 217.616 227.564 221.564C223.616 225.511 218.929 228.642 213.77 230.776C208.612 232.91 203.083 234.005 197.5 234H42.5C36.9174 234.005 31.3885 232.91 26.2297 230.776C21.071 228.642 16.3838 225.511 12.4362 221.564C8.48871 217.616 5.35838 212.929 3.22442 207.77C1.09046 202.612 -0.00524284 197.083 1.88608e-05 191.5V42.5C-0.00524284 36.9174 1.09046 31.3885 3.22442 26.2297C5.35838 21.071 8.48871 16.3838 12.4362 12.4362C16.3838 8.48871 21.071 5.35838 26.2297 3.22442C31.3885 1.09046 36.9174 -0.00524284 42.5 1.88608e-05V1.88608e-05Z" fill="#262626"/>
<path d="M103.556 202.629C101.326 202.247 98.9767 201.194 97.6813 200.011C96.8052 199.108 96.2677 197.878 96.2623 196.523C96.2623 195.233 96.9073 193.368 97.9984 191.535C98.5789 190.578 99.0895 189.476 99.4658 188.315L99.498 188.203C99.713 187.391 100.186 186.053 100.552 185.214L101.202 183.693L101.374 173.4C101.465 167.74 101.637 162.462 101.756 161.661C102.175 159.054 102.804 156.737 103.648 154.523L103.567 154.765L104.169 153.265L103.287 152.744C102.465 152.249 101.782 151.54 99.1325 148.385C95.8592 144.515 91.5592 142.391 85.4585 141.65C83.8568 141.483 81.7767 141.338 79.675 141.247L79.4385 141.236C70.4677 140.822 65.3507 138.951 60.7335 134.415C57.2935 131.018 55.4929 127.067 54.7619 121.257C53.7729 113.388 52.6818 109.341 50.6769 106.062C50.1555 105.213 49.5912 104.471 48.9677 103.794L48.9784 103.804L48.1614 102.993L46.3715 104.138C45.3772 104.766 44.0119 105.594 43.34 105.965C40.8568 107.341 38.7552 108.696 36.7557 110.174L36.9169 110.061C31.9289 113.694 26.4625 118.247 23.4633 121.257C22.1142 122.606 21.4047 123.17 21.1198 123.133C19.0558 122.826 20.6468 113.958 23.9578 107.293C28.2202 98.7142 35.3743 90.7861 43.6787 85.4272C50.4888 81.0359 61.486 74.9944 66.5815 72.8659C75.6115 69.0872 87.3075 64.9969 95.3217 62.8092C97.0148 62.3524 98.0522 61.9331 98.7402 61.4494C100.315 60.3529 101.852 59.8369 103.621 59.7992C105.099 59.7777 105.239 59.7294 106.668 58.7941C108.351 57.703 108.834 57.6331 110.522 58.219L111.624 58.6114L112.962 57.703L114.312 56.7946L116.247 56.8376C117.714 56.8645 118.391 56.7892 119.02 56.5097C119.837 56.1496 119.864 56.1066 120.095 54.7521C120.611 51.8442 120.67 50.3822 120.358 48.63C119.945 46.308 119.907 37.278 120.299 35.5204C120.724 33.6122 120.993 33.236 122.412 32.5319C124.54 31.4784 126.131 31.1827 129.808 31.1827C134.28 31.1827 136.543 31.7847 138.22 33.4026C139.741 34.8807 139.999 38.2777 139.203 46.3026C138.746 50.9036 138.687 52.199 138.811 55.2197C138.881 57.1601 139.004 58.9769 139.074 59.2402C139.198 59.7079 139.305 59.7347 140.929 59.7724C142.514 59.7992 142.794 59.8745 144.304 60.67C145.766 61.4279 146.857 62.347 147.072 62.9974C147.115 63.1425 147.357 63.1479 147.819 63.0189C148.663 62.7662 149.432 63.0404 150.034 63.7982C150.399 64.2659 150.63 64.3572 151.49 64.3572C152.635 64.3572 153.038 64.6314 153.99 66.0342C154.436 66.6577 155.033 67.1469 155.726 67.4586L155.753 67.4694C157.328 68.2595 159.445 70.4364 160.268 72.1564C161.52 74.7525 161.789 77.7249 160.993 80.4285C160.709 81.4336 160.709 81.4659 161.294 82.4495C162.541 84.5296 162.993 87.1096 162.493 89.2865L162.197 90.5765L163.041 91.415C167.218 95.5914 166.605 102.385 161.499 108.47C160.956 109.115 160.316 110.131 160.08 110.749C159.075 113.35 157.973 115.178 156.505 116.683L155.043 118.188H153.511C152.006 118.188 149.894 117.688 148.604 117.005C148.067 116.726 148.029 116.731 148.136 117.075C148.497 118.306 149.314 123.31 149.604 126.068C150.055 130.325 149.921 136.517 149.319 139.177C148.851 141.3 148.115 143.182 147.137 144.907L147.19 144.805C146.648 145.708 146.594 145.917 146.717 146.982C146.889 148.535 146.524 151.11 145.895 152.808C145.148 154.792 144.868 155.727 144.707 156.721C144.562 157.597 144.562 157.603 145.18 157.603C146.003 157.603 146.433 158.092 146.433 159.027C146.433 159.457 146.072 161.709 145.632 164.042C144.406 170.551 144.326 171.304 144.315 177.625C144.293 184.139 144.288 184.091 145.777 185.058L149.104 187.224C151.738 189.003 154.748 190.584 157.935 191.82L158.247 191.927C162.928 193.776 163.573 194.249 163.573 195.824C163.573 196.507 163.439 196.776 162.859 197.335C161.053 199.076 157.527 199.463 150.41 198.711C147.088 198.377 143.224 198.179 139.316 198.173H139.305C129.523 198.028 128.077 197.695 126.798 195.249C126.067 193.852 126.196 192.024 127.222 189.03C127.599 188.014 127.996 186.671 128.33 185.305L128.389 185.021C129.055 181.758 128.604 177.904 127.04 173.523L125.712 169.809C124.379 166.025 123.664 159.102 124.449 157.538C124.594 157.253 124.836 157.178 125.497 157.221L126.352 157.291L127.04 155.829C127.577 154.695 128.174 153.937 129.765 152.33L131.807 150.282L131.705 148.976C131.603 147.729 129.964 141.617 129.727 141.628C129.663 141.628 129.206 142.257 128.695 143.026C127.475 144.875 124.739 147.74 123.207 148.772C122.535 149.228 121.976 149.755 121.976 149.933C121.96 150.669 121.304 152.152 120.536 153.195C119.778 154.222 119.724 154.362 119.842 155.275C120.014 156.587 119.606 160.817 119.095 163.015C118.59 164.843 117.961 166.423 117.187 167.923L117.252 167.783C115.317 171.798 113.871 175.367 113.489 177.028C113.247 178.425 113.075 180.086 113.005 181.774V181.855C112.914 183.747 112.721 185.612 112.575 185.988C112.387 186.526 112.382 186.934 112.559 187.751C112.688 188.337 112.774 189.659 112.753 190.691C112.726 192.126 112.839 193.056 113.253 194.733C113.968 197.577 114.129 199.372 113.774 200.436C113.559 201.097 113.317 201.361 112.586 201.726C110.888 202.586 106.142 203.054 103.562 202.608L103.556 202.629ZM110.366 200.35C111.35 200.071 112.172 199.211 112.172 198.463C112.172 198.141 111.887 197.152 111.549 196.27C110.904 194.62 109.727 190.272 109.727 189.546C109.727 189.159 109.754 189.154 110.334 189.46L110.941 189.783L110.925 188.993C110.845 188.208 110.683 187.493 110.447 186.81L110.468 186.875C109.936 185.279 109.866 185.241 106.496 185.053L104.19 184.929L103.368 185.741C102.906 186.198 102.503 186.719 102.175 187.283L102.153 187.321C101.782 188.057 101.637 189.149 101.879 189.401C101.938 189.466 102.487 189.401 103.099 189.256C103.422 189.154 103.803 189.084 104.19 189.052H104.212C104.212 189.089 103.594 189.573 102.836 190.132C99.4658 192.626 98.2994 194.174 98.2994 196.131C98.2994 198.179 100.208 199.77 103.228 200.243C105.308 200.57 109.35 200.63 110.361 200.345L110.366 200.35ZM155.903 197.018C156.742 196.002 156.64 194.975 155.575 193.793C154.973 193.18 154.285 192.653 153.528 192.239L153.485 192.218C152.549 191.723 151.781 191.261 151.039 190.761L151.13 190.82C150.512 190.39 148.534 189.245 146.744 188.24C145.159 187.391 143.922 186.665 142.718 185.897L142.971 186.047L142.471 185.655V177.952C142.471 170.358 142.455 170.261 142.057 170.368C140.101 170.906 136.854 171.148 132.726 171.072L128.292 171.003L128.921 172.567C130.119 175.55 130.743 179.517 130.732 184.075C130.732 185.778 130.63 186.413 130.211 187.601C130.136 187.756 129.921 188.348 129.716 188.944L129.587 189.385C129.507 189.638 129.818 189.815 130.979 190.159C131.802 190.412 133.049 190.67 133.753 190.745L135.027 190.874L134.898 192.169C134.753 193.637 134.919 195.163 135.285 195.652C135.494 195.926 136.354 196.023 140.23 196.211C143.181 196.356 146.379 196.657 148.894 197.028C151.082 197.351 153.431 197.63 154.124 197.636C155.285 197.657 155.414 197.614 155.909 197.018H155.903ZM111.097 183.892C111.205 183.822 111.361 182.301 111.436 180.516C111.656 175.501 111.844 174.781 114.376 169.127C116.435 164.51 117.537 160.204 117.434 157.135L117.375 155.313L116.607 156.071C114.978 157.683 116.096 155.141 118.02 152.867C119.477 151.147 119.977 150.18 120.219 148.659C120.321 148.041 120.557 147.729 121.509 147.009C125.105 144.251 127.722 140.774 129.415 136.522C129.818 135.511 130.834 132.077 131.673 128.884C133.237 122.966 134.075 120.435 134.828 119.333C135.113 118.908 135.22 118.844 135.15 119.123C134.72 120.805 134.575 121.488 134.221 123.686C133.989 125.057 133.576 127.728 133.301 129.62C132.742 133.431 132.183 135.898 131.431 137.817L130.931 139.091L132.286 142.569C133.667 146.132 134.312 148.696 134.452 151.206L134.522 152.582L133.42 152.814C131.947 153.088 130.695 153.905 129.867 155.05L129.856 155.066C128.883 156.426 128.367 157.56 128.614 157.818C128.722 157.925 130.098 158.178 131.662 158.355C134.113 158.64 135.032 158.656 138.246 158.447C139.789 158.377 141.219 158.232 142.622 158.017L142.396 158.043C142.697 157.936 142.993 157.318 143.498 155.727C144.659 152.072 144.879 150.76 144.745 148.202L144.632 145.928L145.218 145.176C146.594 143.429 147.653 140.29 148.083 136.646C148.62 132.157 147.653 122.773 145.825 114.699C144.965 110.878 144.605 108.577 144.605 106.89V105.406L143.224 105.551C138.3 106.094 132.345 105.944 128.69 105.191C126.712 104.788 121.697 103.326 120.59 102.831L119.735 102.45L119.611 103.417C119.536 104.052 119.434 104.6 119.305 105.137L119.326 105.035C119.16 105.643 119.224 105.766 120.267 106.798C121.557 108.088 121.96 108.776 121.96 109.679C121.96 110.217 121.638 110.668 120.074 112.308C118.929 113.512 117.467 114.78 116.349 115.527L114.516 116.758L113.758 119.451C110.936 129.411 110.404 138.435 112.253 144.923L112.71 146.541L111.812 147.654C108.442 151.894 106.464 155.114 106.163 156.899C106.104 157.259 105.819 158.441 105.534 159.527C104.819 162.295 104.26 166.359 104.013 170.75C103.782 175.351 103.519 179.167 103.185 182.967L103.271 181.779L103.148 182.871L104.545 183.301C105.319 183.537 106.502 183.822 107.174 183.924C108.421 184.123 110.748 184.091 111.092 183.865L111.097 183.892ZM138.279 168.498C140.45 168.369 142.444 168.025 142.831 167.708C142.998 167.579 143.191 166.993 143.261 166.418L143.385 165.359L141.665 165.74C140.515 165.977 139.096 166.176 137.661 166.289L137.532 166.299C136.639 166.342 135.591 166.364 134.538 166.364C132.103 166.364 129.7 166.235 127.33 165.988L127.625 166.015C126.534 165.848 126.529 165.859 126.889 167.283C127.152 168.358 127.212 168.385 130.076 168.611C131.985 168.756 134.618 168.724 138.284 168.503L138.279 168.498ZM136.451 163.628C139.289 163.392 142.858 162.784 143.546 162.408C143.767 162.284 143.982 161.876 144.062 161.414L144.32 159.925L144.449 159.215L143.761 159.36C140.66 160.011 138.3 160.204 133.586 160.204C129.007 160.204 128.485 160.161 127.281 159.753C126.846 159.559 126.346 159.436 125.814 159.409H125.803C125.604 159.532 125.588 161.129 125.766 162.241C125.873 162.924 125.981 163.037 126.663 163.23C128.792 163.805 132.366 163.956 136.451 163.633V163.628ZM84.5018 138.376C91.6667 136.328 101.041 130.228 108.705 122.633C111.216 120.139 111.5 119.79 111.839 118.693L112.296 117.269C112.344 117.156 111.893 116.946 111.307 116.801C109.759 116.43 108.603 115.554 108.593 114.737C108.593 114.264 108.308 113.791 107.518 112.91C106.179 111.421 105.846 110.776 105.706 109.346L105.593 108.212L104.045 107.078C103.158 106.433 100.003 104.697 96.6762 103.03C93.5694 101.515 91.1292 100.176 88.7534 98.7465L89.2318 99.0099C86.4368 97.1179 84.5502 94.8819 83.4967 92.2212C83.287 91.6784 83.0452 91.2322 82.9592 91.2322C82.7227 91.2322 76.4393 97.3221 73.741 100.171C67.119 107.174 62.5395 113.248 59.6639 118.876C58.949 120.273 58.1589 121.923 57.9278 122.536L57.4978 123.66L58.0192 125.525C58.304 126.551 58.949 128.196 59.4543 129.18C61.2173 132.647 63.3297 134.748 66.7912 136.452C70.516 138.296 73.8163 138.93 79.331 138.865C82.3142 138.828 83.1634 138.753 84.4964 138.371L84.5018 138.376ZM27.9353 113.845C32.6438 109.674 39.1368 105.1 47.0972 100.359C52.3055 97.2576 72.4188 87.1956 81.6853 83.0569C83.3623 82.3044 84.8834 81.6164 85.0554 81.5142C85.222 81.4229 85.7058 80.2242 86.1358 78.8697C88.1138 72.6401 89.0867 71.4092 92.6449 70.6084C93.0964 70.5062 93.2039 70.3665 93.2039 69.8989C93.2039 69.1087 93.7629 67.2167 94.2413 66.3782C94.6014 65.7332 94.6068 65.6956 94.2789 65.7924C94.0854 65.8569 92.919 66.1955 91.6774 66.5502C74.6225 71.4737 59.7015 78.0151 46.8123 86.2012C33.0523 94.9464 25.1564 105.406 22.8559 117.941L22.6839 118.87L24.3448 117.215C25.2532 116.307 26.8764 114.785 27.9353 113.839V113.845ZM154.619 116.21C155.979 115.506 158.107 112.281 158.897 109.744C159.15 108.803 159.601 107.986 160.209 107.314L160.203 107.32C162.294 105.024 164.009 100.832 164.014 97.9725C164.014 93.5274 161.515 91.8181 157.828 93.7316C157.371 93.9681 156.962 94.124 156.919 94.0756C156.71 93.866 157.758 92.8555 158.999 92.0707C160.671 90.9957 160.983 90.3507 160.983 88.0126C160.983 86.0722 160.488 84.4812 159.37 82.7612C158.87 82.0087 158.666 81.4927 158.747 81.1971L159.263 79.3051C159.951 76.8165 159.698 73.9731 158.634 72.1617C157.005 69.4044 155.006 68.0552 152.227 67.8456L150.614 67.722L151.576 68.7755C154.388 71.85 155.753 75.677 155.215 78.9504C154.936 80.6112 154.662 80.9552 153.044 81.6164L152.114 81.998L152.221 83.2826C152.41 85.395 152.049 86.9215 150.7 89.7702C150.034 91.1892 149.523 92.4631 149.577 92.6029C149.754 93.0812 151.582 94.0004 153.038 94.3497L154.474 94.6937L153.576 94.9786C152.42 95.3602 152.157 95.8816 152.152 97.822C152.152 99.5796 152.404 100.3 153.705 102.235C154.28 103.079 154.672 103.933 154.737 104.444C154.844 105.239 154.807 105.288 154.162 105.524C153.511 105.707 152.748 105.836 151.969 105.879H151.942C149.314 106.046 149.109 106.116 147.943 107.239C146.868 108.266 146.846 108.319 146.846 109.437C146.846 110.98 147.422 114.06 147.792 114.484C148.249 115.006 150.915 116.312 151.947 116.511C152.221 116.581 152.533 116.618 152.856 116.618C153.501 116.618 154.108 116.462 154.64 116.183L154.619 116.194V116.21ZM115.849 114.103C117.563 112.764 118.896 111.421 119.66 110.27C120.127 109.566 120.154 109.432 119.918 108.857C119.547 107.948 116.972 105.632 115.537 104.938C114.666 104.53 113.656 104.229 112.597 104.084L112.543 104.078L110.78 103.837L109.678 102.461C107.426 99.6656 106.168 97.4941 104.362 93.2747C102.814 89.6789 101.433 87.5772 99.2508 85.5186C98.3532 84.6747 97.6974 83.976 97.7727 83.976C97.8587 83.976 98.9283 84.4974 100.159 85.1424C102.223 86.2227 102.46 86.3034 103.39 86.1905C106.722 85.7874 109.646 81.955 110.726 76.5854C111.033 75.0535 111.635 73.5109 112.291 72.5917C112.317 72.5541 113.597 73.4141 115.123 74.5052C118.95 77.2304 119.794 77.6281 121.966 77.7141C123.411 77.7732 124.218 77.655 126.782 77.0422C132.264 75.7092 138.203 75.1664 141.832 75.6609C143.874 75.9404 146.793 76.8272 148.996 77.8539C151.152 78.859 151.571 78.9127 152.27 78.3C152.845 77.8001 152.85 77.7249 152.845 75.849C152.829 73.0809 151.813 70.087 150.265 68.3025C149.475 67.378 147.293 65.8676 145.105 64.712C143.858 64.067 143.095 63.6477 142.331 63.2124L142.761 63.4381C141.746 62.8415 140.547 62.9167 137.37 63.7552C133.678 64.7227 132.699 64.7066 128.464 63.6262C124.89 62.7071 124.653 62.6964 121.138 63.2446C119.267 63.5402 114.559 63.3682 112.984 62.949C111.984 62.6749 111.205 62.4169 110.447 62.1374L110.657 62.2072C109.297 61.6966 106.916 61.6106 104.766 61.9922C100.466 62.7609 97.2137 65.0721 96.0365 68.2272C95.4345 69.8344 95.5152 70.5869 96.3375 71.1029C97.606 71.9037 99.3207 74.1182 99.3207 74.9729C99.3207 75.0427 98.9175 74.6772 98.423 74.1612C97.2352 72.9142 96.1279 72.3606 94.8379 72.3606C93.091 72.3982 91.6022 73.441 90.9088 74.9299L90.898 74.9567C90.5809 75.7469 90.2584 76.7466 89.9897 77.7732L89.9467 77.9667C89.1565 80.8477 88.4685 82.3527 86.9958 84.3576C85.6628 86.169 85.4854 86.9806 85.9477 89.0231C87.1248 94.1777 89.1565 96.2686 97.692 101.106C102.169 103.643 104.486 105.067 106.163 106.331C107.448 107.282 107.48 107.336 107.367 108.072C107.104 109.744 108.168 111.582 110.275 113.055C110.812 113.426 111.151 113.823 111.151 114.081C111.151 114.597 112.554 115.301 113.607 115.301C114.183 115.301 114.645 115.06 115.843 114.114L115.849 114.103ZM150.356 104.686C153.608 104.777 153.791 104.551 152.039 102.53C150.217 100.418 149.722 98.7196 150.389 96.8384L150.652 96.1074L149.512 95.5484C149.19 95.371 148.803 95.1936 148.405 95.0485L148.346 95.0324C148.233 95.371 148.04 96.1127 147.857 96.8652L147.776 97.2522C147.362 98.9722 146.846 103.385 146.836 105.277C146.836 105.444 147.11 105.368 147.588 105.078C148.249 104.686 148.593 104.632 150.346 104.686H150.356ZM139.477 104.508C141.434 104.401 143.46 104.25 143.992 104.181L144.954 104.052L145.078 100.81C145.245 96.2256 145.9 93.5166 147.895 89.1844C149.314 86.1045 149.91 83.4009 149.615 81.4014C149.486 80.5252 149.437 80.4715 148.265 79.9609C146.336 79.1707 144.084 78.5365 141.746 78.171L141.574 78.1495C139.354 77.827 132.871 78.0151 130.431 78.472C129.426 78.6601 127.588 79.0471 126.346 79.3374C123.293 80.0522 121.675 79.9609 119.353 78.945C117.058 77.9345 115.596 77.0261 114.215 75.7361C113.134 74.7256 113.032 74.6772 112.737 75.0105C112.522 75.2631 112.398 76.0156 112.328 77.6496C112.226 80.1382 111.855 81.4497 110.753 83.2181C110.522 83.546 110.318 83.9276 110.151 84.3254L110.135 84.363C110.135 84.449 110.99 85.4111 112.027 86.4861C115.602 90.211 117.359 91.1731 120.181 90.9581C121.111 90.8882 121.756 90.9151 121.756 91.028C121.756 91.2376 119.934 92.6781 119.171 93.0759C118.827 93.2532 118.741 93.4575 118.8 93.8875L119.23 96.8115C119.488 98.5046 119.687 99.2679 119.945 99.499C120.611 100.074 124.078 101.864 126.249 102.74C129.125 103.906 130.673 104.326 132.871 104.508C135.543 104.729 135.602 104.729 139.477 104.508V104.508ZM116.327 101.45C116.386 101.343 116.171 99.7301 115.827 97.8542C115.376 95.3011 115.123 94.3766 114.844 94.1401C114.629 93.9681 113.602 93.221 112.559 92.4846C111.135 91.4311 109.883 90.3669 108.695 89.2327L108.711 89.2435L106.77 87.3515L105.755 87.889L104.653 88.4856C104.76 88.964 104.916 89.3832 105.126 89.7756L105.115 89.7487C105.4 90.4152 106.018 92.0654 106.475 93.4037C107.657 96.9082 108.56 98.5852 110.888 101.633L111.775 102.788L113.425 103.046C114.328 103.192 115.268 103.374 115.51 103.471C115.913 103.622 115.962 103.557 116.085 102.649C116.128 102.208 116.214 101.805 116.349 101.423L116.338 101.461L116.327 101.45ZM151.786 66.6201C153.221 66.4857 153.463 66.26 152.84 65.6311C152.469 65.2495 151.555 65.2065 150.835 65.5451C150.346 65.7655 150.249 65.7171 149.496 64.9001C148.706 64.024 148.663 64.0025 147.674 64.1261C146.777 64.2336 146.642 64.196 146.529 63.8305C146.158 63.2124 145.728 62.6802 145.245 62.2126C144.621 61.4977 143.842 60.9387 142.955 60.5786L142.912 60.5625C141.17 59.9014 140.203 59.9766 138.547 60.885C133.769 63.5026 133.963 63.4704 129.351 62.2986C125.029 61.1967 121.799 60.1002 120.772 59.38C119.912 58.7834 118.058 58.1599 116.521 57.9449C115.376 57.789 114.629 58.0362 113.538 58.95L112.962 59.423L113.478 60.3421C114.209 61.6375 114.14 61.7127 113.032 60.7721C111.866 59.767 110.474 59.0951 109.555 59.0897C108.915 59.0897 107.012 59.9121 106.781 60.2937C106.717 60.3959 107.303 60.5302 108.077 60.6001C108.899 60.67 110.017 60.9441 110.769 61.2666C112.721 62.0997 113.736 62.3685 115.526 62.5566C117.483 62.7447 121.052 62.519 121.46 62.175C121.67 61.9976 122.283 61.9654 123.583 62.0675C125.287 62.1965 125.997 62.3524 130.055 63.4489C132.404 64.0939 134.054 64.0455 136.854 63.2607C138.144 62.9006 139.762 62.5459 140.445 62.4706C141.59 62.347 141.821 62.4007 143.6 63.207C146.465 64.497 147.97 65.3301 148.819 66.0719C149.658 66.7867 149.749 66.8082 151.781 66.6094L151.786 66.6201ZM135.822 61.7181L137.526 60.8312L137.489 59.0736C137.456 57.7245 137.397 56.4936 137.317 55.2627L137.333 55.5261L137.209 53.7255L135.505 55.0424C134.495 55.8325 133.511 56.4184 133.076 56.499C131.85 56.7355 125.793 56.499 125.223 56.198C124.454 55.6175 123.772 55.0101 123.143 54.349L123.137 54.3436L121.562 52.7687L121.541 53.6986C121.541 54.1985 121.46 55.0746 121.369 55.6175C121.213 56.6065 121.224 56.6334 122.299 58.004C122.901 58.7726 123.39 59.4499 123.39 59.5251C123.39 60.068 131.474 62.5781 133.296 62.605C133.877 62.605 134.613 62.347 135.828 61.7181H135.822ZM132.581 55.3434C134.602 54.9564 135.591 53.4944 136.328 49.8017C137.118 45.8296 137.515 39.5892 137.139 36.9232C136.801 34.5314 134.135 33.4456 128.996 33.6176C125.814 33.7251 124.497 34.0422 123.411 34.956C122.74 35.5311 122.723 35.5795 122.428 38.2294C121.853 43.3249 122.686 50.5865 124.148 53.317C124.841 54.6285 125.465 55.1069 126.765 55.3219C128.222 55.5745 131.318 55.5799 132.576 55.338L132.581 55.3434Z" fill="#88CE02"/>
</svg>
