<svg xmlns="http://www.w3.org/2000/svg" xmlns:xlink="http://www.w3.org/1999/xlink" viewBox="0 0 811.6 1067.9">
  <defs>
    <clipPath id="clip-path" transform="translate(0 0)">
      <rect x="168.09" y="663.48" width="60.9" height="84.96" style="fill: none"/>
    </clipPath>
  </defs>
  <g id="Layer_1" data-name="Layer 1">
    <path d="M811.6,6.84V1061.06a6.85,6.85,0,0,1-6.83,6.84H6.83A6.85,6.85,0,0,1,0,1061.06V6.84A6.85,6.85,0,0,1,6.83,0H804.77A6.85,6.85,0,0,1,811.6,6.84Z" transform="translate(0 0)" style="fill: #68c4b8"/>
  </g>
  <g id="blob">
    <path d="M176.36,699.58" transform="translate(0 0)" style="fill: #28786d"/>
    <path d="M542.09,1093.65" transform="translate(0 0)" style="fill: #28786d"/>
    <path d="M811.6,26.61V861.89c-66.93,6.6-142.39-28.59-225.79-28.59C495.35,833.3,305,995,232.49,951.9,90.08,867.28,270.29,657,211.28,582.77,164.9,524.46,2.3,369.44,128.76,243c46.47-46.48,190.25-62.66,240-106.09C424.2,88.46,444.64,33.69,483.47,0H753.89A482.27,482.27,0,0,1,811.6,26.61Z" transform="translate(0 0)" style="fill: #28786d"/>
  </g>
  <g id="profileFace">
    <g>
      <rect x="323.41" y="350.4" width="352.37" height="23.04" rx="11.52" style="fill: #d8d8d8"/>
      <rect x="323.41" y="350.4" width="310.2" height="23.04" rx="11.52" style="fill: #68c4b8"/>
      <rect x="323.41" y="522.43" width="352.37" height="23.04" rx="11.52" style="fill: #d8d8d8"/>
      <rect x="323.41" y="522.43" width="289.65" height="23.04" rx="11.52" style="fill: #68c4b8"/>
      <rect x="323.41" y="694.46" width="352.37" height="23.04" rx="11.52" style="fill: #d8d8d8"/>
      <rect x="323.41" y="694.46" width="257.77" height="23.04" rx="11.52" style="fill: #68c4b8"/>
      <g id="Layer_2" data-name="Layer 2">
        <g id="Layer_1-2" data-name="Layer 1-2">
          <g id="Layer_2-2" data-name="Layer 2-2">
            <g id="Surfaces">
              <g id="Drawing_Surface" data-name="Drawing Surface">
                <g id="Outline_no_shadow" data-name="Outline no shadow">
                  <path d="M157.94,301h80.69a22.11,22.11,0,0,1,22.12,22.09v77.6a22.09,22.09,0,0,1-22.08,22.12H157.94a22.1,22.1,0,0,1-22.12-22.08v-77.6A22.11,22.11,0,0,1,157.9,301Z" transform="translate(0 0)" style="fill: #300"/>
                </g>
              </g>
            </g>
            <g id="Outlined_Mnemonics_Logos" data-name="Outlined Mnemonics Logos">
              <g id="Ai">
                <path d="M196.36,374.1H177l-4,12.23a.91.91,0,0,1-1,.73h-9.79c-.57,0-.72-.31-.57-.94l16.76-48.25c.16-.52.32-1.09.52-1.72a18.25,18.25,0,0,0,.32-3.38.5.5,0,0,1,.41-.57h13.48c.42,0,.63.15.68.41l19,53.62c.16.57,0,.83-.52.83H201.46a.77.77,0,0,1-.83-.57ZM180,363.53h13.23c-.32-1.09-.73-2.39-1.2-3.75s-.94-2.91-1.41-4.47-1-3.18-1.51-4.79-1-3.12-1.4-4.63-.78-2.81-1.15-4.06h-.1a64.94,64.94,0,0,1-1.77,6.71c-.78,2.5-1.56,5.1-2.4,7.7S180.8,361.35,180,363.53Z" transform="translate(0 0)" style="fill: #ff9a00"/>
                <path d="M224.21,341.1a6.46,6.46,0,0,1-4.63-1.82,6.75,6.75,0,0,1-1.77-4.79,6.13,6.13,0,0,1,1.87-4.64,6.69,6.69,0,0,1,4.63-1.82,6.27,6.27,0,0,1,4.74,1.82,7.17,7.17,0,0,1-.1,9.43A6.17,6.17,0,0,1,224.21,341.1Zm-5.83,45.18V346.2c0-.52.21-.73.68-.73h10.3c.47,0,.68.26.68.73v40.08c0,.57-.21.83-.68.83h-10.2a.73.73,0,0,1-.79-.66A1,1,0,0,1,218.38,386.28Z" transform="translate(0 0)" style="fill: #ff9a00"/>
              </g>
            </g>
          </g>
        </g>
      </g>
      <g>
        <path d="M157.94,645.07h80.69a22.11,22.11,0,0,1,22.12,22.13v77.56a22.1,22.1,0,0,1-22.12,22.12H157.94a22.1,22.1,0,0,1-22.12-22.12V667.2a22.1,22.1,0,0,1,22.12-22.13Z" transform="translate(0 0)" style="fill: #5cc4ff"/>
        <g style="clip-path: url(#clip-path)">
          <g>
            <path d="M198.51,748.23l-24.78-6.81-5.53-61.28h60.69l-5.53,61.27-24.85,6.82Z" transform="translate(0 0)" style="fill: #264de4"/>
            <path d="M218.63,737.51l4.72-52.36h-24.8V743l20.08-5.51Z" transform="translate(0 0)" style="fill: #2965f1"/>
            <path d="M180.86,707.88l.68,7.51h17v-7.51Zm-1.36-15.22.69,7.52h18.36v-7.52Zm19.05,34.74h0l-8.46-2.26-.54-6h-7.63L183,731l15.56,4.28h0Z" transform="translate(0 0)" style="fill: #ebebeb"/>
            <path d="M182.48,663.48h9.21v3.81h-5.36v3.81h5.36v3.8h-9.21Zm11.05,0h9.2v3.31h-5.36v.67h5.36v7.61h-9.2v-3.48h5.35v-.66h-5.35Zm11,0h9.2v3.31h-5.35v.67h5.35v7.61h-9.2v-3.48h5.35v-.66h-5.35Z" transform="translate(0 0)"/>
            <path d="M216.18,707.88l1.37-15.22h-19v7.52h10.7l-.69,7.7h-10v7.51h9.36l-.89,9.75-8.47,2.26v7.82L214.09,731l.12-1.27L216,709.9l.19-2Z" transform="translate(0 0)" style="fill: #fff"/>
          </g>
        </g>
      </g>
      <g>
        <path d="M157.94,473h80.69a22.11,22.11,0,0,1,22.12,22.13v77.56a22.1,22.1,0,0,1-22.12,22.12H157.94a22.1,22.1,0,0,1-22.12-22.12V495.17A22.1,22.1,0,0,1,157.94,473Z" transform="translate(0 0)" style="fill: #2f323a"/>
        <path d="M198.08,534a13.2,13.2,0,1,1,13.2,13.2A13.2,13.2,0,0,1,198.08,534Z" transform="translate(0 0)" style="fill: #1abcfe"/>
        <path d="M171.74,560.31a13.2,13.2,0,0,1,13.19-13.19h13.19v13.19a13.19,13.19,0,0,1-26.38,0Z" transform="translate(0 0)" style="fill: #0acf83"/>
        <path d="M198.08,494.43v26.34h13.2a13.19,13.19,0,1,0,0-26.38h-13.2Z" transform="translate(0 0)" style="fill: #ff7262"/>
        <path d="M171.74,507.62a13.2,13.2,0,0,0,13.19,13.19h13.19V494.46H184.93A13.15,13.15,0,0,0,171.74,507.62Z" transform="translate(0 0)" style="fill: #f24e1e"/>
        <path d="M171.74,534a13.2,13.2,0,0,0,13.19,13.2h13.19V520.81H184.93A13.14,13.14,0,0,0,171.74,534Z" transform="translate(0 0)" style="fill: #a259ff"/>
      </g>
    </g>
  </g>
</svg>
