<svg xmlns="http://www.w3.org/2000/svg" xmlns:xlink="http://www.w3.org/1999/xlink" viewBox="0 0 811.6 1067.9">
  <defs>
    <clipPath id="clip-path" transform="translate(0 0)">
      <circle cx="405.8" cy="470.81" r="268.93" style="fill: none"/>
    </clipPath>
  </defs>
  <g id="Layer_1" data-name="Layer 1">
    <path d="M811.6,6.84V1061.06a6.85,6.85,0,0,1-6.83,6.84H6.83A6.85,6.85,0,0,1,0,1061.06V6.84A6.85,6.85,0,0,1,6.83,0H804.77A6.85,6.85,0,0,1,811.6,6.84Z" transform="translate(0 0)" style="fill: #68c4b8"/>
  </g>
  <g id="blob">
    <path d="M811.6,396.81v664.25a6.85,6.85,0,0,1-6.83,6.84H68.11C145.47,759-133,233,324.92,390.34,507.67,453.12,679.32,415.19,811.6,396.81Z" transform="translate(0 0)" style="fill: #28786d"/>
  </g>
  <g id="profileFace">
    <g>
      <circle cx="405.8" cy="518.23" r="230.15" style="fill: #28786d;stroke: #fff;stroke-miterlimit: 10;stroke-width: 24.059964675310322px"/>
      <g style="clip-path: url(#clip-path)">
        <g>
          <g id="tshirt">
            <path d="M755.36,739.72C710.8,691.48,633.25,638.94,567.73,626.58c-28.39-5.35-48.76-13.86-63.34-23.26-.38-.24-.76-.48-1.13-.73-16.86-11.13-25.81-23.46-30.55-33.28-.93-1.9-1.69-3.71-2.32-5.4a44.3,44.3,0,0,1-3.06-13V519.51a95.58,95.58,0,0,0-39.16-18.58q-2.62-.57-5.32-1a97.76,97.76,0,0,0-15.09-1.18,95.47,95.47,0,0,0-60,21.06v31s-.67,28.23-35.54,51.47l-1.13.75c-14.63,9.5-35.11,18.11-63.75,23.51-65.53,12.35-143.07,64.89-187.63,113.14Z" transform="translate(0 0)" style="fill: #fff"/>
            <path d="M504.37,603.33C499,657.69,457.78,700,407.74,700s-91.38-42.41-96.65-96.89l1.13-.75c34.87-23.24,35.54-51.47,35.54-51.47v-31a95.38,95.38,0,0,1,60-21.08,96.67,96.67,0,0,1,15.1,1.18c1.78.28,3.56.6,5.32,1a95.69,95.69,0,0,1,39.16,18.57v31.35a44.33,44.33,0,0,0,3.06,13.06c.63,1.69,1.39,3.5,2.31,5.4,4.75,9.82,13.69,22.13,30.55,33.27C503.61,602.84,504,603.09,504.37,603.33Z" transform="translate(0 0)" style="fill: #e5e5e5"/>
          </g>
          <g id="face">
            <path d="M503.24,602.59a95.84,95.84,0,0,1-191-.25c34.87-23.25,35.54-51.48,35.54-51.48v-31a95.38,95.38,0,0,1,60-21.08,96.67,96.67,0,0,1,15.1,1.18c1.78.28,3.56.6,5.32,1a95.69,95.69,0,0,1,39.16,18.57v31.35a44.33,44.33,0,0,0,3.06,13.06c.63,1.69,1.39,3.5,2.31,5.4C477.43,579.14,486.38,591.45,503.24,602.59Z" transform="translate(0 0)" style="fill: #c58569"/>
            <path d="M472.69,569.32c-12.32,8.25-28.57,13.26-46.39,13.26-38.46,0-69.63-23.34-69.63-52.13,0-.48.05-.94.07-1.41,0-.26-.07-.49-.07-.77,0-15.19,29.32-27.6,66.17-28.33,1.78.28,3.56.6,5.32,1a95.69,95.69,0,0,1,39.16,18.57v31.35a44.33,44.33,0,0,0,3.06,13.06C471,565.61,471.78,567.42,472.69,569.32Z" transform="translate(0 0)" style="fill: #894c37;opacity: 0.360000014305115;isolation: isolate"/>
            <path d="M518.32,392.74h0a27.09,27.09,0,0,0-27.9,3.53v-33a76.81,76.81,0,0,0-76.59-76.59H401.67a76.81,76.81,0,0,0-76.59,76.59v33.56a27.12,27.12,0,0,0-28.58-4.07h0A27.09,27.09,0,0,0,283,428.47l5,11a27.07,27.07,0,0,0,35.72,13.54h0c.49-.21,1-.45,1.45-.69v29.54A76.82,76.82,0,0,0,401.7,558.5h12.18a76.81,76.81,0,0,0,76.59-76.59v-29.2c.25.12.48.25.75.36h0a27.08,27.08,0,0,0,35.72-13.54l5-11.06A27.09,27.09,0,0,0,518.32,392.74Z" transform="translate(0 0)" style="fill: #c58569"/>
            <line x1="302.3" y1="414.28" x2="318.2" y2="430.88" style="fill: none;stroke: #000;stroke-linecap: round;stroke-linejoin: round;stroke-width: 1.008631363737728px"/>
            <line x1="511.52" y1="414.28" x2="495.61" y2="430.88" style="fill: none;stroke: #000;stroke-linecap: round;stroke-linejoin: round;stroke-width: 1.008631363737728px"/>
          </g>
          <g id="nose">
            <path d="M405.7,414.32s-1.39,28.7-6.92,47,17.64,0,17.64,0" transform="translate(0 0)" style="fill: none;stroke: #000;stroke-linecap: round;stroke-linejoin: round;stroke-width: 1.3448418567432106px"/>
          </g>
          <g id="smile">
            <path d="M385.23,487c0,.31,0,.61,0,.92,0,8.54,9.8,15.48,21.9,15.48S429,496.52,429,488a7.08,7.08,0,0,0,0-.92Z" transform="translate(0 0)" style="fill: #fff"/>
          </g>
          <g id="eyes">
            <path d="M370.69,411.11h0a6.05,6.05,0,0,1,6.05,6.05v3.3a6.05,6.05,0,0,1-6.05,6.06h0a6.05,6.05,0,0,1-6.05-6.06v-3.3A6.05,6.05,0,0,1,370.69,411.11Z" transform="translate(0 0)"/>
            <path d="M443.47,411.11h0a6.05,6.05,0,0,1,6,6.05v3.3a6.05,6.05,0,0,1-6,6.06h0a6.06,6.06,0,0,1-6.06-6.06v-3.3A6.05,6.05,0,0,1,443.47,411.11Z" transform="translate(0 0)"/>
            <circle cx="370.69" cy="419.16" r="1.89" style="fill: #fcfcfc"/>
            <circle cx="443.47" cy="419.16" r="1.89" style="fill: #fcfcfc"/>
          </g>
          <g id="hair">
            <path d="M493.31,394.27c8.4-21.33,1-50.23,20.31-69.35,29.46-95.73-56.7-33.58-53.26-69.35-16.93,13.84-50.14-6.23-111.69,31.09s-27.13,107.61-27.13,107.61,3.38,1.77,3.55,2.54,2.28-28.65,5.25-36.8,9.84-24.58,21.44-29.74c75.38-33.55,78.85,20.4,138.67,37.92v27.52Z" transform="translate(0 0)"/>
          </g>
          <g id="eyebrows">
            <path d="M458.37,397.88c-8-3.5-16.18-2.27-24.46-.65-3,.58-1.71,5.12,1.26,4.54,6.84-1.34,14.17-2.74,20.82.17C458.72,403.12,461.14,399.07,458.37,397.88Z" transform="translate(0 0)"/>
            <path d="M358.23,397.88c8-3.5,16.18-2.27,24.46-.65,3,.58,1.71,5.12-1.26,4.54-6.84-1.34-14.17-2.74-20.82.17C357.86,403.12,355.46,399.07,358.23,397.88Z" transform="translate(0 0)"/>
          </g>
          <g id="mustache">
            <path d="M435.33,492.79a1,1,0,0,0,1-1h0c0-9.37-13.11-17-29.28-17s-29.28,7.59-29.28,17h0a1,1,0,0,0,1,1Z" transform="translate(0 0)"/>
          </g>
          <g id="beard">
            <path d="M429,546.84c0-5.91-10.15-10.69-22.72-10.69s-22.73,4.78-22.73,10.69v.82c0,10.86,10.16,19.66,22.73,19.66S429,558.52,429,547.66v-.53A2.81,2.81,0,0,1,429,546.84Z" transform="translate(0 0)"/>
          </g>
        </g>
      </g>
    </g>
    <rect x="251.97" y="796.06" width="308.66" height="20.18" rx="5.59" style="fill: #d8d8d8"/>
    <rect x="251.97" y="845.83" width="260.09" height="20.18" rx="5.59" style="fill: #d8d8d8"/>
  </g>
</svg>
