<?xml version="1.0" encoding="utf-8"?>
<!-- Generator: Adobe Illustrator 25.0.1, SVG Export Plug-In . SVG Version: 6.00 Build 0)  -->
<svg version="1.1" id="Layer_1" xmlns="http://www.w3.org/2000/svg" xmlns:xlink="http://www.w3.org/1999/xlink" x="0px" y="0px"
	 viewBox="0 0 811.6 1067.9" style="enable-background:new 0 0 811.6 1067.9;" xml:space="preserve">
<style type="text/css">
	.st0{fill:#68C4B8;}
	.st1{fill:#34786F;}
	.st2{fill:#E5E5E5;}
	.st3{fill:#330000;}
	.st4{fill:#FF9A00;}
	.st5{fill:#5CC4FF;}
	.st6{clip-path:url(#SVGID_2_);}
	.st7{fill:#264DE4;}
	.st8{fill:#2965F1;}
	.st9{fill:#EBEBEB;}
	.st10{fill:#FFFFFF;}
	.st11{fill:#2F323A;}
	.st12{fill:#1ABCFE;}
	.st13{fill:#0ACF83;}
	.st14{fill:#FF7262;}
	.st15{fill:#F24E1E;}
	.st16{fill:#A259FF;}
</style>
<g id="Layer_1_1_">
	<path class="st0" d="M811.6,6.8v1054.2c0,3.8-3.1,6.8-6.8,6.8H6.8c-3.8,0-6.8-3.1-6.8-6.8V6.8C0,3.1,3.1,0,6.8,0h797.9
		C808.5,0,811.6,3.1,811.6,6.8z"/>
</g>
<g id="blob">
	<path class="st1" d="M176.4,699.6"/>
	<path class="st1" d="M542.1,1093.7"/>
	<path class="st1" d="M811.6,26.6v835.3c-66.9,6.6-142.4-28.6-225.8-28.6c-90.5,0-280.8,161.7-353.3,118.6
		C90.1,867.3,270.3,657,211.3,582.8c-46.4-58.3-209-213.3-82.5-339.8c46.5-46.5,190.3-62.7,240-106.1C424.2,88.5,444.6,33.7,483.5,0
		h270.4C773.7,7.6,793,16.5,811.6,26.6z"/>
</g>
<g id="profileFace">
	<g>
		<path class="st2" d="M334.9,350.4h329.3c6.4,0,11.5,5.2,11.5,11.5v0c0,6.4-5.2,11.5-11.5,11.5H334.9c-6.4,0-11.5-5.2-11.5-11.5v0
			C323.4,355.6,328.6,350.4,334.9,350.4z"/>
		<path class="st0" d="M334.9,350.4h287.2c6.4,0,11.5,5.2,11.5,11.5v0c0,6.4-5.2,11.5-11.5,11.5H334.9c-6.4,0-11.5-5.2-11.5-11.5v0
			C323.4,355.6,328.6,350.4,334.9,350.4z"/>
		<path class="st2" d="M334.9,522.4h329.3c6.4,0,11.5,5.2,11.5,11.5v0c0,6.4-5.2,11.5-11.5,11.5H334.9c-6.4,0-11.5-5.2-11.5-11.5v0
			C323.4,527.6,328.6,522.4,334.9,522.4z"/>
		<path class="st0" d="M334.9,522.4h266.6c6.4,0,11.5,5.2,11.5,11.5v0c0,6.4-5.2,11.5-11.5,11.5H334.9c-6.4,0-11.5-5.2-11.5-11.5v0
			C323.4,527.6,328.6,522.4,334.9,522.4z"/>
		<path class="st2" d="M334.9,694.5h329.3c6.4,0,11.5,5.2,11.5,11.5v0c0,6.4-5.2,11.5-11.5,11.5H334.9c-6.4,0-11.5-5.2-11.5-11.5v0
			C323.4,699.6,328.6,694.5,334.9,694.5z"/>
		<path class="st0" d="M334.9,694.5h234.7c6.4,0,11.5,5.2,11.5,11.5v0c0,6.4-5.2,11.5-11.5,11.5H334.9c-6.4,0-11.5-5.2-11.5-11.5v0
			C323.4,699.6,328.6,694.5,334.9,694.5z"/>
		<g id="Layer_2_1_">
			<g id="Layer_1-2">
				<g id="Layer_2-2">
					<g id="Surfaces">
						<g id="Drawing_Surface">
							<g id="Outline_no_shadow">
								<path class="st3" d="M157.9,301h80.7c12.2,0,22.1,9.9,22.1,22.1v77.6c0,12.2-9.9,22.1-22.1,22.1c0,0,0,0,0,0h-80.7
									c-12.2,0-22.1-9.9-22.1-22.1v-77.6C135.8,310.9,145.7,301,157.9,301L157.9,301z"/>
							</g>
						</g>
					</g>
					<g id="Outlined_Mnemonics_Logos">
						<g id="Ai">
							<path class="st4" d="M196.4,374.1H177l-4,12.2c-0.1,0.5-0.5,0.8-1,0.7h-9.8c-0.6,0-0.7-0.3-0.6-0.9l16.8-48.2
								c0.2-0.5,0.3-1.1,0.5-1.7c0.2-1.1,0.3-2.2,0.3-3.4c0-0.3,0.1-0.5,0.4-0.6h13.5c0.4,0,0.6,0.1,0.7,0.4l19,53.6
								c0.2,0.6,0,0.8-0.5,0.8h-10.8c-0.4,0-0.7-0.2-0.8-0.6L196.4,374.1z M180,363.5h13.2c-0.3-1.1-0.7-2.4-1.2-3.8
								s-0.9-2.9-1.4-4.5s-1-3.2-1.5-4.8s-1-3.1-1.4-4.6s-0.8-2.8-1.1-4.1h-0.1c-0.5,2.3-1.1,4.5-1.8,6.7c-0.8,2.5-1.6,5.1-2.4,7.7
								S180.8,361.4,180,363.5z"/>
							<path class="st4" d="M224.2,341.1c-1.7,0-3.4-0.6-4.6-1.8c-1.2-1.3-1.8-3-1.8-4.8c-0.1-1.7,0.6-3.4,1.9-4.6
								c1.3-1.2,2.9-1.8,4.6-1.8c1.8-0.1,3.5,0.6,4.7,1.8c2.3,2.7,2.3,6.8-0.1,9.4C227.7,340.5,226,341.2,224.2,341.1z M218.4,386.3
								v-40.1c0-0.5,0.2-0.7,0.7-0.7h10.3c0.5,0,0.7,0.3,0.7,0.7v40.1c0,0.6-0.2,0.8-0.7,0.8h-10.2c-0.4,0-0.8-0.3-0.8-0.7
								C218.4,386.4,218.4,386.3,218.4,386.3z"/>
						</g>
					</g>
				</g>
			</g>
		</g>
		<g>
			<path class="st5" d="M157.9,645.1h80.7c12.2,0,22.1,9.9,22.1,22.1c0,0,0,0,0,0v77.6c0,12.2-9.9,22.1-22.1,22.1c0,0,0,0,0,0h-80.7
				c-12.2,0-22.1-9.9-22.1-22.1c0,0,0,0,0,0v-77.6C135.8,655,145.7,645.1,157.9,645.1C157.9,645.1,157.9,645.1,157.9,645.1z"/>
			<g>
				<defs>
					<rect id="SVGID_1_" x="168.1" y="663.5" width="60.9" height="85"/>
				</defs>
				<clipPath id="SVGID_2_">
					<use xlink:href="#SVGID_1_"  style="overflow:visible;"/>
				</clipPath>
				<g class="st6">
					<g>
						<path class="st7" d="M198.5,748.2l-24.8-6.8l-5.5-61.3h60.7l-5.5,61.3L198.5,748.2L198.5,748.2z"/>
						<path class="st8" d="M218.6,737.5l4.7-52.4h-24.8V743L218.6,737.5L218.6,737.5z"/>
						<path class="st9" d="M180.9,707.9l0.7,7.5h17v-7.5H180.9z M179.5,692.7l0.7,7.5h18.4v-7.5H179.5z M198.6,727.4L198.6,727.4
							l-8.5-2.3l-0.5-6h-7.6L183,731l15.6,4.3l0,0L198.6,727.4z"/>
						<path d="M182.5,663.5h9.2v3.8h-5.4v3.8h5.4v3.8h-9.2V663.5z M193.5,663.5h9.2v3.3h-5.4v0.7h5.4v7.6h-9.2v-3.5h5.4v-0.7h-5.4
							V663.5z M204.5,663.5h9.2v3.3h-5.4v0.7h5.4v7.6h-9.2v-3.5h5.4v-0.7h-5.4V663.5z"/>
						<path class="st10" d="M216.2,707.9l1.4-15.2h-19v7.5h10.7l-0.7,7.7h-10v7.5h9.4l-0.9,9.8l-8.5,2.3v7.8l15.5-4.2l0.1-1.3
							l1.8-19.8L216.2,707.9L216.2,707.9z"/>
					</g>
				</g>
			</g>
		</g>
		<g>
			<path class="st11" d="M157.9,473h80.7c12.2,0,22.1,9.9,22.1,22.1c0,0,0,0,0,0v77.6c0,12.2-9.9,22.1-22.1,22.1c0,0,0,0,0,0h-80.7
				c-12.2,0-22.1-9.9-22.1-22.1c0,0,0,0,0,0v-77.5C135.8,483,145.6,473,157.9,473C157.9,473,157.9,473,157.9,473z"/>
			<path class="st12" d="M198.1,534c0-7.3,5.9-13.2,13.2-13.2c7.3,0,13.2,5.9,13.2,13.2c0,7.3-5.9,13.2-13.2,13.2
				S198.1,541.3,198.1,534L198.1,534z"/>
			<path class="st13" d="M171.7,560.3c0-7.3,5.9-13.2,13.2-13.2h13.2v13.2c0,7.3-5.9,13.2-13.2,13.2S171.7,567.6,171.7,560.3z"/>
			<path class="st14" d="M198.1,494.4v26.3h13.2c7.3,0,13.2-5.9,13.2-13.2c0-7.3-5.9-13.2-13.2-13.2l0,0L198.1,494.4L198.1,494.4z"
				/>
			<path class="st15" d="M171.7,507.6c0,7.3,5.9,13.2,13.2,13.2h13.2v-26.4h-13.2C177.7,494.4,171.8,500.3,171.7,507.6
				C171.7,507.6,171.7,507.6,171.7,507.6z"/>
			<path class="st16" d="M171.7,534c0,7.3,5.9,13.2,13.2,13.2h13.2v-26.4h-13.2c-7.3,0-13.2,5.8-13.2,13.1
				C171.7,533.9,171.7,534,171.7,534z"/>
		</g>
	</g>
</g>
</svg>
