<?xml version="1.0" encoding="utf-8"?>
<!-- Generator: Adobe Illustrator 25.0.1, SVG Export Plug-In . SVG Version: 6.00 Build 0)  -->
<svg version="1.1" id="Layer_1" xmlns="http://www.w3.org/2000/svg" xmlns:xlink="http://www.w3.org/1999/xlink" x="0px" y="0px"
	 viewBox="0 0 811.6 1067.9" style="enable-background:new 0 0 811.6 1067.9;" xml:space="preserve">
<style type="text/css">
	.st0{fill:#68C4B8;}
	.st1{fill:#34786F;}
	.st2{fill:#34786F;stroke:#FFFFFF;stroke-width:24.06;stroke-miterlimit:10;}
	.st3{clip-path:url(#SVGID_2_);}
	.st4{fill:#FFFFFF;}
	.st5{fill:#E5E5E5;}
	.st6{fill:#C58569;}
	.st7{opacity:0.36;fill:#894C37;enable-background:new    ;}
	.st8{fill:none;stroke:#000000;stroke-width:1.0086;stroke-linecap:round;stroke-linejoin:round;}
	.st9{fill:none;stroke:#000000;stroke-width:1.3448;stroke-linecap:round;stroke-linejoin:round;}
	.st10{fill:#FCFCFC;}
</style>
<rect class="st0" width="811.6" height="1067.9"/>
<g id="blob">
	<path class="st1" d="M654.3,1067.9H6.8c-3.8,0-6.8-3.1-6.8-6.8V486.2c79.2,29.5,160.8,45,224.3-43.8
		c187.8-262.8,484.3-227.4,371.1,109C465.4,852.1,572.7,966.7,654.3,1067.9z"/>
</g>
<g id="profileFace">
	<g>
		<circle class="st2" cx="405.8" cy="518.2" r="230.1"/>
		<g>
			<defs>
				<circle id="SVGID_1_" cx="405.8" cy="470.8" r="268.9"/>
			</defs>
			<clipPath id="SVGID_2_">
				<use xlink:href="#SVGID_1_"  style="overflow:visible;"/>
			</clipPath>
			<g class="st3">
				<g>
					<g id="tshirt">
						<path class="st4" d="M755.4,739.7c-44.6-48.2-122.1-100.8-187.6-113.1c-28.4-5.3-48.8-13.9-63.3-23.3
							c-0.4-0.2-0.8-0.5-1.1-0.7c-16.9-11.1-25.8-23.5-30.5-33.3c-0.9-1.9-1.7-3.7-2.3-5.4c-1.7-4.2-2.7-8.5-3.1-13v-31.4
							c-11.5-9.1-24.9-15.5-39.2-18.6c-1.7-0.4-3.5-0.7-5.3-1c-5-0.8-10-1.2-15.1-1.2c-21.8,0-43,7.4-60,21.1v31
							c0,0-0.7,28.2-35.5,51.5l-1.1,0.8c-14.6,9.5-35.1,18.1-63.8,23.5c-65.5,12.3-143.1,64.9-187.6,113.1L755.4,739.7z"/>
						<path class="st5" d="M504.4,603.3c-5.4,54.4-46.6,96.7-96.6,96.7s-91.4-42.4-96.6-96.9l1.1-0.8c34.9-23.2,35.5-51.5,35.5-51.5
							v-31c17-13.7,38.2-21.1,60-21.1c5.1,0,10.1,0.4,15.1,1.2c1.8,0.3,3.6,0.6,5.3,1c14.3,3.1,27.7,9.5,39.2,18.6v31.3
							c0.3,4.5,1.4,8.9,3.1,13.1c0.6,1.7,1.4,3.5,2.3,5.4c4.8,9.8,13.7,22.1,30.5,33.3C503.6,602.8,504,603.1,504.4,603.3z"/>
					</g>
					<g id="face">
						<path class="st6" d="M503.2,602.6c-4.5,52.7-50.9,91.8-103.7,87.3c-46.6-4-83.4-41-87.3-87.5c34.9-23.2,35.5-51.5,35.5-51.5
							v-31c17-13.7,38.2-21.1,60-21.1c5.1,0,10.1,0.4,15.1,1.2c1.8,0.3,3.6,0.6,5.3,1c14.3,3.1,27.7,9.5,39.2,18.6v31.3
							c0.3,4.5,1.4,8.9,3.1,13.1c0.6,1.7,1.4,3.5,2.3,5.4C477.4,579.1,486.4,591.5,503.2,602.6z"/>
						<path class="st7" d="M472.7,569.3c-12.3,8.2-28.6,13.3-46.4,13.3c-38.5,0-69.6-23.3-69.6-52.1c0-0.5,0-0.9,0.1-1.4
							c0-0.3-0.1-0.5-0.1-0.8c0-15.2,29.3-27.6,66.2-28.3c1.8,0.3,3.6,0.6,5.3,1c14.3,3.1,27.7,9.5,39.2,18.6v31.3
							c0.3,4.5,1.4,8.9,3.1,13.1C471,565.6,471.8,567.4,472.7,569.3z"/>
						<path class="st6" d="M518.3,392.7L518.3,392.7c-9.2-4.1-20-2.8-27.9,3.5v-33c-0.1-42.2-34.3-76.5-76.6-76.6h-12.2
							c-42.2,0.1-76.5,34.3-76.6,76.6v33.6c-8-6.7-19.1-8.3-28.6-4.1l0,0c-13.6,6.2-19.6,22.1-13.5,35.7l5,11
							c6.2,13.6,22.1,19.6,35.7,13.5l0,0c0.5-0.2,1-0.5,1.5-0.7v29.5c0.1,42.2,34.3,76.5,76.5,76.6h12.2
							c42.2-0.1,76.5-34.3,76.6-76.6v-29.2c0.2,0.1,0.5,0.2,0.8,0.4l0,0c13.6,6.1,29.6,0,35.7-13.5l5-11.1
							C538,414.8,531.9,398.9,518.3,392.7z"/>
						<line class="st8" x1="302.3" y1="414.3" x2="318.2" y2="430.9"/>
						<line class="st8" x1="511.5" y1="414.3" x2="495.6" y2="430.9"/>
					</g>
					<g id="nose">
						<path class="st9" d="M405.7,414.3c0,0-1.4,28.7-6.9,47s17.6,0,17.6,0"/>
					</g>
					<g id="smile">
						<path class="st4" d="M385.2,487v0.9c0,8.5,9.8,15.5,21.9,15.5S429,496.5,429,488c0-0.3,0-0.6,0-0.9L385.2,487z"/>
					</g>
					<g id="eyes">
						<path d="M370.7,411.1L370.7,411.1c3.3,0,6,2.7,6,6v3.3c0,3.3-2.7,6-6,6.1l0,0c-3.3,0-6-2.7-6-6l0,0v-3.3
							C364.7,413.9,367.3,411.1,370.7,411.1C370.7,411.1,370.7,411.1,370.7,411.1z"/>
						<path d="M443.5,411.1L443.5,411.1c3.3,0,6,2.7,6,6v3.3c0,3.3-2.6,6-5.9,6.1c0,0,0,0-0.1,0l0,0c-3.3,0-6.1-2.7-6.1-6.1v-3.3
							C437.4,413.8,440.1,411.1,443.5,411.1L443.5,411.1z"/>
						<circle class="st10" cx="370.7" cy="419.2" r="1.9"/>
						<circle class="st10" cx="443.5" cy="419.2" r="1.9"/>
					</g>
					<g id="hair">
						<path d="M493.3,394.3c8.4-21.3,1-50.2,20.3-69.4c29.5-95.7-56.7-33.6-53.3-69.4c-16.9,13.8-50.1-6.2-111.7,31.1
							s-27.1,107.6-27.1,107.6s3.4,1.8,3.5,2.5s2.3-28.6,5.2-36.8s9.8-24.6,21.4-29.7c75.4-33.5,78.9,20.4,138.7,37.9v27.5
							L493.3,394.3z"/>
					</g>
					<g id="eyebrows">
						<path d="M458.4,397.9c-8-3.5-16.2-2.3-24.5-0.6c-3,0.6-1.7,5.1,1.3,4.5c6.8-1.3,14.2-2.7,20.8,0.2
							C458.7,403.1,461.1,399.1,458.4,397.9z"/>
						<path d="M358.2,397.9c8-3.5,16.2-2.3,24.5-0.6c3,0.6,1.7,5.1-1.3,4.5c-6.8-1.3-14.2-2.7-20.8,0.2
							C357.9,403.1,355.5,399.1,358.2,397.9z"/>
					</g>
					<g id="mustache">
						<path d="M435.3,492.8c0.6,0,1-0.4,1-1l0,0c0-9.4-13.1-17-29.3-17s-29.3,7.6-29.3,17l0,0c0,0.6,0.4,1,1,1H435.3z"/>
					</g>
					<g id="beard">
						<path d="M429,546.8c0-5.9-10.1-10.7-22.7-10.7s-22.7,4.8-22.7,10.7v0.8c0,10.9,10.2,19.7,22.7,19.7s22.7-8.8,22.7-19.7V546.8
							L429,546.8z"/>
					</g>
				</g>
			</g>
		</g>
	</g>
</g>
</svg>
