<svg width="240" height="234" viewBox="0 0 240 234" fill="none" xmlns="http://www.w3.org/2000/svg">
<path d="M42.5 1.88608e-05H197.5C203.083 -0.00524284 208.612 1.09046 213.77 3.22442C218.929 5.35838 223.616 8.48871 227.564 12.4362C231.511 16.3838 234.642 21.071 236.776 26.2297C238.91 31.3885 240.005 36.9174 240 42.5V191.5C240.005 197.083 238.91 202.612 236.776 207.77C234.642 212.929 231.511 217.616 227.564 221.564C223.616 225.511 218.929 228.642 213.77 230.776C208.612 232.91 203.083 234.005 197.5 234H42.5C36.9174 234.005 31.3885 232.91 26.2297 230.776C21.071 228.642 16.3838 225.511 12.4362 221.564C8.48871 217.616 5.35838 212.929 3.22442 207.77C1.09046 202.612 -0.00524284 197.083 1.88608e-05 191.5V42.5C-0.00524284 36.9174 1.09046 31.3885 3.22442 26.2297C5.35838 21.071 8.48871 16.3838 12.4362 12.4362C16.3838 8.48871 21.071 5.35838 26.2297 3.22442C31.3885 1.09046 36.9174 -0.00524284 42.5 1.88608e-05V1.88608e-05Z" fill="#FFA05C"/>
<path d="M72.9277 35H80.3647V42.3477H87.1677V35H94.6049V57.2505H87.168V49.7997H80.365V57.2505H72.9281L72.9277 35Z" fill="black"/>
<path d="M104.385 42.3786H97.8379V35H118.373V42.3786H111.823V57.2505H104.385L104.385 42.3786Z" fill="black"/>
<path d="M121.631 35H129.386L134.156 42.8182L138.922 35H146.679V57.2505H139.273V46.2219L134.156 54.1332H134.028L128.908 46.2219V57.2505H121.631V35V35Z" fill="black"/>
<path d="M150.38 35H157.82V49.8958H168.278V57.2505H150.38V35Z" fill="black"/>
<path d="M72.5223 186.699L61.8511 67H179.056L168.372 186.708L120.425 200L72.5223 186.699Z" fill="#E34E26"/>
<path d="M120.453 76.784V189.832L159.224 179.085L168.359 76.784H120.453Z" fill="#EF662A"/>
<path d="M83.6841 91.4664L87.6415 135.862H138.526L136.818 154.904L120.435 159.334L104.082 154.91L102.989 142.684H88.2525L90.3598 166.253L120.431 174.605L150.541 166.253L154.577 121.183H101.069L99.7255 106.149H155.862H155.908L157.223 91.4664H83.6841Z" fill="white"/>
<path d="M120.453 91.4664H83.6841L87.6415 135.862H120.453V121.183H101.069L99.7255 106.149H120.453V91.4664Z" fill="#EBEBEB"/>
<path d="M120.454 159.327L120.435 159.334L104.083 154.91L102.989 142.684H88.2529L90.3602 166.253L120.431 174.605L120.454 174.599V159.327Z" fill="#EBEBEB"/>
</svg>
