<svg xmlns="http://www.w3.org/2000/svg" viewBox="0 0 3030.17 1839.09">
  <g id="Layer_2" data-name="Layer 2">
    <g id="Layer_1-2" data-name="Layer 1">
      <rect width="3030.17" height="1839.09" style="fill: #227c9d"/>
      <g>
        <path d="M1316.56,759.11a38.09,38.09,0,0,1,38.09-38.1h320.87a38.1,38.1,0,0,1,38.1,38.1V1080a38.1,38.1,0,0,1-38.1,38.1H1354.65a38.09,38.09,0,0,1-38.09-38.1Z" style="fill: #ffcb77;stroke: #fff;stroke-width: 39.7059475313155px"/>
        <path d="M1442.14,1043.07a3.89,3.89,0,0,1-3.94-3.94v-54a3.78,3.78,0,0,1,1.14-2.79,4,4,0,0,1,6.82,2.79v54a3.69,3.69,0,0,1-1.22,2.8A3.8,3.8,0,0,1,1442.14,1043.07Zm22.51,0a3.88,3.88,0,0,1-3.93-3.94v-37.52a3.79,3.79,0,0,1,1.13-2.8,4,4,0,0,1,6.83,2.8v3.58a28.86,28.86,0,0,1,7.17-5.85,18.07,18.07,0,0,1,9.09-2.19,14.94,14.94,0,0,1,8.31,2.27,14.5,14.5,0,0,1,5.43,6.21,19.5,19.5,0,0,1,1.92,8.66v24.84a3.69,3.69,0,0,1-1.22,2.8,3.94,3.94,0,0,1-6.74-2.8v-24q0-10.68-9.62-10.67a14.07,14.07,0,0,0-7.87,2.27,28.84,28.84,0,0,0-6.47,6.12v26.24a3.66,3.66,0,0,1-1.23,2.8A3.8,3.8,0,0,1,1464.65,1043.07Zm53.3,20.12a3.66,3.66,0,0,1-2.8-1.23,3.79,3.79,0,0,1-1.13-2.8v-57.64a4,4,0,0,1,6.73-2.8,3.65,3.65,0,0,1,1.22,2.8v2.27A20.53,20.53,0,0,1,1555,1008a24.06,24.06,0,0,1,3.06,12.34,24.54,24.54,0,0,1-3.06,12.42,20.91,20.91,0,0,1-7.87,8,20.52,20.52,0,0,1-10.24,2.72,20.13,20.13,0,0,1-15-6.65v22.3a3.88,3.88,0,0,1-4,4Zm17.84-27.12a13.74,13.74,0,0,0,10.41-4.11q3.94-4.11,3.94-11.63t-3.94-11.64a13.74,13.74,0,0,0-10.41-4.11,16.44,16.44,0,0,0-7.61,1.84,21.31,21.31,0,0,0-6.21,4.72v18.37a22.54,22.54,0,0,0,6.21,4.81A17.12,17.12,0,0,0,1535.79,1036.07Zm48.62,7.44a14.64,14.64,0,0,1-13.82-8.49,20.27,20.27,0,0,1-1.83-8.66v-24.84a3.8,3.8,0,0,1,1.14-2.8,4.07,4.07,0,0,1,2.88-1.14,3.89,3.89,0,0,1,3.94,3.94v24q0,10.66,9.62,10.67a13.67,13.67,0,0,0,7.78-2.28,27.52,27.52,0,0,0,6.56-6.12v-26.24a3.8,3.8,0,0,1,1.14-2.8,4.11,4.11,0,0,1,2.89-1.14,3.88,3.88,0,0,1,3.93,3.94v37.53a4.14,4.14,0,0,1-1.13,2.88,3.8,3.8,0,0,1-2.8,1.14,3.9,3.9,0,0,1-4-4v-3.59a28.91,28.91,0,0,1-7.17,5.86A18.08,18.08,0,0,1,1584.41,1043.51Zm53.48,0q-12.77,0-12.77-11.55v-27.11h-6.21a1.85,1.85,0,0,1-1.22-.44,1.84,1.84,0,0,1,.35-2.71l11.89-11.64a2.22,2.22,0,0,1,1.49-.78,1.4,1.4,0,0,1,1.13.52,1.65,1.65,0,0,1,.53,1.23v7H1643a3.29,3.29,0,0,1,3.41,3.41,3.51,3.51,0,0,1-1,2.45,3.29,3.29,0,0,1-2.45,1h-9.88v26.41c0,2.27.52,3.73,1.57,4.37a8.68,8.68,0,0,0,4.11.88,12.08,12.08,0,0,0,3.5-.53l.7-.17a5.26,5.26,0,0,1,1-.09,3,3,0,0,1,2.19,1,2.86,2.86,0,0,1,1,2.19,3.31,3.31,0,0,1-2,3.06A17.09,17.09,0,0,1,1637.89,1043.51Z" style="fill: #227c9d"/>
        <path d="M1429,807a26.45,26.45,0,1,1-26.44-26.44A26.44,26.44,0,0,1,1429,807Z" style="fill: #fe6d73"/>
      </g>
    </g>
  </g>
</svg>
