<svg width="1280" height="720" viewBox="0 0 1280 720" fill="none" xmlns="http://www.w3.org/2000/svg">
<rect width="1280" height="720" fill="white"/>
<line x1="564" y1="154.5" x2="731" y2="154.5" stroke="black"/>
<line x1="1116.5" y1="443" x2="1116.5" y2="568" stroke="black"/>
<line x1="1116.5" y1="154" x2="1116.5" y2="280" stroke="black"/>
<line x1="483" y1="521.5" x2="563" y2="521.5" stroke="black"/>
<line x1="367" y1="123.5" x2="696" y2="123.5" stroke="black"/>
<line x1="367" y1="601.5" x2="696" y2="601.5" stroke="black"/>
<line x1="839" y1="568.5" x2="1116" y2="568.5" stroke="black"/>
<line x1="483" y1="208.5" x2="564" y2="208.5" stroke="black"/>
<path d="M446.354 363.354C446.549 363.158 446.549 362.842 446.354 362.646L443.172 359.464C442.976 359.269 442.66 359.269 442.464 359.464C442.269 359.66 442.269 359.976 442.464 360.172L445.293 363L442.464 365.828C442.269 366.024 442.269 366.34 442.464 366.536C442.66 366.731 442.976 366.731 443.172 366.536L446.354 363.354ZM289 363.5H446V362.5H289V363.5Z" fill="black"/>
<path d="M721.354 363.354C721.549 363.158 721.549 362.842 721.354 362.646L718.172 359.464C717.976 359.269 717.66 359.269 717.464 359.464C717.269 359.66 717.269 359.976 717.464 360.172L720.293 363L717.464 365.828C717.269 366.024 717.269 366.34 717.464 366.536C717.66 366.731 717.976 366.731 718.172 366.536L721.354 363.354ZM670 363.5L721 363.5L721 362.5L670 362.5L670 363.5Z" fill="black"/>
<path d="M1026.35 363.354C1026.55 363.158 1026.55 362.842 1026.35 362.646L1023.17 359.464C1022.98 359.269 1022.66 359.269 1022.46 359.464C1022.27 359.66 1022.27 359.976 1022.46 360.172L1025.29 363L1022.46 365.828C1022.27 366.024 1022.27 366.34 1022.46 366.536C1022.66 366.731 1022.98 366.731 1023.17 366.536L1026.35 363.354ZM946 363.5L1026 363.5L1026 362.5L946 362.5L946 363.5Z" fill="black"/>
<path d="M563.354 409.646C563.158 409.451 562.842 409.451 562.646 409.646L559.464 412.828C559.269 413.024 559.269 413.34 559.464 413.536C559.66 413.731 559.976 413.731 560.172 413.536L563 410.707L565.828 413.536C566.024 413.731 566.34 413.731 566.536 413.536C566.731 413.34 566.731 413.024 566.536 412.828L563.354 409.646ZM563.5 522L563.5 410L562.5 410L562.5 522L563.5 522Z" fill="black"/>
<path d="M839.354 409.646C839.158 409.451 838.842 409.451 838.646 409.646L835.464 412.828C835.269 413.024 835.269 413.34 835.464 413.536C835.66 413.731 835.976 413.731 836.172 413.536L839 410.707L841.828 413.536C842.024 413.731 842.34 413.731 842.536 413.536C842.731 413.34 842.731 413.024 842.536 412.828L839.354 409.646ZM839.5 569L839.5 410L838.5 410L838.5 569L839.5 569Z" fill="black"/>
<path d="M563.646 321.354C563.842 321.549 564.158 321.549 564.354 321.354L567.536 318.172C567.731 317.976 567.731 317.66 567.536 317.464C567.34 317.269 567.024 317.269 566.828 317.464L564 320.293L561.172 317.464C560.976 317.269 560.66 317.269 560.464 317.464C560.269 317.66 560.269 317.976 560.464 318.172L563.646 321.354ZM563.5 154L563.5 321L564.5 321L564.5 154L563.5 154Z" fill="black"/>
<path d="M367.354 253.646C367.158 253.451 366.842 253.451 366.646 253.646L363.464 256.828C363.269 257.024 363.269 257.34 363.464 257.536C363.66 257.731 363.976 257.731 364.172 257.536L367 254.707L369.828 257.536C370.024 257.731 370.34 257.731 370.536 257.536C370.731 257.34 370.731 257.024 370.536 256.828L367.354 253.646ZM367.5 362L367.5 254L366.5 254L366.5 362L367.5 362Z" fill="black"/>
<path d="M366.646 471.354C366.842 471.549 367.158 471.549 367.354 471.354L370.536 468.172C370.731 467.976 370.731 467.66 370.536 467.464C370.34 467.269 370.024 467.269 369.828 467.464L367 470.293L364.172 467.464C363.976 467.269 363.66 467.269 363.464 467.464C363.269 467.66 363.269 467.976 363.464 468.172L366.646 471.354ZM366.5 363L366.5 471L367.5 471L367.5 363L366.5 363Z" fill="black"/>
<rect x="74" y="325.483" width="215.492" height="71.8307" rx="35.9154" fill="#227C9D"/>
<path d="M149.74 369.166V363.226H145.58V369.166H142.3V355.306H145.58V360.666H149.74V355.306H153.02V369.166H149.74ZM158.72 358.546V369.166H155.56V358.546H158.72ZM157.12 352.946C157.667 352.946 158.114 353.119 158.46 353.466C158.82 353.799 159 354.226 159 354.746C159 355.266 158.82 355.699 158.46 356.046C158.114 356.379 157.667 356.546 157.12 356.546C156.574 356.546 156.127 356.379 155.78 356.046C155.434 355.699 155.26 355.266 155.26 354.746C155.26 354.226 155.434 353.799 155.78 353.466C156.127 353.119 156.574 352.946 157.12 352.946ZM167.865 368.666C167.478 368.933 167.025 369.139 166.505 369.286C165.998 369.433 165.492 369.506 164.985 369.506C162.665 369.493 161.505 368.213 161.505 365.666V360.746H160.005V358.546H161.505V356.246L164.665 355.886V358.546H167.105L166.765 360.746H164.665V365.626C164.665 366.119 164.745 366.473 164.905 366.686C165.065 366.899 165.318 367.006 165.665 367.006C166.025 367.006 166.405 366.893 166.805 366.666L167.865 368.666ZM174.866 359.946C174.386 359.946 173.986 359.793 173.666 359.486C173.346 359.179 173.186 358.793 173.186 358.326C173.186 358.073 173.226 357.813 173.306 357.546C173.399 357.279 173.552 356.919 173.766 356.466L175.046 353.846H176.666L175.826 356.966C176.319 357.313 176.566 357.773 176.566 358.346C176.566 358.799 176.399 359.179 176.066 359.486C175.746 359.793 175.346 359.946 174.866 359.946ZM183.049 354.966C184.089 354.966 184.989 355.113 185.749 355.406C186.522 355.699 187.222 356.146 187.849 356.746L186.329 358.526C185.382 357.753 184.369 357.366 183.289 357.366C182.716 357.366 182.262 357.486 181.929 357.726C181.596 357.953 181.429 358.286 181.429 358.726C181.429 359.033 181.502 359.286 181.649 359.486C181.796 359.673 182.056 359.853 182.429 360.026C182.802 360.199 183.362 360.406 184.109 360.646C185.522 361.099 186.562 361.659 187.229 362.326C187.896 362.979 188.229 363.913 188.229 365.126C188.229 365.993 188.009 366.759 187.569 367.426C187.129 368.079 186.496 368.593 185.669 368.966C184.842 369.326 183.862 369.506 182.729 369.506C181.596 369.506 180.589 369.326 179.709 368.966C178.842 368.606 178.096 368.126 177.469 367.526L179.129 365.706C179.662 366.159 180.209 366.499 180.769 366.726C181.342 366.953 181.962 367.066 182.629 367.066C183.309 367.066 183.842 366.919 184.229 366.626C184.629 366.319 184.829 365.899 184.829 365.366C184.829 365.019 184.756 364.733 184.609 364.506C184.462 364.266 184.209 364.053 183.849 363.866C183.489 363.679 182.969 363.479 182.289 363.266C180.756 362.799 179.662 362.226 179.009 361.546C178.369 360.866 178.049 360.006 178.049 358.966C178.049 358.166 178.262 357.466 178.689 356.866C179.116 356.253 179.709 355.786 180.469 355.466C181.229 355.133 182.089 354.966 183.049 354.966ZM196.634 368.666C196.248 368.933 195.794 369.139 195.274 369.286C194.768 369.433 194.261 369.506 193.754 369.506C191.434 369.493 190.274 368.213 190.274 365.666V360.746H188.774V358.546H190.274V356.246L193.434 355.886V358.546H195.874L195.534 360.746H193.434V365.626C193.434 366.119 193.514 366.473 193.674 366.686C193.834 366.899 194.088 367.006 194.434 367.006C194.794 367.006 195.174 366.893 195.574 366.666L196.634 368.666ZM205.895 366.086C205.895 366.486 205.948 366.779 206.055 366.966C206.175 367.153 206.362 367.293 206.615 367.386L205.955 369.446C205.302 369.393 204.768 369.253 204.355 369.026C203.942 368.786 203.622 368.413 203.395 367.906C202.702 368.973 201.635 369.506 200.195 369.506C199.142 369.506 198.302 369.199 197.675 368.586C197.048 367.973 196.735 367.173 196.735 366.186C196.735 365.026 197.162 364.139 198.015 363.526C198.868 362.913 200.102 362.606 201.715 362.606H202.795V362.146C202.795 361.519 202.662 361.093 202.395 360.866C202.128 360.626 201.662 360.506 200.995 360.506C200.648 360.506 200.228 360.559 199.735 360.666C199.242 360.759 198.735 360.893 198.215 361.066L197.495 358.986C198.162 358.733 198.842 358.539 199.535 358.406C200.242 358.273 200.895 358.206 201.495 358.206C203.015 358.206 204.128 358.519 204.835 359.146C205.542 359.773 205.895 360.713 205.895 361.966V366.086ZM201.115 367.246C201.835 367.246 202.395 366.906 202.795 366.226V364.346H202.015C201.295 364.346 200.755 364.473 200.395 364.726C200.048 364.979 199.875 365.373 199.875 365.906C199.875 366.333 199.982 366.666 200.195 366.906C200.422 367.133 200.728 367.246 201.115 367.246ZM214.172 358.246C214.559 358.246 214.912 358.293 215.232 358.386L214.732 361.446C214.332 361.353 214.012 361.306 213.772 361.306C213.145 361.306 212.665 361.526 212.332 361.966C212.012 362.393 211.759 363.039 211.572 363.906V369.166H208.412V358.546H211.172L211.432 360.606C211.672 359.873 212.032 359.299 212.512 358.886C213.005 358.459 213.559 358.246 214.172 358.246ZM223.099 368.666C222.713 368.933 222.259 369.139 221.739 369.286C221.233 369.433 220.726 369.506 220.219 369.506C217.899 369.493 216.739 368.213 216.739 365.666V360.746H215.239V358.546H216.739V356.246L219.899 355.886V358.546H222.339L221.999 360.746H219.899V365.626C219.899 366.119 219.979 366.473 220.139 366.686C220.299 366.899 220.553 367.006 220.899 367.006C221.259 367.006 221.639 366.893 222.039 366.666L223.099 368.666ZM225.041 353.846C225.521 353.846 225.921 353.999 226.241 354.306C226.561 354.613 226.721 354.999 226.721 355.466C226.721 355.719 226.674 355.979 226.581 356.246C226.501 356.513 226.354 356.873 226.141 357.326L224.861 359.946H223.241L224.081 356.826C223.588 356.479 223.341 356.019 223.341 355.446C223.341 354.993 223.501 354.613 223.821 354.306C224.154 353.999 224.561 353.846 225.041 353.846Z" fill="white"/>
<rect x="455" y="325.483" width="215.492" height="71.8307" rx="10" fill="#17C3B2"/>
<path d="M529.052 369.166H524.872L520.872 358.426C521.006 359.479 521.106 360.413 521.172 361.226C521.252 362.026 521.292 362.979 521.292 364.086V369.166H518.372V355.306H522.452L526.552 366.066C526.259 364.239 526.112 362.519 526.112 360.906V355.306H529.052V369.166ZM540.834 363.646C540.834 364.086 540.814 364.466 540.774 364.786H534.194C534.301 365.679 534.554 366.306 534.954 366.666C535.354 367.026 535.907 367.206 536.614 367.206C537.041 367.206 537.454 367.133 537.854 366.986C538.254 366.826 538.687 366.586 539.154 366.266L540.454 368.026C539.214 369.013 537.834 369.506 536.314 369.506C534.594 369.506 533.274 368.999 532.354 367.986C531.434 366.973 530.974 365.613 530.974 363.906C530.974 362.826 531.167 361.859 531.554 361.006C531.941 360.139 532.507 359.459 533.254 358.966C534.001 358.459 534.894 358.206 535.934 358.206C537.467 358.206 538.667 358.686 539.534 359.646C540.401 360.606 540.834 361.939 540.834 363.646ZM537.734 362.746C537.707 361.119 537.134 360.306 536.014 360.306C535.467 360.306 535.041 360.506 534.734 360.906C534.441 361.306 534.261 361.966 534.194 362.886H537.734V362.746ZM556.249 358.546L554.049 369.166H550.269L548.849 361.366L547.449 369.166H543.709L541.449 358.546H544.649L545.749 366.806L547.409 358.546H550.489L551.949 366.806L553.229 358.546H556.249ZM577.836 355.306L575.516 369.166H571.256L569.536 358.586L567.716 369.166H563.556L561.276 355.306H564.556L565.936 366.686L567.856 355.306H571.296L573.096 366.686L574.716 355.306H577.836ZM583.674 358.206C585.301 358.206 586.574 358.706 587.494 359.706C588.414 360.693 588.874 362.079 588.874 363.866C588.874 364.999 588.661 365.993 588.234 366.846C587.821 367.686 587.221 368.339 586.434 368.806C585.661 369.273 584.741 369.506 583.674 369.506C582.061 369.506 580.787 369.013 579.854 368.026C578.934 367.026 578.474 365.633 578.474 363.846C578.474 362.713 578.681 361.726 579.094 360.886C579.521 360.033 580.121 359.373 580.894 358.906C581.681 358.439 582.607 358.206 583.674 358.206ZM583.674 360.526C583.034 360.526 582.554 360.799 582.234 361.346C581.914 361.879 581.754 362.713 581.754 363.846C581.754 365.006 581.907 365.853 582.214 366.386C582.534 366.919 583.021 367.186 583.674 367.186C584.314 367.186 584.794 366.919 585.114 366.386C585.434 365.839 585.594 364.999 585.594 363.866C585.594 362.706 585.434 361.859 585.114 361.326C584.807 360.793 584.327 360.526 583.674 360.526ZM596.514 358.246C596.9 358.246 597.254 358.293 597.574 358.386L597.074 361.446C596.674 361.353 596.354 361.306 596.114 361.306C595.487 361.306 595.007 361.526 594.674 361.966C594.354 362.393 594.1 363.039 593.914 363.906V369.166H590.754V358.546H593.514L593.774 360.606C594.014 359.873 594.374 359.299 594.854 358.886C595.347 358.459 595.9 358.246 596.514 358.246ZM607.696 354.326V369.166H604.896L604.736 367.926C603.989 368.979 602.982 369.506 601.716 369.506C600.396 369.506 599.389 368.999 598.696 367.986C598.016 366.973 597.676 365.586 597.676 363.826C597.676 362.746 597.856 361.779 598.216 360.926C598.576 360.073 599.082 359.406 599.736 358.926C600.402 358.446 601.162 358.206 602.016 358.206C603.029 358.206 603.869 358.539 604.536 359.206V353.986L607.696 354.326ZM602.696 367.186C603.429 367.186 604.042 366.786 604.536 365.986V361.406C604.282 361.099 604.022 360.873 603.756 360.726C603.502 360.579 603.209 360.506 602.876 360.506C602.289 360.506 601.822 360.779 601.476 361.326C601.129 361.873 600.956 362.713 600.956 363.846C600.956 365.086 601.102 365.953 601.396 366.446C601.702 366.939 602.136 367.186 602.696 367.186Z" fill="white"/>
<rect x="268" y="486" width="215.492" height="71.8307" rx="35.9154" fill="#227C9D"/>
<path d="M335.942 514.223C336.982 514.223 337.882 514.37 338.642 514.663C339.415 514.957 340.115 515.403 340.742 516.003L339.222 517.783C338.275 517.01 337.262 516.623 336.182 516.623C335.608 516.623 335.155 516.743 334.822 516.983C334.488 517.21 334.322 517.543 334.322 517.983C334.322 518.29 334.395 518.543 334.542 518.743C334.688 518.93 334.948 519.11 335.322 519.283C335.695 519.457 336.255 519.663 337.002 519.903C338.415 520.357 339.455 520.917 340.122 521.583C340.788 522.237 341.122 523.17 341.122 524.383C341.122 525.25 340.902 526.017 340.462 526.683C340.022 527.337 339.388 527.85 338.562 528.223C337.735 528.583 336.755 528.763 335.622 528.763C334.488 528.763 333.482 528.583 332.602 528.223C331.735 527.863 330.988 527.383 330.362 526.783L332.022 524.963C332.555 525.417 333.102 525.757 333.662 525.983C334.235 526.21 334.855 526.323 335.522 526.323C336.202 526.323 336.735 526.177 337.122 525.883C337.522 525.577 337.722 525.157 337.722 524.623C337.722 524.277 337.648 523.99 337.502 523.763C337.355 523.523 337.102 523.31 336.742 523.123C336.382 522.937 335.862 522.737 335.182 522.523C333.648 522.057 332.555 521.483 331.902 520.803C331.262 520.123 330.942 519.263 330.942 518.223C330.942 517.423 331.155 516.723 331.582 516.123C332.008 515.51 332.602 515.043 333.362 514.723C334.122 514.39 334.982 514.223 335.942 514.223ZM346.027 513.243V528.423H342.867V513.583L346.027 513.243ZM352.587 517.803L349.367 522.463L352.847 528.423H349.287L346.127 522.623L349.367 517.803H352.587ZM357.062 517.803V528.423H353.902V517.803H357.062ZM355.462 512.203C356.009 512.203 356.455 512.377 356.802 512.723C357.162 513.057 357.342 513.483 357.342 514.003C357.342 514.523 357.162 514.957 356.802 515.303C356.455 515.637 356.009 515.803 355.462 515.803C354.915 515.803 354.469 515.637 354.122 515.303C353.775 514.957 353.602 514.523 353.602 514.003C353.602 513.483 353.775 513.057 354.122 512.723C354.469 512.377 354.915 512.203 355.462 512.203ZM365.547 517.463C366.88 517.463 367.873 517.957 368.527 518.943C369.18 519.93 369.507 521.31 369.507 523.083C369.507 524.177 369.333 525.157 368.987 526.023C368.653 526.877 368.167 527.55 367.527 528.043C366.887 528.523 366.14 528.763 365.287 528.763C364.22 528.763 363.36 528.397 362.707 527.663V532.523L359.547 532.863V517.803H362.327L362.487 518.983C362.9 518.463 363.373 518.083 363.907 517.843C364.44 517.59 364.987 517.463 365.547 517.463ZM364.327 526.443C365.593 526.443 366.227 525.337 366.227 523.123C366.227 521.87 366.087 521.003 365.807 520.523C365.527 520.03 365.107 519.783 364.547 519.783C364.187 519.783 363.847 519.89 363.527 520.103C363.22 520.317 362.947 520.623 362.707 521.023V525.503C363.133 526.13 363.673 526.443 364.327 526.443ZM391.726 514.563L389.406 528.423H385.146L383.426 517.843L381.606 528.423H377.446L375.166 514.563H378.446L379.826 525.943L381.746 514.563H385.186L386.986 525.943L388.606 514.563H391.726ZM397.565 517.463C399.191 517.463 400.465 517.963 401.385 518.963C402.305 519.95 402.765 521.337 402.765 523.123C402.765 524.257 402.551 525.25 402.125 526.103C401.711 526.943 401.111 527.597 400.325 528.063C399.551 528.53 398.631 528.763 397.565 528.763C395.951 528.763 394.678 528.27 393.745 527.283C392.825 526.283 392.365 524.89 392.365 523.103C392.365 521.97 392.571 520.983 392.985 520.143C393.411 519.29 394.011 518.63 394.785 518.163C395.571 517.697 396.498 517.463 397.565 517.463ZM397.565 519.783C396.925 519.783 396.445 520.057 396.125 520.603C395.805 521.137 395.645 521.97 395.645 523.103C395.645 524.263 395.798 525.11 396.105 525.643C396.425 526.177 396.911 526.443 397.565 526.443C398.205 526.443 398.685 526.177 399.005 525.643C399.325 525.097 399.485 524.257 399.485 523.123C399.485 521.963 399.325 521.117 399.005 520.583C398.698 520.05 398.218 519.783 397.565 519.783ZM410.404 517.503C410.791 517.503 411.144 517.55 411.464 517.643L410.964 520.703C410.564 520.61 410.244 520.563 410.004 520.563C409.378 520.563 408.898 520.783 408.564 521.223C408.244 521.65 407.991 522.297 407.804 523.163V528.423H404.644V517.803H407.404L407.664 519.863C407.904 519.13 408.264 518.557 408.744 518.143C409.238 517.717 409.791 517.503 410.404 517.503ZM421.586 513.583V528.423H418.786L418.626 527.183C417.88 528.237 416.873 528.763 415.606 528.763C414.286 528.763 413.28 528.257 412.586 527.243C411.906 526.23 411.566 524.843 411.566 523.083C411.566 522.003 411.746 521.037 412.106 520.183C412.466 519.33 412.973 518.663 413.626 518.183C414.293 517.703 415.053 517.463 415.906 517.463C416.92 517.463 417.76 517.797 418.426 518.463V513.243L421.586 513.583ZM416.586 526.443C417.32 526.443 417.933 526.043 418.426 525.243V520.663C418.173 520.357 417.913 520.13 417.646 519.983C417.393 519.837 417.1 519.763 416.766 519.763C416.18 519.763 415.713 520.037 415.366 520.583C415.02 521.13 414.846 521.97 414.846 523.103C414.846 524.343 414.993 525.21 415.286 525.703C415.593 526.197 416.026 526.443 416.586 526.443Z" fill="white"/>
<rect x="268" y="173" width="215.492" height="71.8307" rx="35.9154" fill="#227C9D"/>
<path d="M309.922 201.223C310.962 201.223 311.862 201.37 312.622 201.663C313.395 201.957 314.095 202.403 314.722 203.003L313.202 204.783C312.255 204.01 311.242 203.623 310.162 203.623C309.589 203.623 309.135 203.743 308.802 203.983C308.469 204.21 308.302 204.543 308.302 204.983C308.302 205.29 308.375 205.543 308.522 205.743C308.669 205.93 308.929 206.11 309.302 206.283C309.675 206.457 310.235 206.663 310.982 206.903C312.395 207.357 313.435 207.917 314.102 208.583C314.769 209.237 315.102 210.17 315.102 211.383C315.102 212.25 314.882 213.017 314.442 213.683C314.002 214.337 313.369 214.85 312.542 215.223C311.715 215.583 310.735 215.763 309.602 215.763C308.469 215.763 307.462 215.583 306.582 215.223C305.715 214.863 304.969 214.383 304.342 213.783L306.002 211.963C306.535 212.417 307.082 212.757 307.642 212.983C308.215 213.21 308.835 213.323 309.502 213.323C310.182 213.323 310.715 213.177 311.102 212.883C311.502 212.577 311.702 212.157 311.702 211.623C311.702 211.277 311.629 210.99 311.482 210.763C311.335 210.523 311.082 210.31 310.722 210.123C310.362 209.937 309.842 209.737 309.162 209.523C307.629 209.057 306.535 208.483 305.882 207.803C305.242 207.123 304.922 206.263 304.922 205.223C304.922 204.423 305.135 203.723 305.562 203.123C305.989 202.51 306.582 202.043 307.342 201.723C308.102 201.39 308.962 201.223 309.922 201.223ZM326.107 209.903C326.107 210.343 326.087 210.723 326.047 211.043H319.467C319.574 211.937 319.827 212.563 320.227 212.923C320.627 213.283 321.181 213.463 321.887 213.463C322.314 213.463 322.727 213.39 323.127 213.243C323.527 213.083 323.961 212.843 324.427 212.523L325.727 214.283C324.487 215.27 323.107 215.763 321.587 215.763C319.867 215.763 318.547 215.257 317.627 214.243C316.707 213.23 316.247 211.87 316.247 210.163C316.247 209.083 316.441 208.117 316.827 207.263C317.214 206.397 317.781 205.717 318.527 205.223C319.274 204.717 320.167 204.463 321.207 204.463C322.741 204.463 323.941 204.943 324.807 205.903C325.674 206.863 326.107 208.197 326.107 209.903ZM323.007 209.003C322.981 207.377 322.407 206.563 321.287 206.563C320.741 206.563 320.314 206.763 320.007 207.163C319.714 207.563 319.534 208.223 319.467 209.143H323.007V209.003ZM330.703 215.763C329.783 215.763 329.063 215.503 328.543 214.983C328.036 214.45 327.783 213.697 327.783 212.723V200.583L330.943 200.243V212.603C330.943 213.043 331.123 213.263 331.483 213.263C331.669 213.263 331.843 213.23 332.003 213.163L332.623 215.403C332.049 215.643 331.409 215.763 330.703 215.763ZM342.982 209.903C342.982 210.343 342.962 210.723 342.922 211.043H336.342C336.449 211.937 336.702 212.563 337.102 212.923C337.502 213.283 338.056 213.463 338.762 213.463C339.189 213.463 339.602 213.39 340.002 213.243C340.402 213.083 340.836 212.843 341.302 212.523L342.602 214.283C341.362 215.27 339.982 215.763 338.462 215.763C336.742 215.763 335.422 215.257 334.502 214.243C333.582 213.23 333.122 211.87 333.122 210.163C333.122 209.083 333.316 208.117 333.702 207.263C334.089 206.397 334.656 205.717 335.402 205.223C336.149 204.717 337.042 204.463 338.082 204.463C339.616 204.463 340.816 204.943 341.682 205.903C342.549 206.863 342.982 208.197 342.982 209.903ZM339.882 209.003C339.856 207.377 339.282 206.563 338.162 206.563C337.616 206.563 337.189 206.763 336.882 207.163C336.589 207.563 336.409 208.223 336.342 209.143H339.882V209.003ZM349.358 204.463C350.091 204.463 350.751 204.57 351.338 204.783C351.924 204.997 352.478 205.323 352.998 205.763L351.638 207.643C350.971 207.137 350.298 206.883 349.618 206.883C348.911 206.883 348.378 207.143 348.018 207.663C347.658 208.183 347.478 209.023 347.478 210.183C347.478 211.303 347.658 212.097 348.018 212.563C348.378 213.03 348.898 213.263 349.578 213.263C349.938 213.263 350.264 213.21 350.558 213.103C350.851 212.983 351.204 212.797 351.618 212.543L352.998 214.503C351.944 215.343 350.751 215.763 349.418 215.763C348.338 215.763 347.404 215.537 346.618 215.083C345.831 214.617 345.224 213.97 344.798 213.143C344.371 212.303 344.158 211.323 344.158 210.203C344.158 209.083 344.371 208.09 344.798 207.223C345.224 206.357 345.831 205.683 346.618 205.203C347.404 204.71 348.318 204.463 349.358 204.463ZM360.988 214.923C360.601 215.19 360.148 215.397 359.628 215.543C359.121 215.69 358.615 215.763 358.108 215.763C355.788 215.75 354.628 214.47 354.628 211.923V207.003H353.128V204.803H354.628V202.503L357.788 202.143V204.803H360.228L359.888 207.003H357.788V211.883C357.788 212.377 357.868 212.73 358.028 212.943C358.188 213.157 358.441 213.263 358.788 213.263C359.148 213.263 359.528 213.15 359.928 212.923L360.988 214.923ZM372.509 201.223C373.375 201.223 374.142 201.35 374.809 201.603C375.489 201.857 376.129 202.237 376.729 202.743L375.169 204.603C374.755 204.283 374.349 204.043 373.949 203.883C373.549 203.723 373.122 203.643 372.669 203.643C371.735 203.643 370.995 204.037 370.449 204.823C369.915 205.61 369.649 206.823 369.649 208.463C369.649 210.077 369.915 211.277 370.449 212.063C370.995 212.837 371.749 213.223 372.709 213.223C373.215 213.223 373.675 213.13 374.089 212.943C374.502 212.743 374.949 212.463 375.429 212.103L376.889 213.983C376.369 214.503 375.735 214.93 374.989 215.263C374.255 215.597 373.442 215.763 372.549 215.763C371.269 215.763 370.155 215.483 369.209 214.923C368.262 214.363 367.522 213.537 366.989 212.443C366.469 211.337 366.209 210.01 366.209 208.463C366.209 206.957 366.475 205.657 367.009 204.563C367.555 203.47 368.302 202.643 369.249 202.083C370.209 201.51 371.295 201.223 372.509 201.223ZM386.537 212.343C386.537 212.743 386.591 213.037 386.697 213.223C386.817 213.41 387.004 213.55 387.257 213.643L386.597 215.703C385.944 215.65 385.411 215.51 384.997 215.283C384.584 215.043 384.264 214.67 384.037 214.163C383.344 215.23 382.277 215.763 380.837 215.763C379.784 215.763 378.944 215.457 378.317 214.843C377.691 214.23 377.377 213.43 377.377 212.443C377.377 211.283 377.804 210.397 378.657 209.783C379.511 209.17 380.744 208.863 382.357 208.863H383.437V208.403C383.437 207.777 383.304 207.35 383.037 207.123C382.771 206.883 382.304 206.763 381.637 206.763C381.291 206.763 380.871 206.817 380.377 206.923C379.884 207.017 379.377 207.15 378.857 207.323L378.137 205.243C378.804 204.99 379.484 204.797 380.177 204.663C380.884 204.53 381.537 204.463 382.137 204.463C383.657 204.463 384.771 204.777 385.477 205.403C386.184 206.03 386.537 206.97 386.537 208.223V212.343ZM381.757 213.503C382.477 213.503 383.037 213.163 383.437 212.483V210.603H382.657C381.937 210.603 381.397 210.73 381.037 210.983C380.691 211.237 380.517 211.63 380.517 212.163C380.517 212.59 380.624 212.923 380.837 213.163C381.064 213.39 381.371 213.503 381.757 213.503ZM395.714 214.923C395.328 215.19 394.874 215.397 394.354 215.543C393.848 215.69 393.341 215.763 392.834 215.763C390.514 215.75 389.354 214.47 389.354 211.923V207.003H387.854V204.803H389.354V202.503L392.514 202.143V204.803H394.954L394.614 207.003H392.514V211.883C392.514 212.377 392.594 212.73 392.754 212.943C392.914 213.157 393.168 213.263 393.514 213.263C393.874 213.263 394.254 213.15 394.654 212.923L395.714 214.923ZM405.678 209.903C405.678 210.343 405.658 210.723 405.618 211.043H399.038C399.144 211.937 399.398 212.563 399.798 212.923C400.198 213.283 400.751 213.463 401.458 213.463C401.884 213.463 402.298 213.39 402.698 213.243C403.098 213.083 403.531 212.843 403.998 212.523L405.298 214.283C404.058 215.27 402.678 215.763 401.158 215.763C399.438 215.763 398.118 215.257 397.198 214.243C396.278 213.23 395.818 211.87 395.818 210.163C395.818 209.083 396.011 208.117 396.398 207.263C396.784 206.397 397.351 205.717 398.098 205.223C398.844 204.717 399.738 204.463 400.778 204.463C402.311 204.463 403.511 204.943 404.378 205.903C405.244 206.863 405.678 208.197 405.678 209.903ZM402.578 209.003C402.551 207.377 401.978 206.563 400.858 206.563C400.311 206.563 399.884 206.763 399.578 207.163C399.284 207.563 399.104 208.223 399.038 209.143H402.578V209.003ZM417.233 205.423C416.54 205.703 415.52 205.843 414.173 205.843C414.866 206.137 415.373 206.497 415.693 206.923C416.013 207.35 416.173 207.903 416.173 208.583C416.173 209.263 415.993 209.877 415.633 210.423C415.273 210.957 414.753 211.377 414.073 211.683C413.406 211.99 412.62 212.143 411.713 212.143C411.286 212.143 410.88 212.103 410.493 212.023C410.386 212.077 410.3 212.163 410.233 212.283C410.18 212.39 410.153 212.503 410.153 212.623C410.153 212.823 410.226 212.983 410.373 213.103C410.533 213.21 410.846 213.263 411.313 213.263H412.913C413.726 213.263 414.44 213.397 415.053 213.663C415.666 213.93 416.14 214.297 416.473 214.763C416.806 215.23 416.973 215.757 416.973 216.343C416.973 217.45 416.493 218.31 415.533 218.923C414.586 219.55 413.213 219.863 411.413 219.863C410.12 219.863 409.1 219.723 408.353 219.443C407.606 219.177 407.08 218.797 406.773 218.303C406.48 217.81 406.333 217.19 406.333 216.443H409.173C409.173 216.763 409.233 217.017 409.353 217.203C409.486 217.39 409.72 217.53 410.053 217.623C410.386 217.717 410.866 217.763 411.493 217.763C412.36 217.763 412.96 217.657 413.293 217.443C413.626 217.243 413.793 216.95 413.793 216.563C413.793 216.243 413.666 215.99 413.413 215.803C413.16 215.617 412.78 215.523 412.273 215.523H410.733C409.64 215.523 408.82 215.33 408.273 214.943C407.74 214.543 407.473 214.037 407.473 213.423C407.473 213.037 407.586 212.663 407.813 212.303C408.04 211.93 408.346 211.623 408.733 211.383C408.066 211.023 407.58 210.603 407.273 210.123C406.98 209.63 406.833 209.037 406.833 208.343C406.833 207.157 407.26 206.217 408.113 205.523C408.966 204.817 410.093 204.463 411.493 204.463C412.56 204.49 413.46 204.383 414.193 204.143C414.94 203.903 415.706 203.55 416.493 203.083L417.233 205.423ZM411.573 206.543C411.08 206.543 410.686 206.703 410.393 207.023C410.113 207.33 409.973 207.757 409.973 208.303C409.973 208.877 410.113 209.323 410.393 209.643C410.686 209.95 411.08 210.103 411.573 210.103C412.093 210.103 412.486 209.95 412.753 209.643C413.033 209.337 413.173 208.877 413.173 208.263C413.173 207.117 412.64 206.543 411.573 206.543ZM422.619 204.463C424.246 204.463 425.519 204.963 426.439 205.963C427.359 206.95 427.819 208.337 427.819 210.123C427.819 211.257 427.606 212.25 427.179 213.103C426.766 213.943 426.166 214.597 425.379 215.063C424.606 215.53 423.686 215.763 422.619 215.763C421.006 215.763 419.733 215.27 418.799 214.283C417.879 213.283 417.419 211.89 417.419 210.103C417.419 208.97 417.626 207.983 418.039 207.143C418.466 206.29 419.066 205.63 419.839 205.163C420.626 204.697 421.553 204.463 422.619 204.463ZM422.619 206.783C421.979 206.783 421.499 207.057 421.179 207.603C420.859 208.137 420.699 208.97 420.699 210.103C420.699 211.263 420.853 212.11 421.159 212.643C421.479 213.177 421.966 213.443 422.619 213.443C423.259 213.443 423.739 213.177 424.059 212.643C424.379 212.097 424.539 211.257 424.539 210.123C424.539 208.963 424.379 208.117 424.059 207.583C423.753 207.05 423.273 206.783 422.619 206.783ZM435.459 204.503C435.846 204.503 436.199 204.55 436.519 204.643L436.019 207.703C435.619 207.61 435.299 207.563 435.059 207.563C434.432 207.563 433.952 207.783 433.619 208.223C433.299 208.65 433.046 209.297 432.859 210.163V215.423H429.699V204.803H432.459L432.719 206.863C432.959 206.13 433.319 205.557 433.799 205.143C434.292 204.717 434.846 204.503 435.459 204.503ZM443.586 215.443C443.16 216.817 442.46 217.87 441.486 218.603C440.526 219.35 439.233 219.77 437.606 219.863L437.266 217.643C438.28 217.51 439.026 217.283 439.506 216.963C440 216.643 440.393 216.13 440.686 215.423H439.606L436.366 204.803H439.726L441.626 213.403L443.706 204.803H446.966L443.586 215.443Z" fill="white"/>
<rect x="731" y="325.483" width="215.492" height="71.8307" rx="35.9154" fill="#227C9D"/>
<path d="M790.257 355.306L789.937 357.826H786.517V369.166H783.237V357.826H779.657V355.306H790.257ZM796.577 369.186C796.15 370.559 795.45 371.613 794.477 372.346C793.517 373.093 792.223 373.513 790.597 373.606L790.257 371.386C791.27 371.253 792.017 371.026 792.497 370.706C792.99 370.386 793.383 369.873 793.677 369.166H792.597L789.357 358.546H792.717L794.617 367.146L796.697 358.546H799.957L796.577 369.186ZM807.068 358.206C808.401 358.206 809.395 358.699 810.048 359.686C810.701 360.673 811.028 362.053 811.028 363.826C811.028 364.919 810.855 365.899 810.508 366.766C810.175 367.619 809.688 368.293 809.048 368.786C808.408 369.266 807.661 369.506 806.808 369.506C805.741 369.506 804.881 369.139 804.228 368.406V373.266L801.068 373.606V358.546H803.848L804.008 359.726C804.421 359.206 804.895 358.826 805.428 358.586C805.961 358.333 806.508 358.206 807.068 358.206ZM805.848 367.186C807.115 367.186 807.748 366.079 807.748 363.866C807.748 362.613 807.608 361.746 807.328 361.266C807.048 360.773 806.628 360.526 806.068 360.526C805.708 360.526 805.368 360.633 805.048 360.846C804.741 361.059 804.468 361.366 804.228 361.766V366.246C804.655 366.873 805.195 367.186 805.848 367.186ZM822.262 363.646C822.262 364.086 822.242 364.466 822.202 364.786H815.622C815.728 365.679 815.982 366.306 816.382 366.666C816.782 367.026 817.335 367.206 818.042 367.206C818.468 367.206 818.882 367.133 819.282 366.986C819.682 366.826 820.115 366.586 820.582 366.266L821.882 368.026C820.642 369.013 819.262 369.506 817.742 369.506C816.022 369.506 814.702 368.999 813.782 367.986C812.862 366.973 812.402 365.613 812.402 363.906C812.402 362.826 812.595 361.859 812.982 361.006C813.368 360.139 813.935 359.459 814.682 358.966C815.428 358.459 816.322 358.206 817.362 358.206C818.895 358.206 820.095 358.686 820.962 359.646C821.828 360.606 822.262 361.939 822.262 363.646ZM819.162 362.746C819.135 361.119 818.562 360.306 817.442 360.306C816.895 360.306 816.468 360.506 816.162 360.906C815.868 361.306 815.688 361.966 815.622 362.886H819.162V362.746ZM832.123 355.306V369.166H828.843V355.306H832.123ZM840.862 358.206C841.782 358.206 842.502 358.486 843.022 359.046C843.542 359.606 843.802 360.393 843.802 361.406V369.166H840.642V361.946C840.642 361.413 840.556 361.046 840.382 360.846C840.222 360.633 839.976 360.526 839.642 360.526C839.002 360.526 838.389 360.986 837.802 361.906V369.166H834.642V358.546H837.402L837.622 359.806C838.076 359.273 838.562 358.873 839.082 358.606C839.616 358.339 840.209 358.206 840.862 358.206ZM866.431 355.306L864.111 369.166H859.851L858.131 358.586L856.311 369.166H852.151L849.871 355.306H853.151L854.531 366.686L856.451 355.306H859.891L861.691 366.686L863.311 355.306H866.431ZM872.27 358.206C873.896 358.206 875.17 358.706 876.09 359.706C877.01 360.693 877.47 362.079 877.47 363.866C877.47 364.999 877.256 365.993 876.83 366.846C876.416 367.686 875.816 368.339 875.03 368.806C874.256 369.273 873.336 369.506 872.27 369.506C870.656 369.506 869.383 369.013 868.45 368.026C867.53 367.026 867.07 365.633 867.07 363.846C867.07 362.713 867.276 361.726 867.69 360.886C868.116 360.033 868.716 359.373 869.49 358.906C870.276 358.439 871.203 358.206 872.27 358.206ZM872.27 360.526C871.63 360.526 871.15 360.799 870.83 361.346C870.51 361.879 870.35 362.713 870.35 363.846C870.35 365.006 870.503 365.853 870.81 366.386C871.13 366.919 871.616 367.186 872.27 367.186C872.91 367.186 873.39 366.919 873.71 366.386C874.03 365.839 874.19 364.999 874.19 363.866C874.19 362.706 874.03 361.859 873.71 361.326C873.403 360.793 872.923 360.526 872.27 360.526ZM885.109 358.246C885.496 358.246 885.849 358.293 886.169 358.386L885.669 361.446C885.269 361.353 884.949 361.306 884.709 361.306C884.083 361.306 883.603 361.526 883.269 361.966C882.949 362.393 882.696 363.039 882.509 363.906V369.166H879.349V358.546H882.109L882.369 360.606C882.609 359.873 882.969 359.299 883.449 358.886C883.943 358.459 884.496 358.246 885.109 358.246ZM896.291 354.326V369.166H893.491L893.331 367.926C892.585 368.979 891.578 369.506 890.311 369.506C888.991 369.506 887.985 368.999 887.291 367.986C886.611 366.973 886.271 365.586 886.271 363.826C886.271 362.746 886.451 361.779 886.811 360.926C887.171 360.073 887.678 359.406 888.331 358.926C888.998 358.446 889.758 358.206 890.611 358.206C891.625 358.206 892.465 358.539 893.131 359.206V353.986L896.291 354.326ZM891.291 367.186C892.025 367.186 892.638 366.786 893.131 365.986V361.406C892.878 361.099 892.618 360.873 892.351 360.726C892.098 360.579 891.805 360.506 891.471 360.506C890.885 360.506 890.418 360.779 890.071 361.326C889.725 361.873 889.551 362.713 889.551 363.846C889.551 365.086 889.698 365.953 889.991 366.446C890.298 366.939 890.731 367.186 891.291 367.186Z" fill="white"/>
<rect x="1026.32" y="361.95" width="127.319" height="126.557" rx="18" transform="rotate(-45 1026.32 361.95)" fill="#FE6D73"/>
<path d="M1087.1 343.184C1089.27 343.184 1091.01 343.677 1092.32 344.664C1093.64 345.637 1094.3 347.431 1094.3 350.044C1094.3 352.617 1093.66 354.431 1092.38 355.484C1091.1 356.524 1089.44 357.044 1087.4 357.044H1083.24V343.184H1087.1ZM1086.52 345.564V354.664H1087.6C1088.68 354.664 1089.5 354.331 1090.06 353.664C1090.62 352.984 1090.9 351.777 1090.9 350.044C1090.9 348.857 1090.76 347.937 1090.48 347.284C1090.2 346.631 1089.82 346.184 1089.34 345.944C1088.86 345.691 1088.26 345.564 1087.56 345.564H1086.52ZM1100.8 346.084C1102.43 346.084 1103.7 346.584 1104.62 347.584C1105.54 348.571 1106 349.957 1106 351.744C1106 352.877 1105.79 353.871 1105.36 354.724C1104.95 355.564 1104.35 356.217 1103.56 356.684C1102.79 357.151 1101.87 357.384 1100.8 357.384C1099.19 357.384 1097.92 356.891 1096.98 355.904C1096.06 354.904 1095.6 353.511 1095.6 351.724C1095.6 350.591 1095.81 349.604 1096.22 348.764C1096.65 347.911 1097.25 347.251 1098.02 346.784C1098.81 346.317 1099.74 346.084 1100.8 346.084ZM1100.8 348.404C1100.16 348.404 1099.68 348.677 1099.36 349.224C1099.04 349.757 1098.88 350.591 1098.88 351.724C1098.88 352.884 1099.04 353.731 1099.34 354.264C1099.66 354.797 1100.15 355.064 1100.8 355.064C1101.44 355.064 1101.92 354.797 1102.24 354.264C1102.56 353.717 1102.72 352.877 1102.72 351.744C1102.72 350.584 1102.56 349.737 1102.24 349.204C1101.94 348.671 1101.46 348.404 1100.8 348.404ZM1117.14 351.524C1117.14 351.964 1117.12 352.344 1117.08 352.664H1110.5C1110.61 353.557 1110.86 354.184 1111.26 354.544C1111.66 354.904 1112.22 355.084 1112.92 355.084C1113.35 355.084 1113.76 355.011 1114.16 354.864C1114.56 354.704 1115 354.464 1115.46 354.144L1116.76 355.904C1115.52 356.891 1114.14 357.384 1112.62 357.384C1110.9 357.384 1109.58 356.877 1108.66 355.864C1107.74 354.851 1107.28 353.491 1107.28 351.784C1107.28 350.704 1107.48 349.737 1107.86 348.884C1108.25 348.017 1108.82 347.337 1109.56 346.844C1110.31 346.337 1111.2 346.084 1112.24 346.084C1113.78 346.084 1114.98 346.564 1115.84 347.524C1116.71 348.484 1117.14 349.817 1117.14 351.524ZM1114.04 350.624C1114.02 348.997 1113.44 348.184 1112.32 348.184C1111.78 348.184 1111.35 348.384 1111.04 348.784C1110.75 349.184 1110.57 349.844 1110.5 350.764H1114.04V350.624ZM1122.66 346.084C1123.42 346.084 1124.13 346.197 1124.8 346.424C1125.47 346.651 1126.05 346.971 1126.56 347.384L1125.4 349.164C1124.53 348.617 1123.66 348.344 1122.78 348.344C1122.37 348.344 1122.05 348.417 1121.82 348.564C1121.61 348.697 1121.5 348.891 1121.5 349.144C1121.5 349.344 1121.55 349.511 1121.64 349.644C1121.75 349.764 1121.95 349.891 1122.26 350.024C1122.57 350.157 1123.04 350.317 1123.68 350.504C1124.79 350.824 1125.61 351.244 1126.14 351.764C1126.69 352.271 1126.96 352.977 1126.96 353.884C1126.96 354.604 1126.75 355.231 1126.34 355.764C1125.93 356.284 1125.36 356.684 1124.64 356.964C1123.92 357.244 1123.12 357.384 1122.24 357.384C1121.35 357.384 1120.51 357.244 1119.74 356.964C1118.98 356.684 1118.33 356.297 1117.8 355.804L1119.34 354.084C1120.23 354.777 1121.17 355.124 1122.16 355.124C1122.64 355.124 1123.01 355.037 1123.28 354.864C1123.56 354.691 1123.7 354.444 1123.7 354.124C1123.7 353.871 1123.65 353.671 1123.54 353.524C1123.43 353.377 1123.23 353.244 1122.92 353.124C1122.61 352.991 1122.13 352.831 1121.46 352.644C1120.41 352.337 1119.62 351.911 1119.1 351.364C1118.58 350.817 1118.32 350.137 1118.32 349.324C1118.32 348.711 1118.49 348.164 1118.84 347.684C1119.2 347.191 1119.71 346.804 1120.36 346.524C1121.03 346.231 1121.79 346.084 1122.66 346.084ZM1136.67 343.184V357.044H1133.39V343.184H1136.67ZM1145.85 356.544C1145.47 356.811 1145.01 357.017 1144.49 357.164C1143.99 357.311 1143.48 357.384 1142.97 357.384C1140.65 357.371 1139.49 356.091 1139.49 353.544V348.624H1137.99V346.424H1139.49V344.124L1142.65 343.764V346.424H1145.09L1144.75 348.624H1142.65V353.504C1142.65 353.997 1142.73 354.351 1142.89 354.564C1143.05 354.777 1143.31 354.884 1143.65 354.884C1144.01 354.884 1144.39 354.771 1144.79 354.544L1145.85 356.544ZM1099.15 381.044H1095.93L1095.69 375.624C1095.62 374.331 1095.59 373.177 1095.59 372.164C1095.59 371.391 1095.61 370.657 1095.65 369.964L1093.51 379.584H1090.41L1088.13 369.964C1088.21 371.124 1088.25 372.217 1088.25 373.244C1088.25 374.017 1088.23 374.824 1088.19 375.664L1087.95 381.044H1084.75L1085.79 367.184H1089.93L1092.01 376.584L1093.95 367.184H1098.11L1099.15 381.044ZM1109.49 377.964C1109.49 378.364 1109.54 378.657 1109.65 378.844C1109.77 379.031 1109.95 379.171 1110.21 379.264L1109.55 381.324C1108.89 381.271 1108.36 381.131 1107.95 380.904C1107.53 380.664 1107.21 380.291 1106.99 379.784C1106.29 380.851 1105.23 381.384 1103.79 381.384C1102.73 381.384 1101.89 381.077 1101.27 380.464C1100.64 379.851 1100.33 379.051 1100.33 378.064C1100.33 376.904 1100.75 376.017 1101.61 375.404C1102.46 374.791 1103.69 374.484 1105.31 374.484H1106.39V374.024C1106.39 373.397 1106.25 372.971 1105.99 372.744C1105.72 372.504 1105.25 372.384 1104.59 372.384C1104.24 372.384 1103.82 372.437 1103.33 372.544C1102.83 372.637 1102.33 372.771 1101.81 372.944L1101.09 370.864C1101.75 370.611 1102.43 370.417 1103.13 370.284C1103.83 370.151 1104.49 370.084 1105.09 370.084C1106.61 370.084 1107.72 370.397 1108.43 371.024C1109.13 371.651 1109.49 372.591 1109.49 373.844V377.964ZM1104.71 379.124C1105.43 379.124 1105.99 378.784 1106.39 378.104V376.224H1105.61C1104.89 376.224 1104.35 376.351 1103.99 376.604C1103.64 376.857 1103.47 377.251 1103.47 377.784C1103.47 378.211 1103.57 378.544 1103.79 378.784C1104.01 379.011 1104.32 379.124 1104.71 379.124ZM1118.67 380.544C1118.28 380.811 1117.83 381.017 1117.31 381.164C1116.8 381.311 1116.29 381.384 1115.79 381.384C1113.47 381.371 1112.31 380.091 1112.31 377.544V372.624H1110.81V370.424H1112.31V368.124L1115.47 367.764V370.424H1117.91L1117.57 372.624H1115.47V377.504C1115.47 377.997 1115.55 378.351 1115.71 378.564C1115.87 378.777 1116.12 378.884 1116.47 378.884C1116.83 378.884 1117.21 378.771 1117.61 378.544L1118.67 380.544ZM1123.97 370.084C1124.7 370.084 1125.36 370.191 1125.95 370.404C1126.54 370.617 1127.09 370.944 1127.61 371.384L1126.25 373.264C1125.58 372.757 1124.91 372.504 1124.23 372.504C1123.52 372.504 1122.99 372.764 1122.63 373.284C1122.27 373.804 1122.09 374.644 1122.09 375.804C1122.09 376.924 1122.27 377.717 1122.63 378.184C1122.99 378.651 1123.51 378.884 1124.19 378.884C1124.55 378.884 1124.88 378.831 1125.17 378.724C1125.46 378.604 1125.82 378.417 1126.23 378.164L1127.61 380.124C1126.56 380.964 1125.36 381.384 1124.03 381.384C1122.95 381.384 1122.02 381.157 1121.23 380.704C1120.44 380.237 1119.84 379.591 1119.41 378.764C1118.98 377.924 1118.77 376.944 1118.77 375.824C1118.77 374.704 1118.98 373.711 1119.41 372.844C1119.84 371.977 1120.44 371.304 1121.23 370.824C1122.02 370.331 1122.93 370.084 1123.97 370.084ZM1135.16 370.084C1136.08 370.084 1136.8 370.364 1137.32 370.924C1137.84 371.484 1138.1 372.271 1138.1 373.284V381.044H1134.94V373.824C1134.94 373.291 1134.85 372.924 1134.68 372.724C1134.51 372.511 1134.26 372.404 1133.94 372.404C1133.3 372.404 1132.69 372.857 1132.1 373.764V381.044H1128.94V366.204L1132.1 365.884V371.564C1132.54 371.071 1133.01 370.704 1133.5 370.464C1133.99 370.211 1134.55 370.084 1135.16 370.084ZM1143.6 366.844C1144.53 366.844 1145.32 366.997 1145.98 367.304C1146.64 367.597 1147.14 367.997 1147.48 368.504C1147.81 369.011 1147.98 369.571 1147.98 370.184C1147.98 370.731 1147.88 371.197 1147.68 371.584C1147.49 371.971 1147.26 372.284 1147 372.524C1146.73 372.764 1146.38 373.044 1145.94 373.364C1145.4 373.724 1145.01 374.051 1144.76 374.344C1144.5 374.624 1144.38 374.991 1144.38 375.444V375.944H1141.5V375.324C1141.5 374.697 1141.59 374.171 1141.78 373.744C1141.98 373.304 1142.21 372.964 1142.48 372.724C1142.76 372.471 1143.1 372.197 1143.52 371.904C1143.92 371.637 1144.21 371.404 1144.4 371.204C1144.58 371.004 1144.68 370.757 1144.68 370.464C1144.68 370.104 1144.55 369.824 1144.3 369.624C1144.06 369.424 1143.72 369.324 1143.28 369.324C1142.44 369.324 1141.66 369.731 1140.94 370.544L1138.92 368.984C1140.13 367.557 1141.69 366.844 1143.6 366.844ZM1142.98 377.764C1143.47 377.764 1143.89 377.944 1144.24 378.304C1144.6 378.651 1144.78 379.071 1144.78 379.564C1144.78 380.071 1144.6 380.504 1144.24 380.864C1143.89 381.211 1143.47 381.384 1142.98 381.384C1142.48 381.384 1142.06 381.211 1141.7 380.864C1141.35 380.504 1141.18 380.071 1141.18 379.564C1141.18 379.071 1141.35 378.651 1141.7 378.304C1142.06 377.944 1142.48 377.764 1142.98 377.764Z" fill="white"/>
<rect x="1086" y="497" width="57" height="40" fill="white"/>
<path d="M1116.1 522H1114.91L1110.07 512.715C1110.15 513.965 1110.19 515.145 1110.19 516.255V522H1109.33V511.725H1110.49L1115.36 521.01C1115.28 519.85 1115.24 518.835 1115.24 517.965V511.725H1116.1V522ZM1122.05 513.99C1123.09 513.99 1123.9 514.35 1124.48 515.07C1125.07 515.78 1125.37 516.775 1125.37 518.055C1125.37 519.325 1125.07 520.33 1124.47 521.07C1123.88 521.8 1123.07 522.165 1122.04 522.165C1121 522.165 1120.18 521.805 1119.59 521.085C1119.01 520.355 1118.72 519.355 1118.72 518.085C1118.72 517.255 1118.86 516.53 1119.13 515.91C1119.4 515.29 1119.78 514.815 1120.28 514.485C1120.78 514.155 1121.37 513.99 1122.05 513.99ZM1122.05 514.725C1121.29 514.725 1120.7 515.01 1120.28 515.58C1119.86 516.15 1119.65 516.985 1119.65 518.085C1119.65 519.175 1119.86 520.005 1120.27 520.575C1120.69 521.145 1121.28 521.43 1122.04 521.43C1122.8 521.43 1123.39 521.145 1123.81 520.575C1124.24 520.005 1124.45 519.165 1124.45 518.055C1124.45 516.965 1124.24 516.14 1123.82 515.58C1123.41 515.01 1122.82 514.725 1122.05 514.725Z" fill="black"/>
<rect x="1086" y="189" width="57" height="40" fill="white"/>
<path d="M1113.61 203.725L1110.36 209.98V214H1109.46V209.995L1106.17 203.725H1107.18L1109.94 209.185L1112.65 203.725H1113.61ZM1120.18 209.785C1120.18 210.005 1120.17 210.215 1120.15 210.415H1114.91C1114.96 211.435 1115.2 212.195 1115.63 212.695C1116.07 213.185 1116.65 213.43 1117.36 213.43C1117.77 213.43 1118.13 213.37 1118.44 213.25C1118.76 213.12 1119.1 212.92 1119.47 212.65L1119.88 213.205C1119.49 213.525 1119.09 213.765 1118.68 213.925C1118.27 214.085 1117.81 214.165 1117.31 214.165C1116.27 214.165 1115.46 213.81 1114.87 213.1C1114.28 212.39 1113.98 211.405 1113.98 210.145C1113.98 209.315 1114.11 208.59 1114.36 207.97C1114.62 207.34 1114.98 206.855 1115.45 206.515C1115.93 206.165 1116.49 205.99 1117.12 205.99C1118.12 205.99 1118.88 206.33 1119.4 207.01C1119.92 207.68 1120.18 208.605 1120.18 209.785ZM1119.32 209.515C1119.32 208.635 1119.14 207.95 1118.77 207.46C1118.41 206.96 1117.87 206.71 1117.15 206.71C1116.5 206.71 1115.97 206.96 1115.57 207.46C1115.17 207.96 1114.95 208.72 1114.91 209.74H1119.32V209.515ZM1124.57 205.99C1125.06 205.99 1125.51 206.065 1125.91 206.215C1126.31 206.355 1126.7 206.57 1127.08 206.86L1126.67 207.43C1126.31 207.18 1125.97 207 1125.65 206.89C1125.33 206.77 1124.98 206.71 1124.6 206.71C1124.08 206.71 1123.66 206.83 1123.34 207.07C1123.02 207.31 1122.86 207.63 1122.86 208.03C1122.86 208.41 1123 208.705 1123.27 208.915C1123.55 209.125 1124.05 209.325 1124.77 209.515C1125.66 209.745 1126.3 210.035 1126.69 210.385C1127.09 210.735 1127.29 211.235 1127.29 211.885C1127.29 212.585 1127.02 213.14 1126.48 213.55C1125.94 213.96 1125.26 214.165 1124.45 214.165C1123.85 214.165 1123.33 214.08 1122.88 213.91C1122.43 213.73 1122.02 213.48 1121.65 213.16L1122.13 212.605C1122.48 212.885 1122.83 213.095 1123.19 213.235C1123.56 213.365 1123.98 213.43 1124.44 213.43C1125.02 213.43 1125.48 213.3 1125.83 213.04C1126.19 212.77 1126.37 212.4 1126.37 211.93C1126.37 211.61 1126.31 211.35 1126.19 211.15C1126.07 210.95 1125.87 210.78 1125.58 210.64C1125.29 210.49 1124.86 210.34 1124.3 210.19C1123.47 209.97 1122.87 209.695 1122.5 209.365C1122.14 209.035 1121.96 208.595 1121.96 208.045C1121.96 207.655 1122.08 207.305 1122.31 206.995C1122.54 206.675 1122.85 206.43 1123.24 206.26C1123.64 206.08 1124.08 205.99 1124.57 205.99Z" fill="black"/>
<circle cx="483" cy="209" r="4.5" fill="#FFCA00" stroke="black"/>
<circle cx="483" cy="522" r="4.5" fill="#FFCA00" stroke="black"/>
<circle cx="289" cy="363" r="4.5" fill="#FFCA00" stroke="black"/>
<circle cx="670" cy="363" r="4.5" fill="#FFCA00" stroke="black"/>
<circle cx="946" cy="363" r="4.5" fill="#FFCA00" stroke="black"/>
<circle cx="1116" cy="443" r="4.5" fill="#FFCA00" stroke="black"/>
<circle cx="1116" cy="280" r="4.5" fill="#FFCA00" stroke="black"/>
<line x1="696.5" y1="123" x2="696.5" y2="602" stroke="black"/>
<path d="M366.646 157.354C366.842 157.549 367.158 157.549 367.354 157.354L370.536 154.172C370.731 153.976 370.731 153.66 370.536 153.464C370.34 153.269 370.024 153.269 369.828 153.464L367 156.293L364.172 153.464C363.976 153.269 363.66 153.269 363.464 153.464C363.269 153.66 363.269 153.976 363.464 154.172L366.646 157.354ZM366.5 123L366.5 157L367.5 157L367.5 123L366.5 123Z" fill="black"/>
<path d="M367.354 567.646C367.158 567.451 366.842 567.451 366.646 567.646L363.464 570.828C363.269 571.024 363.269 571.34 363.464 571.536C363.66 571.731 363.976 571.731 364.172 571.536L367 568.707L369.828 571.536C370.024 571.731 370.34 571.731 370.536 571.536C370.731 571.34 370.731 571.024 370.536 570.828L367.354 567.646ZM367.5 602L367.5 568L366.5 568L366.5 602L367.5 602Z" fill="black"/>
<rect x="731" y="118" width="215.492" height="71.8307" rx="35.9154" fill="#227C9D"/>
<path d="M801.935 162V156.06H797.775V162H794.495V148.14H797.775V153.5H801.935V148.14H805.215V162H801.935ZM810.916 151.38V162H807.756V151.38H810.916ZM809.316 145.78C809.862 145.78 810.309 145.953 810.656 146.3C811.016 146.633 811.196 147.06 811.196 147.58C811.196 148.1 811.016 148.533 810.656 148.88C810.309 149.213 809.862 149.38 809.316 149.38C808.769 149.38 808.322 149.213 807.976 148.88C807.629 148.533 807.456 148.1 807.456 147.58C807.456 147.06 807.629 146.633 807.976 146.3C808.322 145.953 808.769 145.78 809.316 145.78ZM820.06 161.5C819.673 161.767 819.22 161.973 818.7 162.12C818.193 162.267 817.687 162.34 817.18 162.34C814.86 162.327 813.7 161.047 813.7 158.5V153.58H812.2V151.38H813.7V149.08L816.86 148.72V151.38H819.3L818.96 153.58H816.86V158.46C816.86 158.953 816.94 159.307 817.1 159.52C817.26 159.733 817.513 159.84 817.86 159.84C818.22 159.84 818.6 159.727 819 159.5L820.06 161.5ZM827.061 152.78C826.581 152.78 826.181 152.627 825.861 152.32C825.541 152.013 825.381 151.627 825.381 151.16C825.381 150.907 825.421 150.647 825.501 150.38C825.594 150.113 825.748 149.753 825.961 149.3L827.241 146.68H828.861L828.021 149.8C828.514 150.147 828.761 150.607 828.761 151.18C828.761 151.633 828.594 152.013 828.261 152.32C827.941 152.627 827.541 152.78 827.061 152.78ZM839.284 148.14L838.944 150.48H834.064V153.8H838.324V156.1H834.064V159.64H839.284V162H830.784V148.14H839.284ZM847.276 151.04C848.196 151.04 848.916 151.32 849.436 151.88C849.956 152.44 850.216 153.227 850.216 154.24V162H847.056V154.78C847.056 154.247 846.97 153.88 846.796 153.68C846.636 153.467 846.39 153.36 846.056 153.36C845.416 153.36 844.803 153.82 844.216 154.74V162H841.056V151.38H843.816L844.036 152.64C844.49 152.107 844.976 151.707 845.496 151.44C846.03 151.173 846.623 151.04 847.276 151.04ZM859.259 161.5C858.873 161.767 858.419 161.973 857.899 162.12C857.393 162.267 856.886 162.34 856.379 162.34C854.059 162.327 852.899 161.047 852.899 158.5V153.58H851.399V151.38H852.899V149.08L856.059 148.72V151.38H858.499L858.159 153.58H856.059V158.46C856.059 158.953 856.139 159.307 856.299 159.52C856.459 159.733 856.713 159.84 857.059 159.84C857.419 159.84 857.799 159.727 858.199 159.5L859.259 161.5ZM869.223 156.48C869.223 156.92 869.203 157.3 869.163 157.62H862.583C862.689 158.513 862.943 159.14 863.343 159.5C863.743 159.86 864.296 160.04 865.003 160.04C865.429 160.04 865.843 159.967 866.243 159.82C866.643 159.66 867.076 159.42 867.543 159.1L868.843 160.86C867.603 161.847 866.223 162.34 864.703 162.34C862.983 162.34 861.663 161.833 860.743 160.82C859.823 159.807 859.363 158.447 859.363 156.74C859.363 155.66 859.556 154.693 859.943 153.84C860.329 152.973 860.896 152.293 861.643 151.8C862.389 151.293 863.283 151.04 864.323 151.04C865.856 151.04 867.056 151.52 867.923 152.48C868.789 153.44 869.223 154.773 869.223 156.48ZM866.123 155.58C866.096 153.953 865.523 153.14 864.403 153.14C863.856 153.14 863.429 153.34 863.123 153.74C862.829 154.14 862.649 154.8 862.583 155.72H866.123V155.58ZM876.758 151.08C877.144 151.08 877.498 151.127 877.818 151.22L877.318 154.28C876.918 154.187 876.598 154.14 876.358 154.14C875.731 154.14 875.251 154.36 874.918 154.8C874.598 155.227 874.344 155.873 874.158 156.74V162H870.998V151.38H873.758L874.018 153.44C874.258 152.707 874.618 152.133 875.098 151.72C875.591 151.293 876.144 151.08 876.758 151.08ZM880.361 146.68C880.841 146.68 881.241 146.833 881.561 147.14C881.881 147.447 882.041 147.833 882.041 148.3C882.041 148.553 881.995 148.813 881.901 149.08C881.821 149.347 881.675 149.707 881.461 150.16L880.181 152.78H878.561L879.401 149.66C878.908 149.313 878.661 148.853 878.661 148.28C878.661 147.827 878.821 147.447 879.141 147.14C879.475 146.833 879.881 146.68 880.361 146.68Z" fill="white"/>
<circle cx="731" cy="155" r="4.5" fill="#FFCA00" stroke="black"/>
<path d="M951.646 153.646C951.451 153.842 951.451 154.158 951.646 154.354L954.828 157.536C955.024 157.731 955.34 157.731 955.536 157.536C955.731 157.34 955.731 157.024 955.536 156.828L952.707 154L955.536 151.172C955.731 150.976 955.731 150.66 955.536 150.464C955.34 150.269 955.024 150.269 954.828 150.464L951.646 153.646ZM1117 153.5L952 153.5L952 154.5L1117 154.5L1117 153.5Z" fill="black"/>
</svg>
