<svg width="240" height="234" viewBox="0 0 240 234" fill="none" xmlns="http://www.w3.org/2000/svg">
<path d="M42.5 1.88608e-05H197.5C203.083 -0.00524284 208.612 1.09046 213.77 3.22442C218.929 5.35838 223.616 8.48871 227.564 12.4362C231.511 16.3838 234.642 21.071 236.776 26.2297C238.91 31.3885 240.005 36.9174 240 42.5V191.5C240.005 197.083 238.91 202.612 236.776 207.77C234.642 212.929 231.511 217.616 227.564 221.564C223.616 225.511 218.929 228.642 213.77 230.776C208.612 232.91 203.083 234.005 197.5 234H42.5C36.9174 234.005 31.3885 232.91 26.2297 230.776C21.071 228.642 16.3838 225.511 12.4362 221.564C8.48871 217.616 5.35838 212.929 3.22442 207.77C1.09046 202.612 -0.00524284 197.083 1.88608e-05 191.5V42.5C-0.00524284 36.9174 1.09046 31.3885 3.22442 26.2297C5.35838 21.071 8.48871 16.3838 12.4362 12.4362C16.3838 8.48871 21.071 5.35838 26.2297 3.22442C31.3885 1.09046 36.9174 -0.00524284 42.5 1.88608e-05V1.88608e-05Z" fill="#FFF85C"/>
<rect x="77" y="77" width="86" height="102" fill="white"/>
<path d="M71.9489 186.48L61 66L178.953 66.046L168.096 186.388L119.885 200L71.9489 186.48ZM159.218 179.905L168.372 76.7145H120.069L120.437 190.527L159.218 179.905V179.905ZM115.56 91.8435H103.829L103.691 153.601L80.9196 147.393L80.9656 161.511L115.56 170.846V91.8435V91.8435Z" fill="#D4B830"/>
<path d="M120.069 76.6685H168.373L159.218 179.859L120.069 190.481V76.6685ZM156.734 162.568L159.908 123.987L136.446 126.608V106.007L161.472 105.915L162.484 91.8435L124.715 92.0274L125.221 143.255L148.039 139.346L147.717 150.75L124.715 156.866L124.945 170.846L156.734 162.568Z" fill="#FDD83C"/>
<path d="M117.897 35H110.458V49.8958H99.9998V57.2505H117.897V35Z" fill="black"/>
<path d="M121.62 35H139.297V41.3593H129.012V42.6311H139.297V57.2576H121.62V50.5796H131.904V49.3078H121.62L121.62 35Z" fill="black"/>
</svg>
