<svg width="59" height="58" viewBox="0 0 59 58" fill="none" xmlns="http://www.w3.org/2000/svg">
<path d="M58.7802 25.3928C58.6675 24.4718 57.8939 23.7758 56.9677 23.7758H53.6275H51.5626H50.0334C49.3519 23.7758 48.7993 24.3292 48.7993 25.0121V28.8729C48.7993 29.7446 49.5047 30.4512 50.3747 30.4512C51.3268 30.4512 52.0706 31.2931 51.9351 32.2374C51.3017 36.6533 49.381 40.7961 46.3644 44.1467C45.2061 45.433 43.9171 46.5717 42.5253 47.5479C41.3187 48.3942 39.6595 47.5254 39.6595 46.0499V11.9509C39.6595 10.4753 41.3187 9.60643 42.5253 10.4528C43.9171 11.4292 45.2061 12.5677 46.3644 13.854C47.0601 14.6269 47.6968 15.4424 48.2735 16.2934C48.6141 16.7959 49.1771 17.1004 49.7835 17.1004H53.5396C54.9344 17.1004 55.82 15.5893 55.1266 14.3769C50.9134 7.00798 43.6145 1.63685 34.9944 0.0315071C33.8709 -0.177654 32.8312 0.680898 32.8312 1.82588V56.1754C32.8312 57.3226 33.874 58.1782 34.9999 57.9683C48.6584 55.4223 58.9996 43.4221 58.9996 29.0005C58.9999 27.7788 58.9249 26.5751 58.7802 25.3928Z" fill="white"/>
<path d="M0.219709 25.3929C0.332445 24.4719 1.10608 23.7759 2.0322 23.7759H5.37246H7.43731H8.96656C9.648 23.7759 10.2006 24.3294 10.2006 25.0122V28.873C10.2006 29.7448 9.49522 30.4513 8.62525 30.4513C7.67313 30.4513 6.92934 31.2933 7.06483 32.2375C7.69825 36.6534 9.61889 40.7962 12.6356 44.1468C13.7938 45.4332 15.0828 46.5718 16.4747 47.548C17.6812 48.3943 19.3405 47.5255 19.3405 46.05V11.951C19.3405 10.4755 17.6812 9.60655 16.4747 10.453C15.0828 11.4293 13.7938 12.5678 12.6356 13.8542C11.9398 14.627 11.3031 15.4425 10.7265 16.2935C10.3859 16.796 9.82279 17.1005 9.21641 17.1005H5.46023C4.06543 17.1005 3.1798 15.5895 3.87321 14.377C8.0864 7.0081 15.3853 1.63697 24.0053 0.0316292C25.1289 -0.177532 26.1686 0.68102 26.1686 1.826V56.1756C26.1686 57.3228 25.1258 58.1784 23.9999 57.9685C10.3413 55.4223 0 43.4221 0 29.0005C0 27.779 0.0750587 26.5752 0.219709 25.3929Z" fill="white"/>
</svg>
