<svg width="164" height="164" viewBox="0 0 164 164" fill="none" xmlns="http://www.w3.org/2000/svg">
<circle cx="82" cy="82" r="72" stroke="grey" stroke-width="20"/>
<path d="M46 76C42.6863 76 40 78.6863 40 82C40 85.3137 42.6863 88 46 88L46 76ZM121.243 86.2426C123.586 83.8995 123.586 80.1005 121.243 77.7574L83.0589 39.5736C80.7157 37.2305 76.9167 37.2305 74.5736 39.5736C72.2305 41.9167 72.2305 45.7157 74.5736 48.0589L108.515 82L74.5736 115.941C72.2304 118.284 72.2304 122.083 74.5736 124.426C76.9167 126.77 80.7157 126.77 83.0589 124.426L121.243 86.2426ZM46 88L117 88L117 76L46 76L46 88Z" fill="grey"/>
</svg>
