<svg xmlns="http://www.w3.org/2000/svg" viewBox="0 0 3030.17 1839.09">
  <g id="Layer_2" data-name="Layer 2">
    <g id="Layer_1-2" data-name="Layer 1">
      <rect width="3030.17" height="1839.09" style="fill: #2d2c2f"/>
      <path d="M1515.09,710.37c-115.53,0-209.18,93.65-209.18,209.17s93.65,209.18,209.18,209.18,209.17-93.65,209.17-209.18S1630.61,710.37,1515.09,710.37Zm-56.78,311.32h-26.77a3.69,3.69,0,0,1-2.72-1.08l-.08-.07-.12-.14a3.65,3.65,0,0,1-1.07-2.69V984.66c0-3.21,4.55-5.6,6.8-2.82l26.78,33C1463.21,1017.46,1462,1021.69,1458.31,1021.69Zm66.94,0h-23.67a3.61,3.61,0,0,1-3.17-1.65,4.15,4.15,0,0,1-.27-.32L1484,999l-48.86-71.64c-3-4.35-8.38-9.7-9-15.09-1.31-11,0-22.88,0-34,0-4.15,5.27-5.16,7.42-2q6,8.79,12,17.59l83.12,121.8C1530.43,1018.25,1528.11,1021.69,1525.25,1021.69Zm79.11-1.55a3.63,3.63,0,0,1-3.11,1.55c-11,0-22.19.67-33.17,0-4.58-.27-5.86-3.43-8.24-6.92l-73.44-107.6-57.79-84.69c-1.74-2.55.58-6,3.44-6h89.48c18,0,35.12,4.06,49.53,15.36,39.74,31.18,38,100.27-4.75,127.64l38.39,56.21A3.33,3.33,0,0,1,1604.36,1020.14Z" style="fill: #f09220"/>
    </g>
  </g>
</svg>
