<svg width="240" height="234" viewBox="0 0 240 234" fill="none" xmlns="http://www.w3.org/2000/svg">
<path d="M42.5 1.88608e-05H197.5C203.083 -0.00524284 208.612 1.09046 213.77 3.22442C218.929 5.35838 223.616 8.48871 227.564 12.4362C231.511 16.3838 234.642 21.071 236.776 26.2297C238.91 31.3885 240.005 36.9174 240 42.5V191.5C240.005 197.083 238.91 202.612 236.776 207.77C234.642 212.929 231.511 217.616 227.564 221.564C223.616 225.511 218.929 228.642 213.77 230.776C208.612 232.91 203.083 234.005 197.5 234H42.5C36.9174 234.005 31.3885 232.91 26.2297 230.776C21.071 228.642 16.3838 225.511 12.4362 221.564C8.48871 217.616 5.35838 212.929 3.22442 207.77C1.09046 202.612 -0.00524284 197.083 1.88608e-05 191.5V42.5C-0.00524284 36.9174 1.09046 31.3885 3.22442 26.2297C5.35838 21.071 8.48871 16.3838 12.4362 12.4362C16.3838 8.48871 21.071 5.35838 26.2297 3.22442C31.3885 1.09046 36.9174 -0.00524284 42.5 1.88608e-05V1.88608e-05Z" fill="#CD6799"/>
<path d="M179.356 126.708C173.669 126.738 168.727 128.116 164.589 130.153C163.07 127.127 161.552 124.431 161.284 122.454C160.986 120.147 160.629 118.739 160.986 115.983C161.343 113.227 162.951 109.303 162.921 109.003C162.892 108.703 162.564 107.295 159.289 107.265C156.014 107.235 153.186 107.895 152.858 108.763C152.531 109.632 151.905 111.609 151.489 113.646C150.923 116.642 144.939 127.337 141.515 132.939C140.413 130.752 139.461 128.835 139.252 127.307C138.954 125 138.597 123.592 138.954 120.836C139.312 118.08 140.919 114.156 140.89 113.856C140.86 113.557 140.532 112.148 137.257 112.119C133.982 112.089 131.154 112.748 130.826 113.616C130.499 114.485 130.142 116.522 129.457 118.5C128.772 120.477 120.823 138.331 118.739 142.945C117.667 145.312 116.744 147.199 116.089 148.487C116.089 148.487 116.059 148.577 115.97 148.727C115.404 149.835 115.077 150.434 115.077 150.434C115.077 150.434 115.077 150.434 115.077 150.464C114.63 151.273 114.154 152.022 113.916 152.022C113.737 152.022 113.409 149.865 113.975 146.929C115.166 140.728 117.994 131.082 117.965 130.752C117.965 130.572 118.501 128.895 116.119 128.026C113.797 127.157 112.963 128.595 112.754 128.595C112.546 128.595 112.397 129.105 112.397 129.105C112.397 129.105 114.987 118.26 107.455 118.26C102.751 118.26 96.2605 123.443 93.045 128.116C91.0205 129.224 86.7035 131.591 82.0887 134.137C80.3322 135.126 78.516 136.115 76.819 137.043C76.6999 136.923 76.5808 136.774 76.4617 136.654C67.3513 126.858 50.5 119.937 51.2146 106.786C51.4825 101.993 53.12 89.4107 83.5774 74.1323C108.646 61.6999 128.594 65.145 132.047 72.7842C136.989 83.6887 121.359 103.94 95.4566 106.876C85.5721 107.984 80.3917 104.15 79.0817 102.712C77.7122 101.214 77.5038 101.124 76.9976 101.424C76.164 101.873 76.6999 103.221 76.9976 104C77.7717 106.037 80.9574 109.632 86.3462 111.4C91.1098 112.957 102.691 113.826 116.714 108.374C132.404 102.262 144.671 85.2765 141.068 71.0466C137.466 56.6071 113.648 51.8438 91.1098 59.9024C77.7122 64.6956 63.1831 72.2449 52.733 82.071C40.3178 93.7545 38.3528 103.91 39.1567 108.164C42.0446 123.263 62.7366 133.089 71.0133 140.369C70.5965 140.608 70.2095 140.818 69.882 140.998C65.7436 143.065 49.9641 151.363 46.0341 160.141C41.5682 170.087 46.7487 177.216 50.1725 178.175C60.8013 181.141 71.7279 175.808 77.5931 167.001C83.4583 158.193 82.7437 146.75 80.0344 141.507C80.0047 141.447 79.9749 141.387 79.9153 141.327C80.9871 140.698 82.0887 140.039 83.1605 139.41C85.2744 138.152 87.3585 136.983 89.1448 136.025C88.1326 138.811 87.3883 142.136 87.031 146.929C86.5844 152.561 88.8769 159.871 91.8839 162.747C93.2237 164.005 94.8016 164.035 95.8139 164.035C99.3271 164.035 100.905 161.099 102.662 157.624C104.805 153.37 106.74 148.427 106.74 148.427C106.74 148.427 104.329 161.788 110.879 161.788C113.261 161.788 115.672 158.673 116.744 157.085V157.115C116.744 157.115 116.804 157.025 116.923 156.815C117.161 156.426 117.31 156.186 117.31 156.186V156.126C118.262 154.449 120.406 150.644 123.592 144.323C127.7 136.174 131.66 125.989 131.66 125.989C131.66 125.989 132.017 128.475 133.238 132.61C133.953 135.036 135.441 137.702 136.632 140.279C135.679 141.627 135.084 142.376 135.084 142.376C135.084 142.376 135.084 142.376 135.114 142.406C134.34 143.424 133.506 144.533 132.583 145.611C129.338 149.506 125.467 153.969 124.931 155.258C124.306 156.785 124.455 157.894 125.646 158.793C126.509 159.452 128.058 159.541 129.636 159.452C132.553 159.242 134.608 158.523 135.62 158.074C137.198 157.504 139.044 156.636 140.771 155.347C143.956 152.981 145.891 149.596 145.713 145.132C145.623 142.675 144.82 140.219 143.837 137.912C144.135 137.493 144.403 137.073 144.7 136.654C149.732 129.254 153.632 121.136 153.632 121.136C153.632 121.136 153.99 123.622 155.21 127.756C155.806 129.853 157.026 132.13 158.098 134.347C153.364 138.212 150.447 142.705 149.405 145.641C147.529 151.093 148.988 153.55 151.757 154.119C153.007 154.389 154.793 153.79 156.103 153.22C157.771 152.681 159.736 151.752 161.611 150.374C164.797 148.008 167.864 144.712 167.685 140.249C167.596 138.212 167.06 136.204 166.315 134.257C170.335 132.58 175.515 131.651 182.125 132.43C196.296 134.107 199.095 143.005 198.559 146.75C198.023 150.494 195.046 152.531 194.063 153.16C193.081 153.79 192.753 153.999 192.843 154.449C192.962 155.108 193.438 155.078 194.272 154.958C195.433 154.748 201.715 151.932 201.983 145.042C202.43 136.234 194.093 126.618 179.356 126.708ZM70.0308 163.795C65.3268 168.948 58.7768 170.895 55.9484 169.248C52.9116 167.48 54.1025 159.871 59.8784 154.419C63.3916 151.093 67.917 148.008 70.924 146.12C71.6088 145.701 72.6211 145.102 73.8417 144.353C74.0501 144.233 74.1692 144.173 74.1692 144.173C74.4074 144.023 74.6456 143.874 74.8838 143.724C76.9976 151.513 74.9731 158.373 70.0308 163.795ZM104.269 140.369C102.632 144.383 99.208 154.658 97.1239 154.089C95.3375 153.61 94.236 145.821 96.7666 138.122C98.0468 134.257 100.756 129.644 102.334 127.846C104.895 124.97 107.723 124.012 108.408 125.18C109.271 126.708 105.282 137.852 104.269 140.369ZM132.523 153.969C131.839 154.329 131.184 154.568 130.886 154.389C130.678 154.269 131.184 153.79 131.184 153.79C131.184 153.79 134.727 149.955 136.126 148.217C136.93 147.199 137.883 146.001 138.895 144.653V145.042C138.895 149.625 134.488 152.711 132.523 153.969ZM154.317 148.966C153.811 148.607 153.9 147.409 155.597 143.664C156.252 142.196 157.8 139.739 160.45 137.373C160.748 138.331 160.956 139.26 160.927 140.129C160.897 145.911 156.788 148.068 154.317 148.966Z" fill="white"/>
</svg>
