<?xml version="1.0" encoding="utf-8"?>
<!-- Generator: Adobe Illustrator 25.0.1, SVG Export Plug-In . SVG Version: 6.00 Build 0)  -->
<svg version="1.1" id="Layer_1" xmlns="http://www.w3.org/2000/svg" xmlns:xlink="http://www.w3.org/1999/xlink" x="0px" y="0px"
	 viewBox="0 0 2159.9 1120.7" style="enable-background:new 0 0 2159.9 1120.7;" xml:space="preserve">
<style type="text/css">
	.st0{fill:#68C4B8;}
	.st1{fill:#C6C6C6;}
	.st2{fill:#E0E0E0;}
	.st3{fill:#EFEFEF;}
	.st4{fill:#F7F7F7;}
	.st5{fill:#83B7AE;}
	.st6{fill:#7A7A7A;}
	.st7{fill:#FFFFFF;stroke:#FFFFFF;stroke-width:10.8388;stroke-linecap:round;stroke-linejoin:round;}
	.st8{fill:#6ACCBA;}
	.st9{fill:#438E80;}
	.st10{fill:#CECECE;}
	.st11{fill:none;stroke:#C72828;stroke-width:2;stroke-linecap:round;stroke-linejoin:round;}
	.st12{fill:#C49654;}
	.st13{fill:#B5B5B5;}
	.st14{fill:#9E9E9E;}
	.st15{fill:#28786D;}
	.st16{fill:#FFFFFF;}
	.st17{fill:#C58569;}
	.st18{opacity:0.36;fill:#894C37;enable-background:new    ;}
</style>
<g id="background">
	<rect class="st0" width="2159.9" height="1120.7"/>
</g>
<g id="computerStand">
	<path class="st1" d="M1169.5,1083.3H860.8c0,0,16.6-65.5,16.6-108.7s-16.6-86.1-16.6-86.1h308.7c0,0-16,38.7-16,87.2
		S1169.5,1083.3,1169.5,1083.3z"/>
</g>
<g id="computerMonitor">
	<g>
		<rect x="424" y="210.1" class="st2" width="1180.4" height="678.3"/>
		<path d="M1604.4,901.4H424c-7.2,0-13-5.8-13-13V210.1c0-7.2,5.8-13,13-13l0,0h1180.4c7.2,0,13,5.8,13,13l0,0v678.3
			C1617.4,895.6,1611.6,901.4,1604.4,901.4z M436.9,875.5h1154.5V223.1H436.9V875.5z"/>
	</g>
	<path class="st3" d="M543.9,350h721.8c13,0,23.5,10.5,23.5,23.5v502l0,0H520.4l0,0v-502C520.4,360.5,530.9,350,543.9,350z"/>
	<path class="st3" d="M1340.5,350h143.7c13,0,23.5,10.5,23.5,23.5v502.4l0,0H1317l0,0V373.5C1317,360.5,1327.5,350,1340.5,350
		C1340.5,350,1340.5,350,1340.5,350z"/>
	<rect x="436.9" y="223.1" class="st4" width="1154.6" height="57"/>
</g>
<g id="computerVideo">
	<path class="st5" d="M579.9,392.5H1253c3.8,0,6.8,3.1,6.8,6.8v370.5c0,3.8-3.1,6.8-6.8,6.8H579.9c-3.8,0-6.8-3.1-6.8-6.8V399.3
		C573.1,395.5,576.1,392.5,579.9,392.5z"/>
	<g>
		<path class="st6" d="M569.3,816.1h410c2.6,0,4.6,2.1,4.6,4.6v3.8c0,2.6-2.1,4.6-4.6,4.6h-410c-2.6,0-4.6-2.1-4.6-4.6v-3.8
			C564.7,818.1,566.7,816.1,569.3,816.1z"/>
		<path class="st6" d="M569.3,838.1h154.5c2.6,0,4.6,2.1,4.6,4.6v3.8c0,2.6-2.1,4.6-4.6,4.6H569.3c-2.6,0-4.6-2.1-4.6-4.6v-3.8
			C564.7,840.1,566.7,838.1,569.3,838.1z"/>
	</g>
</g>
<g id="calendar">
	<rect x="1743.1" y="153.2" class="st7" width="272.3" height="340"/>
	<g>
		<circle class="st8" cx="1879.6" cy="180.4" r="11.8"/>
		<path class="st9" d="M1891.5,180.4c0,6.5-5.3,11.8-11.8,11.8c-3.7,0-7.2-1.7-9.4-4.7c4.4,4.8,11.8,5.2,16.7,0.9
			c4.6-4.1,5.2-11.1,1.5-16C1890.4,174.7,1891.5,177.5,1891.5,180.4z"/>
	</g>
	<g>
		<path class="st10" d="M1782.6,442.5h9.4c2.6,0,4.7,2.1,4.7,4.7v2.6c0,2.6-2.1,4.7-4.7,4.7h-9.4c-2.6,0-4.7-2.1-4.7-4.7v-2.6
			C1777.9,444.6,1780,442.5,1782.6,442.5z"/>
		<g>
			<line class="st11" x1="1780.1" y1="442.5" x2="1795.4" y2="454.1"/>
			<line class="st11" x1="1781.9" y1="456" x2="1793.6" y2="440.7"/>
		</g>
		<path class="st10" d="M1808.9,442.5h9.4c2.6,0,4.7,2.1,4.7,4.7v2.6c0,2.6-2.1,4.7-4.7,4.7h-9.4c-2.6,0-4.7-2.1-4.7-4.7v-2.6
			C1804.2,444.6,1806.3,442.5,1808.9,442.5z"/>
		<g>
			<line class="st11" x1="1807.2" y1="441.5" x2="1820.8" y2="455.1"/>
			<line class="st11" x1="1807.2" y1="455.1" x2="1820.8" y2="441.5"/>
		</g>
		<path class="st10" d="M1835.1,442.5h9.4c2.6,0,4.7,2.1,4.7,4.7v2.6c0,2.6-2.1,4.7-4.7,4.7h-9.4c-2.6,0-4.7-2.1-4.7-4.7v-2.6
			C1830.4,444.6,1832.5,442.5,1835.1,442.5z"/>
		<g>
			<line class="st11" x1="1833" y1="442" x2="1847.6" y2="454.6"/>
			<line class="st11" x1="1834" y1="455.6" x2="1846.6" y2="441"/>
		</g>
		<path class="st10" d="M1861.4,442.5h9.4c2.6,0,4.7,2.1,4.7,4.7v2.6c0,2.6-2.1,4.7-4.7,4.7h-9.4c-2.6,0-4.7-2.1-4.7-4.7v-2.6
			C1856.7,444.6,1858.8,442.5,1861.4,442.5z"/>
		<g>
			<line class="st11" x1="1859.7" y1="441.5" x2="1873.4" y2="455.1"/>
			<line class="st11" x1="1859.8" y1="455.2" x2="1873.3" y2="441.5"/>
		</g>
		<path class="st10" d="M1887.7,442.5h9.4c2.6,0,4.7,2.1,4.7,4.7v2.6c0,2.6-2.1,4.7-4.7,4.7h-9.4c-2.6,0-4.7-2.1-4.7-4.7v-2.6
			C1882.9,444.6,1885.1,442.5,1887.7,442.5z"/>
		<g>
			<line class="st11" x1="1884.7" y1="443.2" x2="1900.9" y2="453.4"/>
			<line class="st11" x1="1887.7" y1="456.5" x2="1897.9" y2="440.2"/>
		</g>
		<path class="st10" d="M1913.9,442.5h9.4c2.6,0,4.7,2.1,4.7,4.7v2.6c0,2.6-2.1,4.7-4.7,4.7h-9.4c-2.6,0-4.7-2.1-4.7-4.7v-2.6
			C1909.2,444.6,1911.3,442.5,1913.9,442.5z"/>
		<path class="st10" d="M1940.2,442.5h9.4c2.6,0,4.7,2.1,4.7,4.7v2.6c0,2.6-2.1,4.7-4.7,4.7h-9.4c-2.6,0-4.7-2.1-4.7-4.7v-2.6
			C1935.5,444.6,1937.6,442.5,1940.2,442.5z"/>
		<path class="st10" d="M1966.4,442.5h9.4c2.6,0,4.7,2.1,4.7,4.7v2.6c0,2.6-2.1,4.7-4.7,4.7h-9.4c-2.6,0-4.7-2.1-4.7-4.7v-2.6
			C1961.7,444.6,1963.8,442.5,1966.4,442.5z"/>
		<circle class="st11" cx="1971.2" cy="448.5" r="8.7"/>
	</g>
</g>
<g id="table">
	<rect y="1058.4" class="st12" width="2159.9" height="62.2"/>
</g>
<g id="interface">
	<path class="st13" d="M1351.3,386.3h122.1c3.8,0,6.8,3.1,6.8,6.8v67.6c0,3.8-3.1,6.8-6.8,6.8h-122.1c-3.8,0-6.8-3.1-6.8-6.8v-67.6
		C1344.5,389.3,1347.6,386.3,1351.3,386.3z"/>
	<path class="st13" d="M1351.3,479.1h122.1c3.8,0,6.8,3.1,6.8,6.8v67.6c0,3.8-3.1,6.8-6.8,6.8h-122.1c-3.8,0-6.8-3.1-6.8-6.8v-67.6
		C1344.5,482.1,1347.6,479.1,1351.3,479.1z"/>
	<path class="st13" d="M1351.3,571.9h122.1c3.8,0,6.8,3.1,6.8,6.8v67.6c0,3.8-3.1,6.8-6.8,6.8h-122.1c-3.8,0-6.8-3.1-6.8-6.8v-67.6
		C1344.5,574.9,1347.6,571.9,1351.3,571.9z"/>
	<path class="st13" d="M1351.3,664.7h122.1c3.8,0,6.8,3.1,6.8,6.8v67.6c0,3.8-3.1,6.8-6.8,6.8h-122.1c-3.8,0-6.8-3.1-6.8-6.8v-67.6
		C1344.5,667.8,1347.6,664.7,1351.3,664.7z"/>
	<path class="st13" d="M1351.3,757.5h122.1c3.8,0,6.8,3.1,6.8,6.8V832c0,3.8-3.1,6.8-6.8,6.8h-122.1c-3.8,0-6.8-3.1-6.8-6.8v-67.6
		C1344.5,760.6,1347.6,757.5,1351.3,757.5z"/>
	<path class="st13" d="M1351.3,850.3h122.1c3.8,0,6.8,3.1,6.8,6.8v19.5l0,0h-135.8l0,0v-19.5
		C1344.5,853.4,1347.6,850.3,1351.3,850.3C1351.3,850.3,1351.3,850.3,1351.3,850.3z"/>
	<path class="st14" d="M523.8,245.7h34.5c2.6,0,4.6,2.1,4.6,4.6v2.5c0,2.6-2.1,4.6-4.6,4.6h-34.5c-2.6,0-4.6-2.1-4.6-4.6v-2.5
		C519.2,247.8,521.2,245.7,523.8,245.7z"/>
	<path class="st14" d="M619.3,245.7h34.5c2.6,0,4.6,2.1,4.6,4.6v2.5c0,2.6-2.1,4.6-4.6,4.6h-34.5c-2.6,0-4.6-2.1-4.6-4.6v-2.5
		C614.7,247.8,616.8,245.7,619.3,245.7z"/>
	<path class="st14" d="M714.8,245.7h34.5c2.6,0,4.6,2.1,4.6,4.6v2.5c0,2.6-2.1,4.6-4.6,4.6h-34.5c-2.6,0-4.6-2.1-4.6-4.6v-2.5
		C710.2,247.8,712.3,245.7,714.8,245.7z"/>
	<path class="st14" d="M810.4,245.7h34.5c2.6,0,4.6,2.1,4.6,4.6v2.5c0,2.6-2.1,4.6-4.6,4.6h-34.5c-2.6,0-4.6-2.1-4.6-4.6v-2.5
		C805.7,247.8,807.8,245.7,810.4,245.7z"/>
	<path class="st14" d="M905.9,245.7h34.5c2.6,0,4.6,2.1,4.6,4.6v2.5c0,2.6-2.1,4.6-4.6,4.6h-34.5c-2.6,0-4.6-2.1-4.6-4.6v-2.5
		C901.3,247.8,903.3,245.7,905.9,245.7z"/>
	<path class="st14" d="M1001.4,245.7h34.4c2.6,0,4.6,2.1,4.6,4.6v2.5c0,2.6-2.1,4.6-4.6,4.6h-34.4c-2.6,0-4.6-2.1-4.6-4.6v-2.5
		C996.8,247.8,998.9,245.7,1001.4,245.7z"/>
</g>
<g id="videoBlobRight">
	<path class="st15" d="M978.2,620.7c-31.3,57.5-89.2,179.9-121,118.5c-28-53.9-69.2,6.9-116.7-24.2c-34.3-22.5-44.1-97.3-44.1-139.6
		c0-39.2,50-21,81-42.6c20.8-14.4,3-51.2,55.6-66.9c38.5-11.5,41,54.4,64,82.2C913.5,568.1,1003,575.3,978.2,620.7z"/>
</g>
<g id="videoBlobLeft">
	<path class="st15" d="M747.5,466.7c-13.3,5.1-9.9,25.7-22.1,25.7c-6.5,0-1.2-7-16.5-8.6c-5.7-0.6-16.1-19.8-16.1-26.4
		c0-7.7,13.3-5.3,17.9-10c3.9-4,18.5-4.7,24.1-4.7C747,442.7,763.1,460.7,747.5,466.7z"/>
</g>
<g id="person">
	<g>
		<path class="st16" d="M1545.4,1120.7H534.8c57.9-32.2,118-56.7,174-67.3c59.2-11.2,101.6-29,131.8-48.6l2.3-1.5
			c72.1-48.1,73.5-106.5,73.5-106.5v-64.2c35.1-28.3,78.9-43.7,124-43.6c10.5,0,20.9,0.8,31.2,2.4c3.7,0.6,7.4,1.2,11,2
			c29.6,6.4,57.3,19.6,81,38.4v64.8c0,0,0.3,10.8,6.3,27c1.3,3.5,2.9,7.2,4.8,11.2c9.8,20.3,28.3,45.8,63.2,68.8
			c0.8,0.5,1.6,1,2.3,1.5c30.2,19.4,72.3,37,131,48.1C1427.4,1063.9,1487.6,1088.5,1545.4,1120.7z"/>
		<path class="st17" d="M1238.1,1003.8c-3.6,43.6-21.6,84.7-51.1,116.9H894.2c-29.6-32.4-47.7-73.7-51.2-117.4
			c72.1-48.1,73.5-106.5,73.5-106.5v-64.2c35.2-28.3,78.9-43.7,124.1-43.6c10.5,0,20.9,0.8,31.2,2.4c3.7,0.6,7.4,1.2,11,2
			c29.6,6.4,57.3,19.6,81,38.4v64.8c0,0,0.3,10.8,6.3,27c1.3,3.5,2.9,7.2,4.8,11.2C1184.7,955.2,1203.2,980.7,1238.1,1003.8z"/>
	</g>
	<path class="st18" d="M1174.9,934.9c-25.5,17.1-59.1,27.4-95.9,27.4c-79.5,0-144-48.3-144-107.8c0-1,0.1-2,0.1-2.9
		c0-0.5-0.1-1-0.1-1.6c0-31.4,60.6-57.1,136.8-58.6c3.7,0.6,7.4,1.2,11,2c29.6,6.4,57.3,19.6,81,38.4v64.8c0,0,0.3,10.8,6.3,27
		C1171.4,927.3,1173,931,1174.9,934.9z"/>
	<path class="st17" d="M1269.3,569.8L1269.3,569.8c-19.1-8.5-41.3-5.7-57.7,7.3v-68.3c0-87.1-71.3-158.4-158.4-158.4H1028
		c-87.1,0-158.4,71.3-158.4,158.4v69.4c-16.4-13.9-39.4-17.2-59.1-8.4l0,0c-28.1,12.7-40.6,45.7-28,73.9l10.3,22.9
		c12.7,28.1,45.7,40.6,73.9,28l0,0c1-0.5,2-0.9,3-1.4v61.1c0,87.1,71.3,158.4,158.4,158.4h25.2c87.1,0,158.4-71.3,158.4-158.4v-60.4
		c0.5,0.3,1,0.5,1.6,0.8l0,0c28.1,12.6,61.2,0.1,73.9-28l10.3-22.9C1310,615.5,1297.4,582.4,1269.3,569.8z"/>
	<path d="M865.2,572.9c-17.4-44.1-2.1-103.9-42-143.4C762.4,231.5,940.5,360,933.4,286c35,28.6,103.7-12.9,231,64.3
		s56.1,222.6,56.1,222.6s-7,3.7-7.3,5.2s-4.7-59.3-10.8-76.1s-20.3-50.8-44.3-61.5c-155.9-69.4-163,42.2-286.8,78.5v56.9
		L865.2,572.9z"/>
	<path d="M865.3,682.2v57.5c0,82,74,149.2,164.3,149.2h26.1c90.4,0,164.3-67.1,164.3-149.2c0,0,1.1-56.4,1.6-56.2l0,0l-1.6-110.6
		v-64.3c0-82.1-74-149.2-164.3-149.2h-26.1c-90.4,0-164.3,67.1-164.3,149.2V574"/>
</g>
</svg>
