<svg xmlns="http://www.w3.org/2000/svg" viewBox="0 0 2159.89 1120.66">
  <g id="background">
    <rect width="2159.89" height="1120.66" style="fill: #68c4b8"/>
  </g>
  <g id="computerStand">
    <path d="M1169.46,1083.31H860.75s16.59-65.51,16.59-108.71-16.59-86.14-16.59-86.14h308.71s-16,38.71-16,87.17S1169.46,1083.31,1169.46,1083.31Z" transform="translate(0)" style="fill: #c6c6c6"/>
  </g>
  <g id="computerMonitor">
    <g>
      <rect x="423.99" y="210.12" width="1180.45" height="678.34" style="fill: #e0e0e0"/>
      <path d="M1604.44,901.42H424a13,13,0,0,1-13-13V210.12a13,13,0,0,1,13-13H1604.44a13,13,0,0,1,13,13V888.46A13,13,0,0,1,1604.44,901.42ZM436.94,875.51H1591.48V223.07H436.94Z" transform="translate(0)"/>
    </g>
    <path d="M543.92,350H1265.7a23.5,23.5,0,0,1,23.5,23.5v502a0,0,0,0,1,0,0H520.42a0,0,0,0,1,0,0v-502A23.5,23.5,0,0,1,543.92,350Z" style="fill: #efefef"/>
    <path d="M1340.53,350h143.73a23.5,23.5,0,0,1,23.5,23.5V875.86a0,0,0,0,1,0,0H1317a0,0,0,0,1,0,0V373.48A23.5,23.5,0,0,1,1340.53,350Z" style="fill: #efefef"/>
    <rect x="436.94" y="223.1" width="1154.55" height="56.96" style="fill: #f7f7f7"/>
  </g>
  <g id="computerVideo">
    <rect x="573.06" y="392.48" width="686.81" height="384.12" rx="6.83" style="fill: #83b7ae"/>
    <g>
      <rect x="564.66" y="816.06" width="419.29" height="13.11" rx="4.63" style="fill: #7a7a7a"/>
      <rect x="564.66" y="838.06" width="163.79" height="13.11" rx="4.63" style="fill: #7a7a7a"/>
    </g>
  </g>
  <g id="calendar">
    <rect x="1743.09" y="153.2" width="272.31" height="340.03" style="fill: #fff;stroke: #fff;stroke-linecap: round;stroke-linejoin: round;stroke-width: 10.8387608326332px"/>
    <g>
      <circle cx="1879.64" cy="180.43" r="11.82" style="fill: #6accba"/>
      <path d="M1891.46,180.43a11.81,11.81,0,0,1-21.21,7.15,11.8,11.8,0,0,0,18.13-15.08A11.73,11.73,0,0,1,1891.46,180.43Z" transform="translate(0)" style="fill: #438e80"/>
    </g>
    <g>
      <rect x="1777.91" y="442.49" width="18.86" height="12" rx="4.71" style="fill: #cecece"/>
      <g>
        <line x1="1780.12" y1="442.48" x2="1795.43" y2="454.15" style="fill: none;stroke: #c72828;stroke-linecap: round;stroke-linejoin: round;stroke-width: 2px"/>
        <line x1="1781.94" y1="455.97" x2="1793.6" y2="440.66" style="fill: none;stroke: #c72828;stroke-linecap: round;stroke-linejoin: round;stroke-width: 2px"/>
      </g>
      <rect x="1804.17" y="442.49" width="18.86" height="12" rx="4.71" style="fill: #cecece"/>
      <g>
        <line x1="1807.23" y1="441.5" x2="1820.83" y2="455.12" style="fill: none;stroke: #c72828;stroke-linecap: round;stroke-linejoin: round;stroke-width: 2px"/>
        <line x1="1807.22" y1="455.11" x2="1820.84" y2="441.51" style="fill: none;stroke: #c72828;stroke-linecap: round;stroke-linejoin: round;stroke-width: 2px"/>
      </g>
      <rect x="1830.43" y="442.49" width="18.86" height="12" rx="4.71" style="fill: #cecece"/>
      <g>
        <line x1="1832.98" y1="442.05" x2="1847.6" y2="454.58" style="fill: none;stroke: #c72828;stroke-linecap: round;stroke-linejoin: round;stroke-width: 2px"/>
        <line x1="1834.03" y1="455.62" x2="1846.55" y2="441.01" style="fill: none;stroke: #c72828;stroke-linecap: round;stroke-linejoin: round;stroke-width: 2px"/>
      </g>
      <rect x="1856.69" y="442.49" width="18.86" height="12" rx="4.71" style="fill: #cecece"/>
      <g>
        <line x1="1859.7" y1="441.55" x2="1873.39" y2="455.08" style="fill: none;stroke: #c72828;stroke-linecap: round;stroke-linejoin: round;stroke-width: 2px"/>
        <line x1="1859.78" y1="455.16" x2="1873.31" y2="441.47" style="fill: none;stroke: #c72828;stroke-linecap: round;stroke-linejoin: round;stroke-width: 2px"/>
      </g>
      <rect x="1882.95" y="442.49" width="18.86" height="12" rx="4.71" style="fill: #cecece"/>
      <g>
        <line x1="1884.66" y1="443.19" x2="1900.95" y2="453.44" style="fill: none;stroke: #c72828;stroke-linecap: round;stroke-linejoin: round;stroke-width: 2px"/>
        <line x1="1887.68" y1="456.46" x2="1897.93" y2="440.17" style="fill: none;stroke: #c72828;stroke-linecap: round;stroke-linejoin: round;stroke-width: 2px"/>
      </g>
      <rect x="1909.2" y="442.49" width="18.86" height="12" rx="4.71" style="fill: #cecece"/>
      <rect x="1935.46" y="442.49" width="18.86" height="12" rx="4.71" style="fill: #cecece"/>
      <rect x="1961.72" y="442.49" width="18.86" height="12" rx="4.71" style="fill: #cecece"/>
      <circle cx="1971.15" cy="448.49" r="8.74" style="fill: none;stroke: #c72828;stroke-linecap: round;stroke-linejoin: round;stroke-width: 2px"/>
    </g>
  </g>
  <g id="table">
    <rect y="1058.43" width="2159.89" height="62.23" style="fill: #c49654"/>
  </g>
  <g id="interface">
    <rect x="1344.51" y="386.26" width="135.77" height="81.26" rx="6.83" style="fill: #b5b5b5"/>
    <rect x="1344.51" y="479.07" width="135.77" height="81.26" rx="6.83" style="fill: #b5b5b5"/>
    <rect x="1344.51" y="571.89" width="135.77" height="81.26" rx="6.83" style="fill: #b5b5b5"/>
    <rect x="1344.51" y="664.7" width="135.77" height="81.26" rx="6.83" style="fill: #b5b5b5"/>
    <rect x="1344.51" y="757.52" width="135.77" height="81.26" rx="6.83" style="fill: #b5b5b5"/>
    <path d="M1351.35,850.34h122.11a6.83,6.83,0,0,1,6.83,6.83v19.46a0,0,0,0,1,0,0H1344.51a0,0,0,0,1,0,0V857.17A6.83,6.83,0,0,1,1351.35,850.34Z" style="fill: #b5b5b5"/>
    <rect x="519.17" y="245.69" width="43.71" height="11.78" rx="4.63" style="fill: #9e9e9e"/>
    <rect x="614.69" y="245.69" width="43.71" height="11.78" rx="4.63" style="fill: #9e9e9e"/>
    <rect x="710.21" y="245.69" width="43.71" height="11.78" rx="4.63" style="fill: #9e9e9e"/>
    <rect x="805.74" y="245.69" width="43.71" height="11.78" rx="4.63" style="fill: #9e9e9e"/>
    <rect x="901.26" y="245.69" width="43.71" height="11.78" rx="4.63" style="fill: #9e9e9e"/>
    <rect x="996.78" y="245.69" width="43.71" height="11.78" rx="4.63" style="fill: #9e9e9e"/>
  </g>
  <g id="videoBlobRight">
    <path d="M978.24,620.69c-31.33,57.45-89.16,179.91-121,118.45-28-53.94-69.17,6.92-116.73-24.21-34.34-22.48-44.09-97.32-44.09-139.63,0-39.19,50-21,81-42.6,20.78-14.44,3.05-51.22,55.57-66.85,38.55-11.48,41,54.37,64,82.21C913.51,568.14,1003,575.3,978.24,620.69Z" transform="translate(0)" style="fill: #28786d"/>
  </g>
  <g id="videoBlobLeft">
    <path d="M747.48,466.66c-13.26,5.1-9.9,25.71-22.12,25.71-6.55,0-1.2-7-16.49-8.58-5.71-.59-16.08-19.81-16.08-26.39,0-7.67,13.35-5.3,17.94-10,3.9-4,18.45-4.72,24.06-4.72C747,442.66,763.08,460.66,747.48,466.66Z" transform="translate(0)" style="fill: #28786d"/>
  </g>
  <g id="person">
    <g>
      <path d="M1545.42,1120.66H534.85c57.86-32.19,118-56.73,174-67.27,59.25-11.17,101.6-29,131.85-48.63l2.34-1.54c72.12-48.08,73.49-106.46,73.49-106.46V832.6A197.39,197.39,0,0,1,1040.56,789a199.59,199.59,0,0,1,31.22,2.44q5.54.87,11,2a197.84,197.84,0,0,1,81,38.42v64.84s.26,10.85,6.32,27c1.31,3.49,2.88,7.23,4.79,11.16,9.81,20.31,28.32,45.78,63.19,68.82.77.51,1.55,1,2.34,1.52,30.2,19.45,72.32,37,131,48.11C1427.38,1063.93,1487.56,1088.47,1545.42,1120.66Z" transform="translate(0)" style="fill: #fff"/>
      <path d="M1238.07,1003.76a197.3,197.3,0,0,1-51.11,116.9H894.16A197.2,197.2,0,0,1,843,1003.22c72.12-48.08,73.49-106.46,73.49-106.46V832.6A197.39,197.39,0,0,1,1040.56,789a199.59,199.59,0,0,1,31.22,2.44q5.54.87,11,2a197.84,197.84,0,0,1,81,38.42v64.84s.26,10.85,6.32,27c1.31,3.49,2.88,7.23,4.79,11.16C1184.69,955.25,1203.2,980.72,1238.07,1003.76Z" transform="translate(0)" style="fill: #c58569"/>
    </g>
    <path d="M1174.88,934.94c-25.47,17.06-59.09,27.43-95.94,27.43-79.53,0-144-48.27-144-107.82,0-1,.09-1.95.13-2.92,0-.53-.13-1-.13-1.58,0-31.43,60.64-57.09,136.84-58.6q5.54.87,11,2a197.84,197.84,0,0,1,81,38.42v64.84s.26,10.85,6.32,27C1171.4,927.27,1173,931,1174.88,934.94Z" transform="translate(0)" style="fill: #894c37;opacity: 0.36"/>
    <path d="M1269.26,569.75h0a56,56,0,0,0-57.7,7.29v-68.3c0-87.12-71.28-158.4-158.41-158.4H1028c-87.12,0-158.4,71.28-158.4,158.4v69.42a56.06,56.06,0,0,0-59.1-8.41h0a56,56,0,0,0-28,73.88l10.29,22.86a56,56,0,0,0,73.88,28h0c1-.45,2-.93,3-1.44v61.1c0,87.12,71.28,158.4,158.4,158.4h25.18c87.13,0,158.41-71.28,158.41-158.4V693.76c.51.26,1,.52,1.55.75h0a56,56,0,0,0,73.88-28l10.29-22.86A56,56,0,0,0,1269.26,569.75Z" transform="translate(0)" style="fill: #c58569"/>
    <path d="M865.25,572.91c-17.38-44.11-2.08-103.89-42-143.43C762.37,231.5,940.55,360,933.44,286.05c35,28.6,103.71-12.88,231,64.29s56.1,222.57,56.1,222.57-7,3.65-7.35,5.25-4.71-59.26-10.85-76.12S1182,451.21,1158,440.53C1002.1,371.16,995,482.73,871.22,519v56.92Z" transform="translate(0)"/>
    <path d="M865.26,682.25v57.54c0,82.05,74,149.18,164.34,149.18h26.13c90.38,0,164.34-67.13,164.34-149.18,0,0,1.06-56.4,1.61-56.18h0L1220.07,573V508.66c0-82.05-74-149.18-164.34-149.18H1029.6c-90.39,0-164.34,67.13-164.34,149.18V574" transform="translate(0)"/>
  </g>
</svg>
