<svg width="240" height="234" viewBox="0 0 240 234" fill="none" xmlns="http://www.w3.org/2000/svg">
<path d="M42.5 1.88608e-05H197.5C203.083 -0.00524284 208.612 1.09046 213.77 3.22442C218.929 5.35838 223.616 8.48871 227.564 12.4362C231.511 16.3838 234.642 21.071 236.776 26.2297C238.91 31.3885 240.005 36.9174 240 42.5V191.5C240.005 197.083 238.91 202.612 236.776 207.77C234.642 212.929 231.511 217.616 227.564 221.564C223.616 225.511 218.929 228.642 213.77 230.776C208.612 232.91 203.083 234.005 197.5 234H42.5C36.9174 234.005 31.3885 232.91 26.2297 230.776C21.071 228.642 16.3838 225.511 12.4362 221.564C8.48871 217.616 5.35838 212.929 3.22442 207.77C1.09046 202.612 -0.00524284 197.083 1.88608e-05 191.5V42.5C-0.00524284 36.9174 1.09046 31.3885 3.22442 26.2297C5.35838 21.071 8.48871 16.3838 12.4362 12.4362C16.3838 8.48871 21.071 5.35838 26.2297 3.22442C31.3885 1.09046 36.9174 -0.00524284 42.5 1.88608e-05V1.88608e-05Z" fill="#2B3A42"/>
<path d="M192.462 79.3797V156.231L168.608 142.51V93.1011L192.462 79.3797Z" fill="#8DD6F9"/>
<path d="M189.697 74.4106L166.012 88.0756L122.874 64.416V36.7473L189.697 74.4106Z" fill="#8DD6F9"/>
<path d="M188.005 160.24L122.874 197V168.371L163.475 146.123L188.005 160.24Z" fill="#8DD6F9"/>
<path d="M162.911 96.4326V139.912L122.874 161.878V119.471L162.911 96.4326Z" fill="#1C77BF"/>
<path d="M160.207 91.4071L120 114.502L79.7935 91.4071L120 69.3286L160.207 91.4071Z" fill="#1C77BF"/>
<path d="M117.123 168.371V197L51.9917 160.24L76.5781 146.123L117.123 168.371Z" fill="#8DD6F9"/>
<path d="M117.124 119.471V161.878L77.0864 139.912V96.4326L117.124 119.471Z" fill="#1C77BF"/>
<path d="M117.123 36.7473V64.416L74.0406 88.0756L50.3564 74.4106L117.123 36.7473Z" fill="#8DD6F9"/>
<path d="M71.3899 93.1011V142.51L47.5366 156.231V79.3797L71.3899 93.1011Z" fill="#8DD6F9"/>
</svg>
