<svg width="240" height="234" viewBox="0 0 240 234" fill="none" xmlns="http://www.w3.org/2000/svg">
<path d="M42.5 1.88608e-05H197.5C203.083 -0.00524284 208.612 1.09046 213.77 3.22442C218.929 5.35838 223.616 8.48871 227.564 12.4362C231.511 16.3838 234.642 21.071 236.776 26.2297C238.91 31.3885 240.005 36.9174 240 42.5V191.5C240.005 197.083 238.91 202.612 236.776 207.77C234.642 212.929 231.511 217.616 227.564 221.564C223.616 225.511 218.929 228.642 213.77 230.776C208.612 232.91 203.083 234.005 197.5 234H42.5C36.9174 234.005 31.3885 232.91 26.2297 230.776C21.071 228.642 16.3838 225.511 12.4362 221.564C8.48871 217.616 5.35838 212.929 3.22442 207.77C1.09046 202.612 -0.00524284 197.083 1.88608e-05 191.5V42.5C-0.00524284 36.9174 1.09046 31.3885 3.22442 26.2297C5.35838 21.071 8.48871 16.3838 12.4362 12.4362C16.3838 8.48871 21.071 5.35838 26.2297 3.22442C31.3885 1.09046 36.9174 -0.00524284 42.5 1.88608e-05V1.88608e-05Z" fill="#00749A"/>
<path d="M49.6494 117C49.6494 144.852 65.8232 168.914 89.2922 180.31L55.757 88.3565C51.8549 97.1221 49.6494 106.792 49.6494 117Z" fill="white"/>
<path d="M167.503 113.437C167.503 104.757 164.393 98.7338 161.707 94.04C158.116 88.2434 154.779 83.3517 154.779 77.5551C154.779 71.08 159.671 65.0572 166.598 65.0572C166.91 65.0572 167.192 65.0855 167.503 65.1138C154.977 53.662 138.323 46.6496 120 46.6496C95.4281 46.6496 73.7971 59.2607 61.2144 78.3469C62.8544 78.4034 64.4095 78.4317 65.7385 78.4317C73.0902 78.4317 84.4854 77.5269 84.4854 77.5269C88.2744 77.3007 88.7268 82.871 84.9378 83.3234C84.9378 83.3234 81.1206 83.7758 76.8792 84.002L102.497 160.205L117.879 114.031L106.908 84.002C103.119 83.7758 99.5281 83.3234 99.5281 83.3234C95.7392 83.0972 96.1916 77.3007 99.9806 77.5269C99.9806 77.5269 111.602 78.4317 118.501 78.4317C125.853 78.4317 137.248 77.5269 137.248 77.5269C141.037 77.3007 141.49 82.871 137.701 83.3234C137.701 83.3234 133.883 83.7758 129.642 84.002L155.062 159.612L162.074 136.171C165.185 126.472 167.503 119.46 167.503 113.437Z" fill="white"/>
<path d="M121.244 123.164L100.15 184.494C106.456 186.361 113.129 187.35 120.028 187.35C128.228 187.35 136.089 185.937 143.384 183.363C143.186 183.052 143.017 182.741 142.875 182.402L121.244 123.164Z" fill="white"/>
<path d="M181.726 83.2386C182.037 85.4724 182.207 87.8759 182.207 90.4772C182.207 97.6028 180.878 105.633 176.863 115.671L155.373 177.793C176.297 165.606 190.35 142.929 190.35 117C190.35 104.757 187.212 93.2765 181.726 83.2386Z" fill="white"/>
<path d="M120 35C74.7869 35 38 71.7869 38 117C38 162.213 74.7869 199 120 199C165.213 199 202 162.213 202 117C202 71.7869 165.213 35 120 35ZM120 195.239C76.851 195.239 41.7607 160.149 41.7607 117C41.7607 73.851 76.851 38.7607 120 38.7607C163.149 38.7607 198.239 73.851 198.239 117C198.239 160.149 163.149 195.239 120 195.239Z" fill="white"/>
</svg>
